<svg width="100" height="101" viewBox="0 0 100 101" fill="none" xmlns="http://www.w3.org/2000/svg">
<g clip-path="url(#clip0_747_136)">
<path d="M56.6852 3.71103L57.2955 4.38394C59.6736 6.99616 63.3558 7.98253 66.7203 6.90839L67.5855 6.63254C72.6595 5.01505 78.026 8.1121 79.1629 13.3156L79.3551 14.2017C80.1116 17.654 82.8033 20.3498 86.2556 21.1021L87.1416 21.2944C92.3452 22.4312 95.4422 27.7978 93.8247 32.8718L93.5489 33.7369C92.4789 37.1015 93.4653 40.7837 96.0733 43.1618L96.7463 43.772C100.683 47.3581 100.683 53.5522 96.7463 57.1382L96.0733 57.7485C93.4611 60.1266 92.4747 63.8088 93.5489 67.1733L93.8247 68.0385C95.4422 73.1125 92.3452 78.479 87.1416 79.6159L86.2556 79.8081C82.8033 80.5646 80.1075 83.2563 79.3551 86.7086L79.1629 87.5946C78.026 92.7982 72.6595 95.8952 67.5855 94.2777L66.7203 94.0019C63.3558 92.9319 59.6736 93.9183 57.2955 96.5263L56.6852 97.1992C53.0992 101.136 46.9051 101.136 43.319 97.1992L42.7088 96.5263C40.3307 93.9141 36.6485 92.9277 33.2839 94.0019L32.4188 94.2777C27.3448 95.8952 21.9782 92.7982 20.8414 87.5946L20.6491 86.7086C19.8926 83.2563 17.201 80.5605 13.7487 79.8081L12.8626 79.6159C7.6591 78.479 4.56205 73.1125 6.17954 68.0385L6.45539 67.1733C7.52535 63.8088 6.53898 60.1266 3.93094 57.7485L3.25803 57.1382C-0.679109 53.5522 -0.679109 47.3581 3.25803 43.772L3.93094 43.1618C6.54316 40.7837 7.52953 37.1015 6.45539 33.7369L6.17954 32.8718C4.56205 27.7978 7.6591 22.4312 12.8626 21.2944L13.7487 21.1021C17.201 20.3456 19.8968 17.654 20.6491 14.2017L20.8414 13.3156C21.9782 8.1121 27.3448 5.01505 32.4188 6.63254L33.2839 6.90839C36.6485 7.97835 40.3307 6.99198 42.7088 4.38394L43.319 3.71103C46.9051 -0.226106 53.0992 -0.226106 56.6852 3.71103Z" fill="#E3322D"/>
<path d="M37.6646 34.3745H27.0231L26.4959 41.6555H26.7925C27.0341 41.1284 27.3086 40.6452 27.6161 40.2059C27.9236 39.7447 28.286 39.3603 28.7033 39.0528C29.1206 38.7233 29.6038 38.4708 30.1529 38.2951C30.702 38.1193 31.328 38.0315 32.0309 38.0315C32.9753 38.0315 33.8648 38.1962 34.6995 38.5257C35.5561 38.8551 36.3028 39.3383 36.9398 39.9753C37.5987 40.5903 38.1149 41.359 38.4882 42.2815C38.8616 43.182 39.0483 44.2033 39.0483 45.3455C39.0483 46.5096 38.8506 47.5858 38.4553 48.5742C38.0599 49.5625 37.4779 50.4191 36.7092 51.1439C35.9624 51.8688 35.0289 52.4398 33.9088 52.8571C32.7886 53.2525 31.5147 53.4502 30.087 53.4502C28.9669 53.4502 27.9675 53.3294 27.089 53.0878C26.2104 52.8462 25.4307 52.5277 24.7498 52.1323C24.0909 51.715 23.5088 51.2428 23.0037 50.7157C22.5205 50.1666 22.1032 49.6065 21.7517 49.0354L25.3428 46.2021C25.6064 46.6413 25.881 47.0587 26.1665 47.454C26.474 47.8494 26.8144 48.2008 27.1878 48.5083C27.5832 48.7938 28.0115 49.0244 28.4727 49.2001C28.9559 49.3539 29.505 49.4308 30.12 49.4308C31.35 49.4308 32.2725 49.1013 32.8874 48.4424C33.5244 47.7615 33.8429 46.861 33.8429 45.7408V45.4773C33.8429 44.401 33.5244 43.5554 32.8874 42.9404C32.2505 42.3254 31.3719 42.0179 30.2518 42.0179C29.3293 42.0179 28.5606 42.2046 27.9456 42.578C27.3525 42.9294 26.9023 43.2809 26.5948 43.6323L22.5424 43.0722L23.399 30.0586H37.6646V34.3745ZM50.0064 53.4502C46.9315 53.4502 44.6582 52.4069 43.1866 50.3203C41.737 48.2337 41.0122 45.3125 41.0122 41.5567C41.0122 37.8009 41.737 34.8797 43.1866 32.7931C44.6582 30.7065 46.9315 29.6632 50.0064 29.6632C53.0814 29.6632 55.3437 30.7065 56.7933 32.7931C58.2649 34.8797 59.0007 37.8009 59.0007 41.5567C59.0007 45.3125 58.2649 48.2337 56.7933 50.3203C55.3437 52.4069 53.0814 53.4502 50.0064 53.4502ZM50.0064 49.5625C51.478 49.5625 52.4993 49.0464 53.0704 48.0141C53.6634 46.9818 53.9599 45.5431 53.9599 43.6982V39.4152C53.9599 37.5702 53.6634 36.1316 53.0704 35.0993C52.4993 34.067 51.478 33.5508 50.0064 33.5508C48.5349 33.5508 47.5025 34.067 46.9095 35.0993C46.3385 36.1316 46.0529 37.5702 46.0529 39.4152V43.6982C46.0529 45.5431 46.3385 46.9818 46.9095 48.0141C47.5025 49.0464 48.5349 49.5625 50.0064 49.5625ZM50.0064 43.5005C49.2377 43.5005 48.6996 43.3468 48.3921 43.0393C48.1066 42.7318 47.9638 42.3584 47.9638 41.9191V41.1943C47.9638 40.755 48.1066 40.3816 48.3921 40.0741C48.6996 39.7666 49.2377 39.6129 50.0064 39.6129C50.7752 39.6129 51.3023 39.7666 51.5878 40.0741C51.8953 40.3816 52.0491 40.755 52.0491 41.1943V41.9191C52.0491 42.3584 51.8953 42.7318 51.5878 43.0393C51.3023 43.3468 50.7752 43.5005 50.0064 43.5005ZM65.3134 41.9191C63.6661 41.9191 62.3922 41.381 61.4917 40.3048C60.5912 39.2066 60.1409 37.702 60.1409 35.7912C60.1409 33.8803 60.5912 32.3868 61.4917 31.3105C62.3922 30.2123 63.6661 29.6632 65.3134 29.6632C66.9607 29.6632 68.2346 30.2123 69.1351 31.3105C70.0356 32.3868 70.4859 33.8803 70.4859 35.7912C70.4859 37.702 70.0356 39.2066 69.1351 40.3048C68.2346 41.381 66.9607 41.9191 65.3134 41.9191ZM65.3134 39.0528C65.9504 39.0528 66.3896 38.8222 66.6312 38.3609C66.8948 37.8997 67.0266 37.2847 67.0266 36.516V35.0664C67.0266 34.2976 66.8948 33.6826 66.6312 33.2214C66.3896 32.7601 65.9504 32.5295 65.3134 32.5295C64.6764 32.5295 64.2262 32.7601 63.9626 33.2214C63.721 33.6826 63.6002 34.2976 63.6002 35.0664V36.516C63.6002 37.2847 63.721 37.8997 63.9626 38.3609C64.2262 38.8222 64.6764 39.0528 65.3134 39.0528ZM75.8561 30.0586H79.579L74.6041 39.9423H70.8813L75.8561 30.0586ZM64.9181 43.171H68.6409L63.6661 53.0548H59.9432L64.9181 43.171ZM74.2417 53.4502C72.5944 53.4502 71.3205 52.912 70.42 51.8358C69.5195 50.7376 69.0692 49.2331 69.0692 47.3222C69.0692 45.4114 69.5195 43.9178 70.42 42.8416C71.3205 41.7434 72.5944 41.1943 74.2417 41.1943C75.889 41.1943 77.1629 41.7434 78.0635 42.8416C78.964 43.9178 79.4142 45.4114 79.4142 47.3222C79.4142 49.2331 78.964 50.7376 78.0635 51.8358C77.1629 52.912 75.889 53.4502 74.2417 53.4502ZM74.2417 50.5839C74.8787 50.5839 75.318 50.3532 75.5596 49.892C75.8231 49.4308 75.9549 48.8158 75.9549 48.047V46.5974C75.9549 45.8287 75.8231 45.2137 75.5596 44.7524C75.318 44.2912 74.8787 44.0606 74.2417 44.0606C73.6048 44.0606 73.1545 44.2912 72.891 44.7524C72.6494 45.2137 72.5286 45.8287 72.5286 46.5974V48.047C72.5286 48.8158 72.6494 49.4308 72.891 49.892C73.1545 50.3532 73.6048 50.5839 74.2417 50.5839ZM38.9688 77.2756C38.1836 77.2756 37.5088 77.1284 36.9445 76.834C36.3801 76.5272 35.9139 76.0917 35.5458 75.5273C35.1777 74.963 34.9078 74.2698 34.7361 73.4478C34.5643 72.6258 34.4784 71.6872 34.4784 70.6321C34.4784 69.5892 34.5643 68.6568 34.7361 67.8348C34.9078 67.0005 35.1777 66.3012 35.5458 65.7368C35.9139 65.1724 36.3801 64.743 36.9445 64.4486C37.5088 64.1418 38.1836 63.9885 38.9688 63.9885C39.754 63.9885 40.4288 64.1418 40.9932 64.4486C41.5575 64.743 42.0238 65.1724 42.3918 65.7368C42.7599 66.3012 43.0298 67.0005 43.2016 67.8348C43.3733 68.6568 43.4592 69.5892 43.4592 70.6321C43.4592 71.6872 43.3733 72.6258 43.2016 73.4478C43.0298 74.2698 42.7599 74.963 42.3918 75.5273C42.0238 76.0917 41.5575 76.5272 40.9932 76.834C40.4288 77.1284 39.754 77.2756 38.9688 77.2756ZM38.9688 75.9322C39.4841 75.9322 39.9197 75.8341 40.2755 75.6378C40.6313 75.4292 40.9257 75.1409 41.1588 74.7728C41.3919 74.4047 41.5575 73.9631 41.6557 73.4478C41.7661 72.9202 41.8213 72.3313 41.8213 71.6811V69.5831C41.8213 68.9451 41.7661 68.3623 41.6557 67.8348C41.5575 67.3072 41.3919 66.8594 41.1588 66.4913C40.9257 66.1233 40.6313 65.8411 40.2755 65.6448C39.9197 65.4362 39.4841 65.3319 38.9688 65.3319C38.4535 65.3319 38.018 65.4362 37.6622 65.6448C37.3064 65.8411 37.0119 66.1233 36.7788 66.4913C36.5457 66.8594 36.374 67.3072 36.2635 67.8348C36.1654 68.3623 36.1163 68.9451 36.1163 69.5831V71.6811C36.1163 72.3313 36.1654 72.9202 36.2635 73.4478C36.374 73.9631 36.5457 74.4047 36.7788 74.7728C37.0119 75.1409 37.3064 75.4292 37.6622 75.6378C38.018 75.8341 38.4535 75.9322 38.9688 75.9322ZM46.1389 77.0548V64.2093H54.2363V65.5528H47.6848V69.8775H53.6842V71.221H47.6848V77.0548H46.1389ZM57.1737 77.0548V64.2093H65.2711V65.5528H58.7196V69.8775H64.719V71.221H58.7196V77.0548H57.1737Z" fill="white"/>
</g>
<defs>
<clipPath id="clip0_747_136">
<rect width="99.4106" height="99.4106" fill="white" transform="translate(0.294678 0.760132)"/>
</clipPath>
</defs>
</svg>
