<svg width="31" height="25" viewBox="0 0 31 25" fill="none" xmlns="http://www.w3.org/2000/svg">
<path d="M24 10.9653C24 11.262 23.912 11.552 23.7472 11.7987C23.5824 12.0454 23.3481 12.2376 23.074 12.3512C22.7999 12.4647 22.4983 12.4944 22.2074 12.4365C21.9164 12.3786 21.6491 12.2358 21.4393 12.026C21.2296 11.8162 21.0867 11.5489 21.0288 11.258C20.9709 10.967 21.0007 10.6654 21.1142 10.3913C21.2277 10.1172 21.42 9.88295 21.6666 9.71813C21.9133 9.5533 22.2033 9.46533 22.5 9.46533C22.8978 9.46533 23.2794 9.62337 23.5607 9.90467C23.842 10.186 24 10.5675 24 10.9653ZM19 4.46533H14C13.7348 4.46533 13.4804 4.57069 13.2929 4.75823C13.1054 4.94576 13 5.20012 13 5.46533C13 5.73055 13.1054 5.9849 13.2929 6.17244C13.4804 6.35997 13.7348 6.46533 14 6.46533H19C19.2652 6.46533 19.5196 6.35997 19.7071 6.17244C19.8946 5.9849 20 5.73055 20 5.46533C20 5.20012 19.8946 4.94576 19.7071 4.75823C19.5196 4.57069 19.2652 4.46533 19 4.46533ZM31 10.4653V14.4653C31 15.261 30.6839 16.024 30.1213 16.5867C29.5587 17.1493 28.7957 17.4653 28 17.4653H27.705L25.6788 23.1378C25.54 23.5264 25.2845 23.8625 24.9473 24.1002C24.6101 24.3378 24.2076 24.4654 23.795 24.4653H22.205C21.7924 24.4654 21.3899 24.3378 21.0527 24.1002C20.7155 23.8625 20.46 23.5264 20.3213 23.1378L20.0813 22.4653H12.9188L12.6788 23.1378C12.54 23.5264 12.2845 23.8625 11.9473 24.1002C11.6101 24.3378 11.2076 24.4654 10.795 24.4653H9.205C8.79243 24.4654 8.38995 24.3378 8.05271 24.1002C7.71547 23.8625 7.45998 23.5264 7.32125 23.1378L5.75 18.7428C4.25523 17.0511 3.31926 14.939 3.07 12.6953C2.74728 12.8648 2.47702 13.1193 2.28844 13.4313C2.09985 13.7432 2.00011 14.1008 2 14.4653C2 14.7305 1.89464 14.9849 1.70711 15.1724C1.51957 15.36 1.26522 15.4653 1 15.4653C0.734784 15.4653 0.48043 15.36 0.292893 15.1724C0.105357 14.9849 0 14.7305 0 14.4653C0.00152797 13.5735 0.301028 12.7078 0.850918 12.0057C1.40081 11.3037 2.16955 10.8055 3.035 10.5903C3.2584 7.83449 4.51003 5.26345 6.54135 3.38774C8.57268 1.51203 11.2351 0.468843 14 0.465332H27C27.2652 0.465332 27.5196 0.570689 27.7071 0.758225C27.8946 0.945762 28 1.20012 28 1.46533C28 1.73055 27.8946 1.9849 27.7071 2.17244C27.5196 2.35997 27.2652 2.46533 27 2.46533H24.3263C25.9858 3.6297 27.291 5.23037 28.0975 7.09033C28.1513 7.21533 28.2038 7.34033 28.2538 7.46533C29.0046 7.52907 29.704 7.87306 30.2129 8.42891C30.7217 8.98476 31.0027 9.71176 31 10.4653ZM29 10.4653C29 10.2001 28.8946 9.94576 28.7071 9.75823C28.5196 9.57069 28.2652 9.46533 28 9.46533H27.5425C27.3295 9.46556 27.122 9.39778 26.9503 9.27187C26.7785 9.14596 26.6514 8.9685 26.5875 8.76533C26.0146 6.937 24.8723 5.33961 23.3275 4.20627C21.7826 3.07292 19.916 2.46294 18 2.46533H14C12.2534 2.46524 10.5445 2.97337 9.08171 3.92776C7.61891 4.88215 6.46543 6.24155 5.76191 7.8402C5.05839 9.43886 4.83524 11.2077 5.11967 12.931C5.4041 14.6543 6.18382 16.2575 7.36375 17.5453C7.45398 17.6435 7.52368 17.7586 7.56875 17.8841L9.205 22.4653H10.795L11.2725 21.1291C11.3418 20.9349 11.4695 20.7669 11.638 20.6481C11.8065 20.5293 12.0076 20.4654 12.2138 20.4653H20.7863C20.9924 20.4654 21.1935 20.5293 21.362 20.6481C21.5305 20.7669 21.6582 20.9349 21.7275 21.1291L22.205 22.4653H23.795L26.0588 16.1291C26.1281 15.9349 26.2557 15.7669 26.4242 15.6481C26.5927 15.5293 26.7938 15.4654 27 15.4653H28C28.2652 15.4653 28.5196 15.36 28.7071 15.1724C28.8946 14.9849 29 14.7305 29 14.4653V10.4653Z" fill="#692727"/>
</svg>
