<svg width="24" height="26" viewBox="0 0 24 26" fill="none" xmlns="http://www.w3.org/2000/svg">
<path d="M23.4137 11.0504L13.4137 1.05041C13.0387 0.675622 12.5302 0.465088 12 0.465088C11.4698 0.465088 10.9613 0.675622 10.5862 1.05041L0.586247 11.0504C0.399628 11.2356 0.251695 11.4561 0.151052 11.699C0.050408 11.942 -0.000938579 12.2025 -2.69193e-06 12.4654V24.4654C-2.69193e-06 24.7306 0.105354 24.985 0.292891 25.1725C0.480427 25.3601 0.734781 25.4654 0.999997 25.4654H9C9.26521 25.4654 9.51957 25.3601 9.7071 25.1725C9.89464 24.985 10 24.7306 10 24.4654V17.4654H14V24.4654C14 24.7306 14.1054 24.985 14.2929 25.1725C14.4804 25.3601 14.7348 25.4654 15 25.4654H23C23.2652 25.4654 23.5196 25.3601 23.7071 25.1725C23.8946 24.985 24 24.7306 24 24.4654V12.4654C24.0009 12.2025 23.9496 11.942 23.8489 11.699C23.7483 11.4561 23.6004 11.2356 23.4137 11.0504ZM22 23.4654H16V16.4654C16 16.2002 15.8946 15.9458 15.7071 15.7583C15.5196 15.5708 15.2652 15.4654 15 15.4654H9C8.73478 15.4654 8.48043 15.5708 8.29289 15.7583C8.10535 15.9458 8 16.2002 8 16.4654V23.4654H2V12.4654L12 2.46541L22 12.4654V23.4654Z" fill="#692727"/>
</svg>
