<svg width="20" height="32" viewBox="0 0 20 32" fill="none" xmlns="http://www.w3.org/2000/svg">
<path d="M7 11.4653V23.4653C7 23.7305 6.89464 23.9849 6.70711 24.1724C6.51957 24.36 6.26522 24.4653 6 24.4653C5.73478 24.4653 5.48043 24.36 5.29289 24.1724C5.10536 23.9849 5 23.7305 5 23.4653V11.4653C5 11.2001 5.10536 10.9458 5.29289 10.7582C5.48043 10.5707 5.73478 10.4653 6 10.4653C6.26522 10.4653 6.51957 10.5707 6.70711 10.7582C6.89464 10.9458 7 11.2001 7 11.4653ZM10 10.4653C9.73478 10.4653 9.48043 10.5707 9.29289 10.7582C9.10536 10.9458 9 11.2001 9 11.4653V23.4653C9 23.7305 9.10536 23.9849 9.29289 24.1724C9.48043 24.36 9.73478 24.4653 10 24.4653C10.2652 24.4653 10.5196 24.36 10.7071 24.1724C10.8946 23.9849 11 23.7305 11 23.4653V11.4653C11 11.2001 10.8946 10.9458 10.7071 10.7582C10.5196 10.5707 10.2652 10.4653 10 10.4653ZM14 10.4653C13.7348 10.4653 13.4804 10.5707 13.2929 10.7582C13.1054 10.9458 13 11.2001 13 11.4653V23.4653C13 23.7305 13.1054 23.9849 13.2929 24.1724C13.4804 24.36 13.7348 24.4653 14 24.4653C14.2652 24.4653 14.5196 24.36 14.7071 24.1724C14.8946 23.9849 15 23.7305 15 23.4653V11.4653C15 11.2001 14.8946 10.9458 14.7071 10.7582C14.5196 10.5707 14.2652 10.4653 14 10.4653ZM20 8.46533V26.4653C20 26.9958 19.7893 27.5045 19.4142 27.8795C19.0391 28.2546 18.5304 28.4653 18 28.4653H16V30.4653C16 30.7305 15.8946 30.9849 15.7071 31.1724C15.5196 31.36 15.2652 31.4653 15 31.4653C14.7348 31.4653 14.4804 31.36 14.2929 31.1724C14.1054 30.9849 14 30.7305 14 30.4653V28.4653H6V30.4653C6 30.7305 5.89464 30.9849 5.70711 31.1724C5.51957 31.36 5.26522 31.4653 5 31.4653C4.73478 31.4653 4.48043 31.36 4.29289 31.1724C4.10536 30.9849 4 30.7305 4 30.4653V28.4653H2C1.46957 28.4653 0.960859 28.2546 0.585786 27.8795C0.210714 27.5045 0 26.9958 0 26.4653V8.46533C0 7.9349 0.210714 7.42619 0.585786 7.05112C0.960859 6.67605 1.46957 6.46533 2 6.46533H5V3.46533C5 2.66968 5.31607 1.90662 5.87868 1.34401C6.44129 0.781403 7.20435 0.465332 8 0.465332L12 0.465332C12.7956 0.465332 13.5587 0.781403 14.1213 1.34401C14.6839 1.90662 15 2.66968 15 3.46533V6.46533H18C18.5304 6.46533 19.0391 6.67605 19.4142 7.05112C19.7893 7.42619 20 7.9349 20 8.46533ZM7 6.46533H13V3.46533C13 3.20012 12.8946 2.94576 12.7071 2.75823C12.5196 2.57069 12.2652 2.46533 12 2.46533H8C7.73478 2.46533 7.48043 2.57069 7.29289 2.75823C7.10536 2.94576 7 3.20012 7 3.46533V6.46533ZM18 26.4653V8.46533H2V26.4653H18Z" fill="#692727"/>
</svg>
