<svg width="26" height="23" viewBox="0 0 26 23" fill="none" xmlns="http://www.w3.org/2000/svg">
<path d="M22 15C21.1132 15.0008 20.2517 15.2958 19.5505 15.8387C18.8493 16.3815 18.3479 17.1417 18.125 18H6C4.93913 18 3.92172 17.5786 3.17157 16.8284C2.42143 16.0783 2 15.0609 2 14C2 12.9391 2.42143 11.9217 3.17157 11.1716C3.92172 10.4214 4.93913 10 6 10H18C19.3261 10 20.5979 9.47322 21.5355 8.53553C22.4732 7.59785 23 6.32608 23 5C23 3.67392 22.4732 2.40215 21.5355 1.46447C20.5979 0.526784 19.3261 0 18 0H6C5.73478 0 5.48043 0.105357 5.29289 0.292893C5.10536 0.48043 5 0.734784 5 1C5 1.26522 5.10536 1.51957 5.29289 1.70711C5.48043 1.89464 5.73478 2 6 2H18C18.7956 2 19.5587 2.31607 20.1213 2.87868C20.6839 3.44129 21 4.20435 21 5C21 5.79565 20.6839 6.55871 20.1213 7.12132C19.5587 7.68393 18.7956 8 18 8H6C4.4087 8 2.88258 8.63214 1.75736 9.75736C0.632141 10.8826 0 12.4087 0 14C0 15.5913 0.632141 17.1174 1.75736 18.2426C2.88258 19.3679 4.4087 20 6 20H18.125C18.312 20.7243 18.6984 21.3816 19.2402 21.8974C19.7821 22.4131 20.4577 22.7666 21.1903 22.9176C21.923 23.0687 22.6833 23.0112 23.3849 22.7519C24.0866 22.4925 24.7014 22.0416 25.1596 21.4503C25.6179 20.859 25.9011 20.1511 25.9772 19.4069C26.0533 18.6628 25.9192 17.9122 25.5902 17.2404C25.2611 16.5686 24.7502 16.0026 24.1156 15.6065C23.481 15.2105 22.748 15.0004 22 15ZM22 21C21.6044 21 21.2178 20.8827 20.8889 20.6629C20.56 20.4432 20.3036 20.1308 20.1522 19.7654C20.0009 19.3999 19.9613 18.9978 20.0384 18.6098C20.1156 18.2219 20.3061 17.8655 20.5858 17.5858C20.8655 17.3061 21.2219 17.1156 21.6098 17.0384C21.9978 16.9613 22.3999 17.0009 22.7654 17.1522C23.1308 17.3036 23.4432 17.56 23.6629 17.8889C23.8827 18.2178 24 18.6044 24 19C24 19.5304 23.7893 20.0391 23.4142 20.4142C23.0391 20.7893 22.5304 21 22 21Z" fill="#692727"/>
</svg>
