<svg width="23" height="18" viewBox="0 0 23 18" fill="none" xmlns="http://www.w3.org/2000/svg">
<path d="M22 6.75H20.9875L18.3831 0.890625C18.2653 0.625525 18.0731 0.400293 17.8298 0.242217C17.5865 0.0841403 17.3026 3.47268e-06 17.0125 0H5.9875C5.69738 3.47268e-06 5.41349 0.0841403 5.17022 0.242217C4.92695 0.400293 4.73474 0.625525 4.61688 0.890625L2.0125 6.75H1C0.801088 6.75 0.610322 6.82902 0.46967 6.96967C0.329018 7.11032 0.25 7.30109 0.25 7.5C0.25 7.69891 0.329018 7.88968 0.46967 8.03033C0.610322 8.17098 0.801088 8.25 1 8.25H1.75V15.75C1.75 16.1478 1.90804 16.5294 2.18934 16.8107C2.47064 17.092 2.85218 17.25 3.25 17.25H5.5C5.89782 17.25 6.27936 17.092 6.56066 16.8107C6.84196 16.5294 7 16.1478 7 15.75V14.25H16V15.75C16 16.1478 16.158 16.5294 16.4393 16.8107C16.7206 17.092 17.1022 17.25 17.5 17.25H19.75C20.1478 17.25 20.5294 17.092 20.8107 16.8107C21.092 16.5294 21.25 16.1478 21.25 15.75V8.25H22C22.1989 8.25 22.3897 8.17098 22.5303 8.03033C22.671 7.88968 22.75 7.69891 22.75 7.5C22.75 7.30109 22.671 7.11032 22.5303 6.96967C22.3897 6.82902 22.1989 6.75 22 6.75ZM5.9875 1.5H17.0125L19.3459 6.75H3.65406L5.9875 1.5ZM5.5 15.75H3.25V14.25H5.5V15.75ZM17.5 15.75V14.25H19.75V15.75H17.5ZM19.75 12.75H3.25V8.25H19.75V12.75ZM4.75 10.5C4.75 10.3011 4.82902 10.1103 4.96967 9.96967C5.11032 9.82902 5.30109 9.75 5.5 9.75H7C7.19891 9.75 7.38968 9.82902 7.53033 9.96967C7.67098 10.1103 7.75 10.3011 7.75 10.5C7.75 10.6989 7.67098 10.8897 7.53033 11.0303C7.38968 11.171 7.19891 11.25 7 11.25H5.5C5.30109 11.25 5.11032 11.171 4.96967 11.0303C4.82902 10.8897 4.75 10.6989 4.75 10.5ZM15.25 10.5C15.25 10.3011 15.329 10.1103 15.4697 9.96967C15.6103 9.82902 15.8011 9.75 16 9.75H17.5C17.6989 9.75 17.8897 9.82902 18.0303 9.96967C18.171 10.1103 18.25 10.3011 18.25 10.5C18.25 10.6989 18.171 10.8897 18.0303 11.0303C17.8897 11.171 17.6989 11.25 17.5 11.25H16C15.8011 11.25 15.6103 11.171 15.4697 11.0303C15.329 10.8897 15.25 10.6989 15.25 10.5Z" fill="black" fill-opacity="0.6"/>
</svg>
