<svg width="23" height="18" viewBox="0 0 23 18" fill="none" xmlns="http://www.w3.org/2000/svg">
<path d="M22 7.21545H20.9875L18.3831 1.35608C18.2653 1.09098 18.0731 0.865747 17.8298 0.707671C17.5865 0.549594 17.3026 0.465458 17.0125 0.465454H5.9875C5.69738 0.465458 5.41349 0.549594 5.17022 0.707671C4.92695 0.865747 4.73474 1.09098 4.61688 1.35608L2.0125 7.21545H1C0.801088 7.21545 0.610322 7.29447 0.46967 7.43512C0.329018 7.57578 0.25 7.76654 0.25 7.96545C0.25 8.16437 0.329018 8.35513 0.46967 8.49578C0.610322 8.63644 0.801088 8.71545 1 8.71545H1.75V16.2155C1.75 16.6133 1.90804 16.9948 2.18934 17.2761C2.47064 17.5574 2.85218 17.7155 3.25 17.7155H5.5C5.89782 17.7155 6.27936 17.5574 6.56066 17.2761C6.84196 16.9948 7 16.6133 7 16.2155V14.7155H16V16.2155C16 16.6133 16.158 16.9948 16.4393 17.2761C16.7206 17.5574 17.1022 17.7155 17.5 17.7155H19.75C20.1478 17.7155 20.5294 17.5574 20.8107 17.2761C21.092 16.9948 21.25 16.6133 21.25 16.2155V8.71545H22C22.1989 8.71545 22.3897 8.63644 22.5303 8.49578C22.671 8.35513 22.75 8.16437 22.75 7.96545C22.75 7.76654 22.671 7.57578 22.5303 7.43512C22.3897 7.29447 22.1989 7.21545 22 7.21545ZM5.9875 1.96545H17.0125L19.3459 7.21545H3.65406L5.9875 1.96545ZM5.5 16.2155H3.25V14.7155H5.5V16.2155ZM17.5 16.2155V14.7155H19.75V16.2155H17.5ZM19.75 13.2155H3.25V8.71545H19.75V13.2155ZM4.75 10.9655C4.75 10.7665 4.82902 10.5758 4.96967 10.4351C5.11032 10.2945 5.30109 10.2155 5.5 10.2155H7C7.19891 10.2155 7.38968 10.2945 7.53033 10.4351C7.67098 10.5758 7.75 10.7665 7.75 10.9655C7.75 11.1644 7.67098 11.3551 7.53033 11.4958C7.38968 11.6364 7.19891 11.7155 7 11.7155H5.5C5.30109 11.7155 5.11032 11.6364 4.96967 11.4958C4.82902 11.3551 4.75 11.1644 4.75 10.9655ZM15.25 10.9655C15.25 10.7665 15.329 10.5758 15.4697 10.4351C15.6103 10.2945 15.8011 10.2155 16 10.2155H17.5C17.6989 10.2155 17.8897 10.2945 18.0303 10.4351C18.171 10.5758 18.25 10.7665 18.25 10.9655C18.25 11.1644 18.171 11.3551 18.0303 11.4958C17.8897 11.6364 17.6989 11.7155 17.5 11.7155H16C15.8011 11.7155 15.6103 11.6364 15.4697 11.4958C15.329 11.3551 15.25 11.1644 15.25 10.9655Z" fill="black" fill-opacity="0.6"/>
</svg>
