<svg width="26" height="26" viewBox="0 0 26 26" fill="none" xmlns="http://www.w3.org/2000/svg">
<path d="M14.6575 16.9075C15.3862 18.7275 16.4375 19 17 19C17.5625 19 18.6138 18.7275 19.3425 16.9075C19.7663 15.8475 20 14.46 20 13C20 11.54 19.7663 10.1525 19.3425 9.0925C18.6138 7.2725 17.5625 7 17 7C16.4375 7 15.3862 7.2725 14.6575 9.0925C14.2337 10.1525 14 11.54 14 13C14 14.46 14.2337 15.8475 14.6575 16.9075ZM17 9.025C17.3275 9.2825 18 10.65 18 13C18 15.35 17.3275 16.7175 17 16.975C16.6725 16.7175 16 15.35 16 13C16 10.65 16.6725 9.2825 17 9.025ZM25 24H20.5513C22.64 21.7162 24 17.6838 24 13C24 5.71 20.7062 0 16.5 0H7.5C3.29375 0 0 5.71 0 13C0 20.29 3.29375 26 7.5 26H25C25.2652 26 25.5196 25.8946 25.7071 25.7071C25.8946 25.5196 26 25.2652 26 25C26 24.7348 25.8946 24.4804 25.7071 24.2929C25.5196 24.1054 25.2652 24 25 24ZM20.2175 4.99125C21.3663 7.11375 22 9.95875 22 13C22 16.0413 21.3663 18.8863 20.2175 21.0088C19.1725 22.9375 17.8525 24 16.5 24C15.1475 24 13.8275 22.9375 12.7825 21.0088C11.6337 18.8863 11 16.0413 11 13C11 9.95875 11.6337 7.11375 12.7825 4.99125C13.8275 3.0625 15.1475 2 16.5 2C17.8525 2 19.1725 3.0625 20.2175 4.99125ZM2 13C2 12.6875 2.00875 12.375 2.02125 12.07L6 9.22875L9.05375 11.41C9.01875 11.93 9 12.4613 9 13C8.99684 14.4048 9.12531 15.8067 9.38375 17.1875L6.58125 15.1875C6.41165 15.0664 6.20843 15.0012 6 15.0012C5.79157 15.0012 5.58835 15.0664 5.41875 15.1875L2.45125 17.3125C2.14596 15.8954 1.99467 14.4496 2 13ZM3.7825 4.99125C4.8275 3.0625 6.1475 2 7.5 2H12.4487C10.9612 3.625 9.84375 6.14 9.32375 9.145L6.58125 7.18625C6.41165 7.0651 6.20843 6.99998 6 6.99998C5.79157 6.99998 5.58835 7.0651 5.41875 7.18625L2.31125 9.40625C2.60625 7.75 3.10375 6.25 3.7825 4.99125ZM3.7825 21.0088C3.49484 20.4725 3.24668 19.9161 3.04 19.3438L6 17.2288L10.2425 20.2588C10.8175 21.7588 11.5675 23.0362 12.4487 24H7.5C6.1475 24 4.8275 22.9375 3.7825 21.0088Z" fill="#692727"/>
</svg>
