<svg width="449" height="68" viewBox="0 0 449 68" fill="none" xmlns="http://www.w3.org/2000/svg">
<rect y="18" width="449" height="50" rx="18" fill="#E3322D"/>
<path d="M18.056 49.192C16.5627 49.192 15.4533 48.6907 14.728 47.688C14.0133 46.6747 13.656 45.2507 13.656 43.416C13.656 41.5813 14.0133 40.1627 14.728 39.16C15.4533 38.1467 16.5627 37.64 18.056 37.64C18.632 37.64 19.1387 37.72 19.576 37.88C20.024 38.0293 20.408 38.2427 20.728 38.52C21.048 38.7973 21.3093 39.1333 21.512 39.528C21.7253 39.9227 21.8907 40.3653 22.008 40.856L19.768 41.4C19.704 41.1333 19.6293 40.888 19.544 40.664C19.4587 40.44 19.3467 40.248 19.208 40.088C19.08 39.928 18.9147 39.8053 18.712 39.72C18.52 39.624 18.2853 39.576 18.008 39.576C17.3573 39.576 16.8933 39.832 16.616 40.344C16.3493 40.8453 16.216 41.544 16.216 42.44V44.392C16.216 45.288 16.3493 45.992 16.616 46.504C16.8933 47.0053 17.3573 47.256 18.008 47.256C18.5627 47.256 18.9627 47.0853 19.208 46.744C19.464 46.4027 19.6507 45.9653 19.768 45.432L22.008 45.976C21.8907 46.4667 21.7253 46.9093 21.512 47.304C21.3093 47.6987 21.048 48.04 20.728 48.328C20.408 48.6053 20.024 48.8187 19.576 48.968C19.1387 49.1173 18.632 49.192 18.056 49.192ZM27.3938 49.192C25.9004 49.192 24.7964 48.6853 24.0818 47.672C23.3778 46.6587 23.0258 45.24 23.0258 43.416C23.0258 41.592 23.3778 40.1733 24.0818 39.16C24.7964 38.1467 25.9004 37.64 27.3938 37.64C28.8871 37.64 29.9858 38.1467 30.6898 39.16C31.4044 40.1733 31.7618 41.592 31.7618 43.416C31.7618 45.24 31.4044 46.6587 30.6898 47.672C29.9858 48.6853 28.8871 49.192 27.3938 49.192ZM27.3938 47.256C28.0764 47.256 28.5458 47.0053 28.8018 46.504C29.0684 45.992 29.2018 45.2827 29.2018 44.376V42.44C29.2018 41.544 29.0684 40.8453 28.8018 40.344C28.5458 39.832 28.0764 39.576 27.3938 39.576C26.7111 39.576 26.2364 39.832 25.9698 40.344C25.7138 40.8453 25.5858 41.544 25.5858 42.44V44.392C25.5858 45.288 25.7138 45.992 25.9698 46.504C26.2364 47.0053 26.7111 47.256 27.3938 47.256ZM35.3875 41.576H35.2115V49H33.1635V37.832H36.0435L38.5875 45.256H38.7635V37.832H40.8115V49H37.9315L35.3875 41.576ZM52.607 37.832H56.527C57.6257 37.832 58.463 38.0987 59.039 38.632C59.6257 39.1653 59.919 39.8907 59.919 40.808C59.919 41.448 59.759 41.96 59.439 42.344C59.1297 42.7173 58.6817 42.9893 58.095 43.16V43.256C58.7883 43.4267 59.3217 43.7253 59.695 44.152C60.079 44.5787 60.271 45.1707 60.271 45.928C60.271 46.8667 59.9723 47.6133 59.375 48.168C58.7883 48.7227 57.9617 49 56.895 49H52.607V37.832ZM56.159 47.32C56.735 47.32 57.1563 47.224 57.423 47.032C57.6897 46.84 57.823 46.488 57.823 45.976V45.512C57.823 45 57.6897 44.648 57.423 44.456C57.1563 44.264 56.735 44.168 56.159 44.168H54.943V47.32H56.159ZM55.855 42.568C56.4203 42.568 56.831 42.4773 57.087 42.296C57.343 42.104 57.471 41.7627 57.471 41.272V40.792C57.471 40.3013 57.343 39.9653 57.087 39.784C56.831 39.6027 56.4203 39.512 55.855 39.512H54.943V42.568H55.855ZM62.2488 49V37.832H69.3848V39.8H64.6488V42.36H69.2248V44.328H64.6488V47.032H69.3848V49H62.2488ZM73.7625 41.576H73.5865V49H71.5385V37.832H74.4185L76.9625 45.256H77.1385V37.832H79.1865V49H76.3065L73.7625 41.576ZM81.4363 49V37.832H88.5723V39.8H83.8363V42.36H88.4123V44.328H83.8363V47.032H88.5723V49H81.4363ZM91.03 49V37.832H98.438V39.8H93.43V42.36H97.91V44.328H93.43V49H91.03ZM100.544 49V47.224H102.944V39.608H100.544V37.832H107.744V39.608H105.344V47.224H107.744V49H100.544ZM113.994 49.192C112.5 49.192 111.391 48.6907 110.666 47.688C109.951 46.6747 109.594 45.2507 109.594 43.416C109.594 41.5813 109.951 40.1627 110.666 39.16C111.391 38.1467 112.5 37.64 113.994 37.64C114.57 37.64 115.076 37.72 115.514 37.88C115.962 38.0293 116.346 38.2427 116.666 38.52C116.986 38.7973 117.247 39.1333 117.45 39.528C117.663 39.9227 117.828 40.3653 117.946 40.856L115.706 41.4C115.642 41.1333 115.567 40.888 115.482 40.664C115.396 40.44 115.284 40.248 115.146 40.088C115.018 39.928 114.852 39.8053 114.65 39.72C114.458 39.624 114.223 39.576 113.946 39.576C113.295 39.576 112.831 39.832 112.554 40.344C112.287 40.8453 112.154 41.544 112.154 42.44V44.392C112.154 45.288 112.287 45.992 112.554 46.504C112.831 47.0053 113.295 47.256 113.946 47.256C114.5 47.256 114.9 47.0853 115.146 46.744C115.402 46.4027 115.588 45.9653 115.706 45.432L117.946 45.976C117.828 46.4667 117.663 46.9093 117.45 47.304C117.247 47.6987 116.986 48.04 116.666 48.328C116.346 48.6053 115.962 48.8187 115.514 48.968C115.076 49.1173 114.57 49.192 113.994 49.192ZM119.731 49V47.224H122.131V39.608H119.731V37.832H126.931V39.608H124.531V47.224H126.931V49H119.731ZM132.925 49.192C131.432 49.192 130.328 48.6853 129.613 47.672C128.909 46.6587 128.557 45.24 128.557 43.416C128.557 41.592 128.909 40.1733 129.613 39.16C130.328 38.1467 131.432 37.64 132.925 37.64C134.418 37.64 135.517 38.1467 136.221 39.16C136.936 40.1733 137.293 41.592 137.293 43.416C137.293 45.24 136.936 46.6587 136.221 47.672C135.517 48.6853 134.418 49.192 132.925 49.192ZM132.925 47.256C133.608 47.256 134.077 47.0053 134.333 46.504C134.6 45.992 134.733 45.2827 134.733 44.376V42.44C134.733 41.544 134.6 40.8453 134.333 40.344C134.077 39.832 133.608 39.576 132.925 39.576C132.242 39.576 131.768 39.832 131.501 40.344C131.245 40.8453 131.117 41.544 131.117 42.44V44.392C131.117 45.288 131.245 45.992 131.501 46.504C131.768 47.0053 132.242 47.256 132.925 47.256ZM142.343 49.192C141.404 49.192 140.588 49.0373 139.895 48.728C139.201 48.4187 138.641 47.9973 138.215 47.464L139.607 45.928C140.012 46.376 140.455 46.7067 140.935 46.92C141.425 47.1333 141.921 47.24 142.423 47.24C142.999 47.24 143.436 47.112 143.735 46.856C144.033 46.6 144.183 46.232 144.183 45.752C144.183 45.3573 144.065 45.0587 143.831 44.856C143.607 44.6533 143.223 44.5093 142.679 44.424L141.511 44.232C140.508 44.0613 139.783 43.6933 139.335 43.128C138.887 42.552 138.663 41.8533 138.663 41.032C138.663 39.9547 139.015 39.1227 139.719 38.536C140.423 37.9387 141.409 37.64 142.679 37.64C143.543 37.64 144.295 37.7733 144.935 38.04C145.575 38.3067 146.092 38.6693 146.487 39.128L145.127 40.648C144.828 40.3173 144.476 40.0613 144.071 39.88C143.665 39.688 143.207 39.592 142.695 39.592C141.617 39.592 141.079 40.0347 141.079 40.92C141.079 41.304 141.196 41.592 141.431 41.784C141.676 41.976 142.071 42.12 142.615 42.216L143.783 42.424C144.689 42.584 145.388 42.9253 145.879 43.448C146.369 43.9707 146.615 44.6747 146.615 45.56C146.615 46.0827 146.524 46.568 146.343 47.016C146.161 47.4533 145.889 47.8373 145.527 48.168C145.164 48.488 144.716 48.7387 144.183 48.92C143.66 49.1013 143.047 49.192 142.343 49.192ZM158.186 49V37.832H165.322V39.8H160.586V42.36H165.162V44.328H160.586V47.032H165.322V49H158.186ZM175.956 49H173.22L172.068 46.776L171.284 45.016H171.14L170.34 46.776L169.156 49H166.644L169.78 43.224L166.852 37.832H169.588L170.5 39.608L171.316 41.4H171.444L172.276 39.608L173.236 37.832H175.748L172.82 43.256L175.956 49ZM181.15 49.192C179.656 49.192 178.547 48.6907 177.822 47.688C177.107 46.6747 176.75 45.2507 176.75 43.416C176.75 41.5813 177.107 40.1627 177.822 39.16C178.547 38.1467 179.656 37.64 181.15 37.64C181.726 37.64 182.232 37.72 182.67 37.88C183.118 38.0293 183.502 38.2427 183.822 38.52C184.142 38.7973 184.403 39.1333 184.606 39.528C184.819 39.9227 184.984 40.3653 185.102 40.856L182.862 41.4C182.798 41.1333 182.723 40.888 182.638 40.664C182.552 40.44 182.44 40.248 182.302 40.088C182.174 39.928 182.008 39.8053 181.806 39.72C181.614 39.624 181.379 39.576 181.102 39.576C180.451 39.576 179.987 39.832 179.71 40.344C179.443 40.8453 179.31 41.544 179.31 42.44V44.392C179.31 45.288 179.443 45.992 179.71 46.504C179.987 47.0053 180.451 47.256 181.102 47.256C181.656 47.256 182.056 47.0853 182.302 46.744C182.558 46.4027 182.744 45.9653 182.862 45.432L185.102 45.976C184.984 46.4667 184.819 46.9093 184.606 47.304C184.403 47.6987 184.142 48.04 183.822 48.328C183.502 48.6053 183.118 48.8187 182.67 48.968C182.232 49.1173 181.726 49.192 181.15 49.192ZM187.16 49V37.832H189.576V47.032H194.376V49H187.16ZM198.561 37.832V44.904C198.561 45.256 198.572 45.5813 198.593 45.88C198.625 46.168 198.689 46.4133 198.785 46.616C198.892 46.8187 199.047 46.9787 199.249 47.096C199.452 47.2027 199.729 47.256 200.081 47.256C200.433 47.256 200.711 47.2027 200.913 47.096C201.116 46.9787 201.265 46.8187 201.361 46.616C201.468 46.4133 201.532 46.168 201.553 45.88C201.585 45.5813 201.601 45.256 201.601 44.904V37.832H204.001V44.584C204.001 45.352 203.948 46.024 203.841 46.6C203.745 47.176 203.553 47.656 203.265 48.04C202.977 48.424 202.577 48.712 202.065 48.904C201.553 49.096 200.892 49.192 200.081 49.192C199.271 49.192 198.609 49.096 198.097 48.904C197.585 48.712 197.185 48.424 196.897 48.04C196.609 47.656 196.412 47.176 196.305 46.6C196.209 46.024 196.161 45.352 196.161 44.584V37.832H198.561ZM209.499 49.192C208.56 49.192 207.744 49.0373 207.051 48.728C206.358 48.4187 205.798 47.9973 205.371 47.464L206.763 45.928C207.168 46.376 207.611 46.7067 208.091 46.92C208.582 47.1333 209.078 47.24 209.579 47.24C210.155 47.24 210.592 47.112 210.891 46.856C211.19 46.6 211.339 46.232 211.339 45.752C211.339 45.3573 211.222 45.0587 210.987 44.856C210.763 44.6533 210.379 44.5093 209.835 44.424L208.667 44.232C207.664 44.0613 206.939 43.6933 206.491 43.128C206.043 42.552 205.819 41.8533 205.819 41.032C205.819 39.9547 206.171 39.1227 206.875 38.536C207.579 37.9387 208.566 37.64 209.835 37.64C210.699 37.64 211.451 37.7733 212.091 38.04C212.731 38.3067 213.248 38.6693 213.643 39.128L212.283 40.648C211.984 40.3173 211.632 40.0613 211.227 39.88C210.822 39.688 210.363 39.592 209.851 39.592C208.774 39.592 208.235 40.0347 208.235 40.92C208.235 41.304 208.352 41.592 208.587 41.784C208.832 41.976 209.227 42.12 209.771 42.216L210.939 42.424C211.846 42.584 212.544 42.9253 213.035 43.448C213.526 43.9707 213.771 44.6747 213.771 45.56C213.771 46.0827 213.68 46.568 213.499 47.016C213.318 47.4533 213.046 47.8373 212.683 48.168C212.32 48.488 211.872 48.7387 211.339 48.92C210.816 49.1013 210.203 49.192 209.499 49.192ZM215.669 49V47.224H218.069V39.608H215.669V37.832H222.869V39.608H220.469V47.224H222.869V49H215.669ZM227.167 49L224.207 37.832H226.879L228.191 43.512L228.847 46.728H228.975L229.647 43.512L230.975 37.832H233.519L230.559 49H227.167ZM238.456 49.192C236.963 49.192 235.859 48.6853 235.144 47.672C234.44 46.6587 234.088 45.24 234.088 43.416C234.088 41.592 234.44 40.1733 235.144 39.16C235.859 38.1467 236.963 37.64 238.456 37.64C239.95 37.64 241.048 38.1467 241.752 39.16C242.467 40.1733 242.824 41.592 242.824 43.416C242.824 45.24 242.467 46.6587 241.752 47.672C241.048 48.6853 239.95 49.192 238.456 49.192ZM238.456 47.256C239.139 47.256 239.608 47.0053 239.864 46.504C240.131 45.992 240.264 45.2827 240.264 44.376V42.44C240.264 41.544 240.131 40.8453 239.864 40.344C239.608 39.832 239.139 39.576 238.456 39.576C237.774 39.576 237.299 39.832 237.032 40.344C236.776 40.8453 236.648 41.544 236.648 42.44V44.392C236.648 45.288 236.776 45.992 237.032 46.504C237.299 47.0053 237.774 47.256 238.456 47.256ZM247.874 49.192C246.935 49.192 246.119 49.0373 245.426 48.728C244.733 48.4187 244.173 47.9973 243.746 47.464L245.138 45.928C245.543 46.376 245.986 46.7067 246.466 46.92C246.957 47.1333 247.453 47.24 247.954 47.24C248.53 47.24 248.967 47.112 249.266 46.856C249.565 46.6 249.714 46.232 249.714 45.752C249.714 45.3573 249.597 45.0587 249.362 44.856C249.138 44.6533 248.754 44.5093 248.21 44.424L247.042 44.232C246.039 44.0613 245.314 43.6933 244.866 43.128C244.418 42.552 244.194 41.8533 244.194 41.032C244.194 39.9547 244.546 39.1227 245.25 38.536C245.954 37.9387 246.941 37.64 248.21 37.64C249.074 37.64 249.826 37.7733 250.466 38.04C251.106 38.3067 251.623 38.6693 252.018 39.128L250.658 40.648C250.359 40.3173 250.007 40.0613 249.602 39.88C249.197 39.688 248.738 39.592 248.226 39.592C247.149 39.592 246.61 40.0347 246.61 40.92C246.61 41.304 246.727 41.592 246.962 41.784C247.207 41.976 247.602 42.12 248.146 42.216L249.314 42.424C250.221 42.584 250.919 42.9253 251.41 43.448C251.901 43.9707 252.146 44.6747 252.146 45.56C252.146 46.0827 252.055 46.568 251.874 47.016C251.693 47.4533 251.421 47.8373 251.058 48.168C250.695 48.488 250.247 48.7387 249.714 48.92C249.191 49.1013 248.578 49.192 247.874 49.192ZM263.718 49V37.832H270.854V39.8H266.118V42.36H270.694V44.328H266.118V47.032H270.854V49H263.718ZM275.231 41.576H275.055V49H273.007V37.832H275.887L278.431 45.256H278.607V37.832H280.655V49H277.775L275.231 41.576ZM296.275 49.192C294.781 49.192 293.672 48.6907 292.947 47.688C292.232 46.6747 291.875 45.2507 291.875 43.416C291.875 41.5813 292.232 40.1627 292.947 39.16C293.672 38.1467 294.781 37.64 296.275 37.64C296.851 37.64 297.357 37.72 297.795 37.88C298.243 38.0293 298.627 38.2427 298.947 38.52C299.267 38.7973 299.528 39.1333 299.731 39.528C299.944 39.9227 300.109 40.3653 300.227 40.856L297.987 41.4C297.923 41.1333 297.848 40.888 297.763 40.664C297.677 40.44 297.565 40.248 297.427 40.088C297.299 39.928 297.133 39.8053 296.931 39.72C296.739 39.624 296.504 39.576 296.227 39.576C295.576 39.576 295.112 39.832 294.835 40.344C294.568 40.8453 294.435 41.544 294.435 42.44V44.392C294.435 45.288 294.568 45.992 294.835 46.504C295.112 47.0053 295.576 47.256 296.227 47.256C296.781 47.256 297.181 47.0853 297.427 46.744C297.683 46.4027 297.869 45.9653 297.987 45.432L300.227 45.976C300.109 46.4667 299.944 46.9093 299.731 47.304C299.528 47.6987 299.267 48.04 298.947 48.328C298.627 48.6053 298.243 48.8187 297.795 48.968C297.357 49.1173 296.851 49.192 296.275 49.192ZM307.773 49L307.069 46.312H304.013L303.325 49H300.893L303.917 37.832H307.309L310.333 49H307.773ZM305.613 40.152H305.485L304.397 44.376H306.701L305.613 40.152ZM311.43 37.832H315.03C316.534 37.832 317.649 38.312 318.374 39.272C319.1 40.232 319.462 41.6133 319.462 43.416C319.462 45.2187 319.1 46.6 318.374 47.56C317.649 48.52 316.534 49 315.03 49H311.43V37.832ZM314.87 47.112C315.585 47.112 316.108 46.8827 316.438 46.424C316.769 45.9653 316.934 45.2987 316.934 44.424V42.392C316.934 41.528 316.769 40.8667 316.438 40.408C316.108 39.9493 315.585 39.72 314.87 39.72H313.798V47.112H314.87ZM326.96 49L326.256 46.312H323.2L322.512 49H320.08L323.104 37.832H326.496L329.52 49H326.96ZM324.8 40.152H324.672L323.584 44.376H325.888L324.8 40.152ZM343.668 44.344L342.676 45.736V49H340.276V37.832H342.676V42.504H342.804L344.02 40.648L345.988 37.832H348.676L345.332 42.552L348.836 49H346.132L343.668 44.344ZM349.981 49V47.224H352.381V39.608H349.981V37.832H357.181V39.608H354.781V47.224H357.181V49H349.981ZM359.847 49V37.832H362.263V47.032H367.063V49H359.847ZM372.769 49.192C371.275 49.192 370.171 48.6853 369.457 47.672C368.753 46.6587 368.401 45.24 368.401 43.416C368.401 41.592 368.753 40.1733 369.457 39.16C370.171 38.1467 371.275 37.64 372.769 37.64C374.262 37.64 375.361 38.1467 376.065 39.16C376.779 40.1733 377.137 41.592 377.137 43.416C377.137 45.24 376.779 46.6587 376.065 47.672C375.361 48.6853 374.262 49.192 372.769 49.192ZM372.769 47.256C373.451 47.256 373.921 47.0053 374.177 46.504C374.443 45.992 374.577 45.2827 374.577 44.376V42.44C374.577 41.544 374.443 40.8453 374.177 40.344C373.921 39.832 373.451 39.576 372.769 39.576C372.086 39.576 371.611 39.832 371.345 40.344C371.089 40.8453 370.961 41.544 370.961 42.44V44.392C370.961 45.288 371.089 45.992 371.345 46.504C371.611 47.0053 372.086 47.256 372.769 47.256ZM373.025 37.16L371.617 36.472L373.201 33.368L375.169 34.344L373.025 37.16ZM384.459 44.024L384.587 40.904H384.443L382.363 46.648L380.283 40.904H380.139L380.267 44.024V49H378.187V37.832H381.019L382.395 41.592H382.523L383.899 37.832H386.539V49H384.459V44.024ZM388.436 49V37.832H395.572V39.8H390.836V42.36H395.412V44.328H390.836V47.032H395.572V49H388.436ZM402.75 39.8V49H400.35V39.8H397.134V37.832H405.966V39.8H402.75ZM409.928 49H407.56V37.832H411.88C412.424 37.832 412.909 37.9173 413.336 38.088C413.762 38.248 414.12 38.4827 414.408 38.792C414.706 39.1013 414.93 39.4747 415.08 39.912C415.229 40.3493 415.304 40.84 415.304 41.384C415.304 42.1733 415.133 42.8507 414.792 43.416C414.45 43.9813 413.965 44.3547 413.336 44.536L415.528 49H412.904L411.032 44.856H409.928V49ZM411.304 43C411.869 43 412.258 42.8933 412.472 42.68C412.696 42.4667 412.808 42.1147 412.808 41.624V41.144C412.808 40.6533 412.696 40.3013 412.472 40.088C412.258 39.8747 411.869 39.768 411.304 39.768H409.928V43H411.304ZM420.738 49.192C419.244 49.192 418.14 48.6853 417.426 47.672C416.722 46.6587 416.37 45.24 416.37 43.416C416.37 41.592 416.722 40.1733 417.426 39.16C418.14 38.1467 419.244 37.64 420.738 37.64C422.231 37.64 423.33 38.1467 424.034 39.16C424.748 40.1733 425.106 41.592 425.106 43.416C425.106 45.24 424.748 46.6587 424.034 47.672C423.33 48.6853 422.231 49.192 420.738 49.192ZM420.738 47.256C421.42 47.256 421.89 47.0053 422.146 46.504C422.412 45.992 422.546 45.2827 422.546 44.376V42.44C422.546 41.544 422.412 40.8453 422.146 40.344C421.89 39.832 421.42 39.576 420.738 39.576C420.055 39.576 419.58 39.832 419.314 40.344C419.058 40.8453 418.93 41.544 418.93 42.44V44.392C418.93 45.288 419.058 45.992 419.314 46.504C419.58 47.0053 420.055 47.256 420.738 47.256ZM430.331 49.192C429.734 49.192 429.302 49.064 429.035 48.808C428.779 48.5413 428.651 48.2267 428.651 47.864V47.304C428.651 46.9413 428.779 46.632 429.035 46.376C429.302 46.1093 429.734 45.976 430.331 45.976C430.929 45.976 431.355 46.1093 431.611 46.376C431.878 46.632 432.011 46.9413 432.011 47.304V47.864C432.011 48.2267 431.878 48.5413 431.611 48.808C431.355 49.064 430.929 49.192 430.331 49.192Z" fill="white" fill-opacity="0.8"/>
<path d="M52.9772 19.5761L43.7738 1.90575C43.0265 0.470908 40.9735 0.470908 40.2262 1.90575L31.0228 19.5761C30.3294 20.9076 31.2954 22.5 32.7967 22.5L42 22.5L51.2033 22.5C52.7046 22.5 53.6706 20.9076 52.9772 19.5761Z" fill="#E3322D"/>
</svg>
