<svg width="20" height="26" viewBox="0 0 20 26" fill="none" xmlns="http://www.w3.org/2000/svg">
<path d="M15.5 5.5C15.5 4.41221 15.1774 3.34884 14.5731 2.44437C13.9687 1.5399 13.1097 0.834947 12.1048 0.418665C11.0998 0.00238308 9.99389 -0.106535 8.927 0.105683C7.8601 0.317902 6.8801 0.841726 6.11091 1.61092C5.34172 2.3801 4.8179 3.36011 4.60568 4.42701C4.39346 5.4939 4.50238 6.59977 4.91866 7.60476C5.33494 8.60976 6.03989 9.46874 6.94436 10.0731C7.84883 10.6774 8.9122 11 10 11C11.4582 10.9983 12.8562 10.4184 13.8873 9.38726C14.9183 8.35617 15.4983 6.95819 15.5 5.5ZM10 9C9.30776 9 8.63107 8.79473 8.0555 8.41015C7.47993 8.02556 7.03132 7.47894 6.76642 6.83939C6.50151 6.19985 6.4322 5.49612 6.56725 4.81719C6.7023 4.13825 7.03564 3.51461 7.52512 3.02513C8.01461 2.53565 8.63825 2.2023 9.31718 2.06725C9.99611 1.93221 10.6998 2.00152 11.3394 2.26642C11.9789 2.53133 12.5256 2.97993 12.9101 3.55551C13.2947 4.13108 13.5 4.80777 13.5 5.5C13.5 6.42826 13.1312 7.3185 12.4749 7.97488C11.8185 8.63125 10.9283 9 10 9ZM20 25C20 25.2652 19.8946 25.5196 19.7071 25.7071C19.5196 25.8946 19.2652 26 19 26H0.999996C0.79689 26 0.598612 25.9381 0.43154 25.8226C0.264469 25.7071 0.136527 25.5435 0.0647358 25.3535C-0.00705491 25.1635 -0.0192903 24.9561 0.0296578 24.759C0.0786058 24.5619 0.186417 24.3843 0.338746 24.25L12.5975 13.4325C11.4948 13.0532 10.3226 12.9196 9.16286 13.041C8.00313 13.1623 6.88394 13.5357 5.88368 14.135C4.88342 14.7344 4.02627 15.5451 3.37225 16.5105C2.71823 17.4759 2.28316 18.5726 2.0975 19.7238C2.04499 19.9756 1.89744 20.1975 1.68552 20.3434C1.4736 20.4893 1.21362 20.5478 0.959627 20.507C0.705631 20.4661 0.477163 20.3289 0.321721 20.1239C0.166278 19.9189 0.0958203 19.6619 0.124996 19.4063C0.371923 17.8755 0.971427 16.4231 1.87614 15.1639C2.78086 13.9047 3.96601 12.8731 5.33794 12.1506C6.70988 11.4282 8.23103 11.0346 9.7812 11.0011C11.3314 10.9676 12.8681 11.295 14.27 11.9575L17.3387 9.25C17.5383 9.07954 17.797 8.99439 18.0588 9.01292C18.3206 9.03146 18.5647 9.15221 18.7383 9.34909C18.9119 9.54598 19.0011 9.80323 18.9867 10.0653C18.9723 10.3274 18.8554 10.5733 18.6612 10.75L3.645 24H19C19.2652 24 19.5196 24.1054 19.7071 24.2929C19.8946 24.4804 20 24.7348 20 25ZM18.2162 15.2975C19.381 16.9707 20.0037 18.9613 20 21C20 21.2652 19.8946 21.5196 19.7071 21.7071C19.5196 21.8946 19.2652 22 19 22C18.7348 22 18.4804 21.8946 18.2929 21.7071C18.1054 21.5196 18 21.2652 18 21C18.0031 19.3694 17.5052 17.7772 16.5737 16.4388C16.4224 16.2209 16.3638 15.9519 16.4108 15.6909C16.4578 15.4299 16.6066 15.1982 16.8244 15.0469C17.0422 14.8955 17.3112 14.8369 17.5722 14.8839C17.8332 14.9309 18.0649 15.0797 18.2162 15.2975Z" fill="#692727"/>
</svg>
