<svg width="90" height="90" viewBox="0 0 90 90" fill="none" xmlns="http://www.w3.org/2000/svg">
<rect width="90" height="90" rx="20" fill="#FEC526"/>
<path fill-rule="evenodd" clip-rule="evenodd" d="M20.4521 49.227C22.116 46.9381 25.5363 42.1684 27.0295 40.0988C27.1733 39.8999 27.466 39.8958 27.615 40.0904C29.1102 42.0477 32.7162 46.7898 32.7162 46.7898C32.7162 46.7898 32.2673 42.3923 33.6141 39.7354L30.6463 35.3166C30.1379 34.5597 29.3906 33.9892 28.5185 33.7352C27.5363 33.4489 26.2144 33.491 24.7279 34.6774C24.4119 34.9293 24.1336 35.2265 23.8941 35.5529C22.3906 37.6007 15.5417 46.9298 14.2197 48.7137C11.4366 52.4699 15.3871 55.5848 16.7339 55.5848H29.3042V49.8131H20.7469C20.4474 49.8131 20.2747 49.4706 20.4516 49.2275L20.4521 49.227Z" fill="#EA0A2A"/>
<path fill-rule="evenodd" clip-rule="evenodd" d="M69.493 49.8121H60.9099V55.4006H72.7623C72.7623 55.4006 75.366 55.2174 76.3538 52.927C77.3412 50.6366 76.2638 48.8965 75.5454 47.8887C74.9284 47.0225 68.4074 38.239 66.5873 35.7872C65.9812 34.9705 65.1459 34.3479 64.1828 34.033C62.8189 33.5874 60.9347 33.6546 59.2041 36.0709C55.7921 40.8344 51.5722 46.3307 49.9559 48.6211C48.3396 50.9115 42.9523 53.3851 39.6303 47.6133C38.0466 44.8623 39.1813 39.0937 44.3891 38.6356C48.6841 38.2577 51.1232 41.8421 51.1232 41.8421L53.9069 37.6284C53.9069 37.6284 51.3922 33.3225 44.7481 33.5057C38.104 33.6889 34.0635 38.178 33.6141 44.1325C33.1651 50.0875 37.924 56.5 43.8502 56.5C49.4718 56.5 52.1845 54.4392 54.0584 52.2722C54.2317 52.0718 54.3956 51.8641 54.5508 51.6486L62.5479 40.5548C62.6912 40.356 62.9844 40.3513 63.1339 40.546L69.7827 49.2182C69.9683 49.4602 69.7966 49.8116 69.493 49.8116V49.8121Z" fill="#EA0A2A"/>
</svg>
