<svg width="26" height="23" viewBox="0 0 26 23" fill="none" xmlns="http://www.w3.org/2000/svg">
<path d="M24 0H2C1.46957 0 0.960859 0.210714 0.585787 0.585786C0.210714 0.960859 2.56534e-07 1.46957 2.56534e-07 2V22C-0.000121887 22.1705 0.0433749 22.3383 0.126356 22.4873C0.209337 22.6363 0.329045 22.7616 0.474101 22.8513C0.619157 22.941 0.78474 22.9921 0.955113 22.9997C1.12549 23.0074 1.29499 22.9713 1.4475 22.895L5 21.1175L8.5525 22.895C8.69143 22.9645 8.84465 23.0007 9 23.0007C9.15535 23.0007 9.30857 22.9645 9.4475 22.895L13 21.1175L16.5525 22.895C16.6914 22.9645 16.8446 23.0007 17 23.0007C17.1554 23.0007 17.3086 22.9645 17.4475 22.895L21 21.1175L24.5525 22.895C24.705 22.9713 24.8745 23.0074 25.0449 22.9997C25.2153 22.9921 25.3808 22.941 25.5259 22.8513C25.671 22.7616 25.7907 22.6363 25.8736 22.4873C25.9566 22.3383 26.0001 22.1705 26 22V2C26 1.46957 25.7893 0.960859 25.4142 0.585786C25.0391 0.210714 24.5304 0 24 0ZM24 20.3825L21.4475 19.105C21.3086 19.0355 21.1554 18.9993 21 18.9993C20.8446 18.9993 20.6914 19.0355 20.5525 19.105L17 20.8825L13.4475 19.105C13.3086 19.0355 13.1554 18.9993 13 18.9993C12.8446 18.9993 12.6914 19.0355 12.5525 19.105L9 20.8825L5.4475 19.105C5.30857 19.0355 5.15535 18.9993 5 18.9993C4.84465 18.9993 4.69143 19.0355 4.5525 19.105L2 20.3825V2H24V20.3825ZM4.5525 15.895C4.67002 15.9539 4.79798 15.989 4.92908 15.9983C5.06017 16.0077 5.19183 15.9911 5.31651 15.9495C5.4412 15.908 5.55647 15.8422 5.65573 15.7561C5.75499 15.67 5.8363 15.5651 5.895 15.4475L6.6175 14H11.3825L12.105 15.4475C12.1638 15.565 12.2451 15.6698 12.3444 15.7559C12.4436 15.842 12.5589 15.9077 12.6836 15.9493C12.8082 15.9908 12.9399 16.0074 13.0709 15.9981C13.202 15.9888 13.33 15.9538 13.4475 15.895C13.565 15.8362 13.6698 15.7549 13.7559 15.6556C13.842 15.5563 13.9077 15.4411 13.9493 15.3164C13.9908 15.1918 14.0074 15.0601 13.9981 14.9291C13.9888 14.798 13.9538 14.67 13.895 14.5525L9.895 6.5525C9.81206 6.38609 9.68437 6.2461 9.52628 6.14825C9.36818 6.0504 9.18593 5.99857 9 5.99857C8.81407 5.99857 8.63182 6.0504 8.47372 6.14825C8.31563 6.2461 8.18794 6.38609 8.105 6.5525L4.105 14.5525C4.04615 14.67 4.01104 14.798 4.00168 14.9291C3.99232 15.0602 4.0089 15.1918 4.05046 15.3165C4.09202 15.4412 4.15775 15.5565 4.2439 15.6557C4.33004 15.755 4.43491 15.8363 4.5525 15.895ZM9 9.23625L10.3825 12H7.6175L9 9.23625ZM14 11C14 10.7348 14.1054 10.4804 14.2929 10.2929C14.4804 10.1054 14.7348 10 15 10H17V8C17 7.73478 17.1054 7.48043 17.2929 7.29289C17.4804 7.10536 17.7348 7 18 7C18.2652 7 18.5196 7.10536 18.7071 7.29289C18.8946 7.48043 19 7.73478 19 8V10H21C21.2652 10 21.5196 10.1054 21.7071 10.2929C21.8946 10.4804 22 10.7348 22 11C22 11.2652 21.8946 11.5196 21.7071 11.7071C21.5196 11.8946 21.2652 12 21 12H19V14C19 14.2652 18.8946 14.5196 18.7071 14.7071C18.5196 14.8946 18.2652 15 18 15C17.7348 15 17.4804 14.8946 17.2929 14.7071C17.1054 14.5196 17 14.2652 17 14V12H15C14.7348 12 14.4804 11.8946 14.2929 11.7071C14.1054 11.5196 14 11.2652 14 11Z" fill="#692727"/>
</svg>
