<svg width="32" height="21" viewBox="0 0 32 21" fill="none" xmlns="http://www.w3.org/2000/svg">
<path d="M31 9.5H30V5.5C30 4.96957 29.7893 4.46086 29.4142 4.08579C29.0391 3.71071 28.5304 3.5 28 3.5H26V2.5C26 1.96957 25.7893 1.46086 25.4142 1.08579C25.0391 0.710714 24.5304 0.5 24 0.5H21C20.4696 0.5 19.9609 0.710714 19.5858 1.08579C19.2107 1.46086 19 1.96957 19 2.5V9.5H13V2.5C13 1.96957 12.7893 1.46086 12.4142 1.08579C12.0391 0.710714 11.5304 0.5 11 0.5H8C7.46957 0.5 6.96086 0.710714 6.58579 1.08579C6.21071 1.46086 6 1.96957 6 2.5V3.5H4C3.46957 3.5 2.96086 3.71071 2.58579 4.08579C2.21071 4.46086 2 4.96957 2 5.5V9.5H1C0.734784 9.5 0.48043 9.60536 0.292893 9.79289C0.105357 9.98043 0 10.2348 0 10.5C0 10.7652 0.105357 11.0196 0.292893 11.2071C0.48043 11.3946 0.734784 11.5 1 11.5H2V15.5C2 16.0304 2.21071 16.5391 2.58579 16.9142C2.96086 17.2893 3.46957 17.5 4 17.5H6V18.5C6 19.0304 6.21071 19.5391 6.58579 19.9142C6.96086 20.2893 7.46957 20.5 8 20.5H11C11.5304 20.5 12.0391 20.2893 12.4142 19.9142C12.7893 19.5391 13 19.0304 13 18.5V11.5H19V18.5C19 19.0304 19.2107 19.5391 19.5858 19.9142C19.9609 20.2893 20.4696 20.5 21 20.5H24C24.5304 20.5 25.0391 20.2893 25.4142 19.9142C25.7893 19.5391 26 19.0304 26 18.5V17.5H28C28.5304 17.5 29.0391 17.2893 29.4142 16.9142C29.7893 16.5391 30 16.0304 30 15.5V11.5H31C31.2652 11.5 31.5196 11.3946 31.7071 11.2071C31.8946 11.0196 32 10.7652 32 10.5C32 10.2348 31.8946 9.98043 31.7071 9.79289C31.5196 9.60536 31.2652 9.5 31 9.5ZM4 15.5V5.5H6V15.5H4ZM11 18.5H8V2.5H11V18.5ZM24 18.5H21V2.5H24V16.4775C24 16.485 24 16.4925 24 16.5C24 16.5075 24 16.515 24 16.5225V18.5ZM28 15.5H26V5.5H28V15.5Z" fill="#FEC526"/>
</svg>
