<svg width="30" height="26" viewBox="0 0 30 26" fill="none" xmlns="http://www.w3.org/2000/svg">
<path d="M29 23.4998H27V14.4998L27.2925 14.7923C27.4805 14.98 27.7353 15.0853 28.0009 15.085C28.2665 15.0848 28.5211 14.9791 28.7087 14.7911C28.8964 14.6031 29.0017 14.3483 29.0014 14.0827C29.0012 13.8171 28.8955 13.5625 28.7075 13.3748L16.4137 1.08483C16.0387 0.710046 15.5302 0.499512 15 0.499512C14.4698 0.499512 13.9613 0.710046 13.5863 1.08483L1.2925 13.3748C1.10503 13.5625 0.999769 13.8169 0.999886 14.0822C1 14.3474 1.10548 14.6017 1.29312 14.7892C1.48077 14.9767 1.7352 15.0819 2.00044 15.0818C2.26569 15.0817 2.52003 14.9762 2.7075 14.7886L3 14.4998V23.4998H1C0.734784 23.4998 0.48043 23.6052 0.292893 23.7927C0.105357 23.9803 0 24.2346 0 24.4998C0 24.7651 0.105357 25.0194 0.292893 25.2069C0.48043 25.3945 0.734784 25.4998 1 25.4998H29C29.2652 25.4998 29.5196 25.3945 29.7071 25.2069C29.8946 25.0194 30 24.7651 30 24.4998C30 24.2346 29.8946 23.9803 29.7071 23.7927C29.5196 23.6052 29.2652 23.4998 29 23.4998ZM5 12.4998L15 2.49983L25 12.4998V23.4998H19V16.4998C19 16.2346 18.8946 15.9803 18.7071 15.7927C18.5196 15.6052 18.2652 15.4998 18 15.4998H12C11.7348 15.4998 11.4804 15.6052 11.2929 15.7927C11.1054 15.9803 11 16.2346 11 16.4998V23.4998H5V12.4998ZM17 23.4998H13V17.4998H17V23.4998Z" fill="#FEC526"/>
</svg>
