<svg width="122" height="44" viewBox="0 0 122 44" fill="none" xmlns="http://www.w3.org/2000/svg">
<path fill-rule="evenodd" clip-rule="evenodd" d="M14.2251 29.7745C17.3955 25.4411 23.9128 16.4108 26.758 12.4924C27.032 12.1159 27.5898 12.108 27.8736 12.4766C30.7227 16.1822 37.5938 25.1603 37.5938 25.1603C37.5938 25.1603 36.7383 16.8346 39.3046 11.8045L33.6497 3.4384C32.681 2.00546 31.2569 0.925325 29.5953 0.444391C27.7238 -0.0976454 25.2048 -0.0178183 22.3724 2.22818C21.7703 2.70518 21.2401 3.26791 20.7838 3.88583C17.9188 7.76287 4.86858 25.4254 2.34959 28.8028C-2.9535 35.9143 4.57391 41.8116 7.14021 41.8116H31.0923V30.8842H14.7869C14.2162 30.8842 13.8871 30.2357 14.2241 29.7755L14.2251 29.7745Z" fill="#EA0A2A"/>
<path fill-rule="evenodd" clip-rule="evenodd" d="M107.67 30.8832H91.3155V41.4637H113.9C113.9 41.4637 118.861 41.1168 120.743 36.7805C122.624 32.4442 120.572 29.1497 119.203 27.2417C118.027 25.6018 105.602 8.9721 102.134 4.3303C100.979 2.78402 99.3869 1.60534 97.5519 1.0091C94.953 0.165492 91.3628 0.292625 88.0652 4.86741C81.5638 13.8859 73.5229 24.292 70.4431 28.6283C67.3634 32.9646 57.0982 37.6478 50.7682 26.7203C47.7505 21.5119 49.9128 10.5903 59.836 9.72307C68.0197 9.00758 72.6675 15.7939 72.6675 15.7939L77.9715 7.81609C77.9715 7.81609 73.1799 -0.336138 60.5199 0.0107654C47.8599 0.357669 40.161 8.8568 39.3046 20.1302C38.4492 31.4045 47.517 43.5452 58.8091 43.5452C69.5207 43.5452 74.6898 39.6435 78.2603 35.5408C78.5904 35.1613 78.9029 34.7681 79.1985 34.3601L94.4366 13.3567C94.7096 12.9802 95.2684 12.9713 95.5532 13.3399L108.222 29.7587C108.576 30.217 108.249 30.8822 107.67 30.8822V30.8832Z" fill="#EA0A2A"/>
</svg>
