<svg width="357" height="136" viewBox="0 0 357 136" fill="none" xmlns="http://www.w3.org/2000/svg">
<path d="M66.1729 9.76364C74.9441 2.80891 83.009 2.43318 89.1338 4.207L89.6338 4.35837C94.7784 5.97724 99.1484 9.37386 102.137 13.7939L118.354 37.7861L119.18 39.0088L118.51 40.3222C115.085 47.0356 113.871 56.1613 113.567 63.8447C113.418 67.6431 113.493 71.0049 113.605 73.415C113.662 74.6186 113.727 75.5819 113.778 76.2402C113.804 76.5692 113.826 76.8222 113.841 76.9902C113.848 77.0742 113.854 77.1371 113.858 77.1777C113.86 77.1978 113.861 77.2125 113.862 77.2216C113.863 77.2262 113.863 77.2297 113.863 77.2314V77.2324L114.768 86.0322L109.391 79.0068V79.0058C109.39 79.005 109.389 79.0035 109.388 79.0019C109.385 78.9988 109.382 78.9943 109.377 78.9883C109.367 78.9758 109.353 78.9571 109.334 78.9326C109.297 78.8836 109.241 78.811 109.168 78.7158C109.022 78.5246 108.806 78.2422 108.528 77.8799C107.974 77.1551 107.172 76.108 106.185 74.8183C104.21 72.2386 101.491 68.6879 98.5176 64.8056C92.7651 57.2951 86.0583 48.5443 81.9297 43.1728C73.7616 54.4266 56.095 78.8987 46.957 91.4023H95.2314V127.74H24.043C21.4596 127.74 18.2229 126.355 15.2539 124.351C12.1876 122.281 9.02605 119.298 6.61621 115.6C4.19992 111.891 2.50015 107.398 2.5 102.366C2.49991 97.3113 4.21598 91.9161 8.2998 86.4394V86.4384C15.5193 76.7588 52.9385 26.1158 61.1582 14.9922L61.7041 14.2754C63.006 12.6199 64.4957 11.0922 66.1729 9.76364Z" fill="#EA0A2A" stroke="#FEC526" stroke-width="5"/>
<path d="M177.055 2.86609C195.799 2.35249 208.84 8.14082 217.219 14.1522C221.395 17.1478 224.393 20.1837 226.359 22.4891C227.342 23.6423 228.069 24.615 228.557 25.3114C228.801 25.6593 228.985 25.9387 229.113 26.1376C229.176 26.2371 229.226 26.3171 229.261 26.3749C229.279 26.4037 229.293 26.4273 229.304 26.4452C229.309 26.454 229.314 26.4616 229.318 26.4677C229.319 26.4706 229.321 26.4732 229.323 26.4755C229.323 26.4766 229.324 26.4788 229.324 26.4794C229.323 26.4819 229.259 26.521 227.17 27.7489L229.325 26.4813L230.118 27.83L229.252 29.1327L214.041 52.0116L211.99 55.0966L209.897 52.0399C209.894 52.0353 209.888 52.026 209.878 52.0126C209.859 51.9855 209.827 51.9407 209.782 51.8798C209.694 51.7579 209.555 51.5712 209.366 51.329C208.99 50.844 208.417 50.1391 207.654 49.2928C206.125 47.5973 203.849 45.3505 200.88 43.1669C194.944 38.8007 186.337 34.7501 175.38 35.7079H175.379C162.209 36.8591 154.284 44.6015 150.563 53.8534C146.776 63.2674 147.44 74.0098 151.321 80.7079V80.7089C159.948 95.6031 170.949 99.5206 180.634 98.6229C190.611 97.6981 199.53 91.6343 203.542 85.9852C207.983 79.7322 215.986 69.1238 225.17 56.8964C234.37 44.6479 244.783 30.74 254.089 17.8309C259.07 10.9204 264.432 7.16035 269.742 5.54187C275.038 3.92793 280.013 4.52493 284.094 5.84949L284.095 5.85046C289.875 7.72869 294.86 11.4309 298.464 16.2557C308.392 29.5439 344.046 77.2618 347.443 81.9989C351.456 87.593 358.084 98.0677 352.123 111.807L352.122 111.807C349.089 118.795 343.579 122.527 338.973 124.49C336.668 125.472 334.552 126.03 333.008 126.343C332.234 126.5 331.598 126.597 331.146 126.655C330.919 126.684 330.738 126.703 330.609 126.716C330.544 126.722 330.492 126.727 330.453 126.73C330.434 126.732 330.418 126.733 330.406 126.734C330.399 126.735 330.393 126.735 330.389 126.735C330.387 126.735 330.385 126.736 330.383 126.736H330.381L330.204 124.242L330.378 126.736L330.291 126.742H262.938V91.3993H309.839V91.3973H311.322L276.02 45.6464L232.713 105.339L232.712 105.338C231.821 106.567 230.88 107.753 229.885 108.897H229.884C224.621 114.945 218.097 120.937 208.876 125.396C199.657 129.854 187.889 132.711 172.217 132.711C155.093 132.711 139.833 123.512 129.238 110.327C118.645 97.1457 112.51 79.7436 113.79 62.8729C115.058 46.1899 121.403 31.423 132.25 20.6864C143.111 9.93649 158.333 3.37909 177.055 2.86609Z" fill="#EA0A2A" stroke="#FEC526" stroke-width="5"/>
</svg>
