<svg width="26" height="27" viewBox="0 0 26 27" fill="none" xmlns="http://www.w3.org/2000/svg">
<path d="M24.0525 2.44987C22.8039 1.20139 21.1106 0.5 19.345 0.5C17.5793 0.5 15.886 1.20139 14.6375 2.44987L1.94996 15.1361C0.727574 16.39 0.0484035 18.0749 0.0595841 19.826C0.0707648 21.5771 0.771396 23.2532 2.0097 24.4914C3.248 25.7295 4.92425 26.4299 6.67532 26.4409C8.4264 26.4518 10.1113 25.7724 11.365 24.5499L24.0537 11.8636C25.3001 10.6142 26 8.92132 25.9998 7.15649C25.9995 5.39165 25.2992 3.69899 24.0525 2.44987ZM9.95121 23.1361C9.07782 24.0097 7.89318 24.5005 6.65791 24.5006C5.42263 24.5007 4.2379 24.0101 3.36434 23.1367C2.49078 22.2634 1.99996 21.0787 1.99984 19.8434C1.99972 18.6082 2.49032 17.4234 3.36371 16.5499L8.99996 10.9136L15.5875 17.4999L9.95121 23.1361ZM22.6387 10.4499L17 16.0861L10.415 9.49987L16.0525 3.86362C16.9293 3.00703 18.1085 2.53065 19.3343 2.53781C20.5601 2.54497 21.7337 3.03509 22.6005 3.90188C23.4672 4.76866 23.9574 5.94222 23.9645 7.16802C23.9717 8.39382 23.4953 9.57302 22.6387 10.4499ZM20.71 7.79237C20.8029 7.88525 20.8767 7.99553 20.927 8.11693C20.9773 8.23833 21.0033 8.36846 21.0033 8.49987C21.0033 8.63129 20.9773 8.76141 20.927 8.88281C20.8767 9.00421 20.8029 9.1145 20.71 9.20737L17.71 12.2074C17.6171 12.3002 17.5068 12.3738 17.3854 12.424C17.264 12.4742 17.134 12.5 17.0026 12.5C16.8713 12.4999 16.7413 12.474 16.62 12.4237C16.4986 12.3734 16.3884 12.2997 16.2956 12.2067C16.2028 12.1138 16.1291 12.0036 16.0789 11.8822C16.0287 11.7608 16.0029 11.6308 16.003 11.4994C16.003 11.3681 16.029 11.2381 16.0793 11.1167C16.1296 10.9954 16.2033 10.8852 16.2962 10.7924L19.2962 7.79237C19.4837 7.60498 19.738 7.49971 20.0031 7.49971C20.2682 7.49971 20.5224 7.60498 20.71 7.79237Z" fill="#FEC526"/>
</svg>
