<svg width="32" height="20" viewBox="0 0 32 20" fill="none" xmlns="http://www.w3.org/2000/svg">
<path d="M26 7.46533C25.277 7.46502 24.56 7.59589 23.8838 7.85158L20.7413 2.46533H24C24.2652 2.46533 24.5196 2.57069 24.7071 2.75823C24.8946 2.94576 25 3.20012 25 3.46533C25 3.73055 25.1054 3.9849 25.2929 4.17244C25.4804 4.35998 25.7348 4.46533 26 4.46533C26.2652 4.46533 26.5196 4.35998 26.7071 4.17244C26.8946 3.9849 27 3.73055 27 3.46533C27 2.66968 26.6839 1.90662 26.1213 1.34401C25.5587 0.781403 24.7957 0.465332 24 0.465332H19C18.8247 0.465731 18.6525 0.512227 18.5008 0.600158C18.3491 0.688089 18.2232 0.814364 18.1357 0.966316C18.0482 1.11827 18.0022 1.29056 18.0023 1.4659C18.0024 1.64124 18.0486 1.81348 18.1363 1.96533L19.5925 4.46533H12.4075L10.3638 0.965332C10.2762 0.813646 10.1503 0.687623 9.99872 0.599874C9.84713 0.512126 9.67516 0.465731 9.50001 0.465332H6.00001C5.73479 0.465332 5.48044 0.570689 5.2929 0.758225C5.10536 0.945762 5.00001 1.20012 5.00001 1.46533C5.00001 1.73055 5.10536 1.9849 5.2929 2.17244C5.48044 2.35997 5.73479 2.46533 6.00001 2.46533H8.92626L10.64 5.40408L8.67626 8.09783C7.32703 7.42263 5.77336 7.27902 4.32323 7.69546C2.87309 8.1119 1.63236 9.058 0.846979 10.3462C0.0615959 11.6344 -0.211102 13.1707 0.0829403 14.6505C0.376983 16.1303 1.2163 17.4456 2.43452 18.3357C3.65273 19.2258 5.16091 19.6257 6.6601 19.4561C8.15928 19.2865 9.54002 18.5598 10.5286 17.4201C11.5172 16.2804 12.0415 14.8108 11.9975 13.3027C11.9536 11.7946 11.3446 10.358 10.2913 9.27783L11.74 7.29033L15.6363 13.9653C15.6971 14.0876 15.7824 14.1961 15.8869 14.2842C15.9913 14.3722 16.1127 14.438 16.2435 14.4773C16.3743 14.5166 16.5118 14.5287 16.6475 14.5129C16.7832 14.497 16.9142 14.4535 17.0324 14.3851C17.1507 14.3166 17.2536 14.2247 17.3349 14.1149C17.4162 14.0052 17.4742 13.8799 17.5053 13.7469C17.5363 13.6139 17.5398 13.4759 17.5154 13.3415C17.4911 13.207 17.4395 13.079 17.3638 12.9653L13.5738 6.46533H20.7588L22.1575 8.86158C21.0746 9.76667 20.3454 11.0245 20.0981 12.4141C19.8508 13.8036 20.1013 15.2358 20.8054 16.4589C21.5096 17.682 22.6224 18.6178 23.9482 19.1017C25.274 19.5856 26.7279 19.5866 28.0544 19.1046C29.3809 18.6226 30.495 17.6884 31.2009 16.4662C31.9068 15.2441 32.1593 13.8123 31.914 12.4224C31.6686 11.0325 30.9412 9.77365 29.8596 8.86702C28.778 7.9604 27.4113 7.46409 26 7.46533ZM10 13.4653C10.0002 14.3209 9.72615 15.154 9.21799 15.8423C8.70982 16.5306 7.99435 17.0378 7.17664 17.2895C6.35893 17.5411 5.48208 17.524 4.67483 17.2406C3.86759 16.9571 3.17249 16.4223 2.69162 15.7147C2.21074 15.007 1.96943 14.1639 2.00311 13.309C2.03679 12.4541 2.34369 11.6325 2.87874 10.9649C3.4138 10.2973 4.14881 9.81883 4.97585 9.59978C5.80289 9.38072 6.67838 9.43261 7.47376 9.74783L5.19251 12.8728C5.10945 12.9785 5.04854 13.0998 5.01341 13.2295C4.97827 13.3592 4.96964 13.4946 4.98803 13.6277C5.00642 13.7608 5.05144 13.8889 5.12042 14.0042C5.18939 14.1195 5.2809 14.2198 5.38949 14.2989C5.49807 14.3781 5.62149 14.4346 5.75238 14.465C5.88328 14.4954 6.01895 14.4991 6.15131 14.4759C6.28367 14.4527 6.40999 14.403 6.52274 14.3299C6.63548 14.2568 6.73233 14.1617 6.80751 14.0503L9.08876 10.9253C9.67865 11.6403 10.0009 12.5385 10 13.4653ZM26 17.4653C25.2077 17.4647 24.4335 17.2289 23.7755 16.7877C23.1174 16.3464 22.6052 15.7198 22.3038 14.9871C22.0024 14.2544 21.9254 13.4487 22.0825 12.6722C22.2396 11.8956 22.6238 11.1832 23.1863 10.6253L25.1363 13.9653C25.1971 14.0876 25.2824 14.1961 25.3869 14.2842C25.4913 14.3722 25.6127 14.438 25.7435 14.4773C25.8743 14.5166 26.0118 14.5287 26.1475 14.5129C26.2832 14.497 26.4142 14.4535 26.5324 14.3851C26.6507 14.3166 26.7536 14.2247 26.8349 14.1149C26.9162 14.0052 26.9742 13.8799 27.0053 13.7469C27.0363 13.6139 27.0398 13.4759 27.0154 13.3415C26.9911 13.207 26.9395 13.079 26.8638 12.9653L24.9125 9.61658C25.4627 9.46082 26.0399 9.42484 26.6052 9.51107C27.1705 9.59731 27.7108 9.80374 28.1895 10.1165C28.6683 10.4292 29.0744 10.8409 29.3806 11.3239C29.6867 11.8069 29.8857 12.3499 29.9642 12.9163C30.0427 13.4828 29.9988 14.0594 29.8355 14.6075C29.6722 15.1555 29.3934 15.6622 29.0177 16.0933C28.642 16.5244 28.1782 16.8699 27.6577 17.1066C27.1371 17.3433 26.5718 17.4656 26 17.4653Z" fill="#692727"/>
</svg>
