<svg width="25" height="16" viewBox="0 0 25 16" fill="none" xmlns="http://www.w3.org/2000/svg">
<path d="M20.75 7.71545C20.5427 7.71593 20.3358 7.73317 20.1312 7.76702L19.5856 6.34764C19.9676 6.25998 20.3581 6.21564 20.75 6.21545C20.9489 6.21545 21.1397 6.13644 21.2803 5.99578C21.421 5.85513 21.5 5.66437 21.5 5.46545C21.5 5.26654 21.421 5.07578 21.2803 4.93512C21.1397 4.79447 20.9489 4.71545 20.75 4.71545H18.9575L17.7003 1.44639C17.6459 1.30482 17.5498 1.18307 17.4248 1.09721C17.2998 1.01134 17.1517 0.965406 17 0.965454H14C13.8011 0.965454 13.6103 1.04447 13.4697 1.18512C13.329 1.32578 13.25 1.51654 13.25 1.71545C13.25 1.91437 13.329 2.10513 13.4697 2.24578C13.6103 2.38644 13.8011 2.46545 14 2.46545H16.4853L17.3506 4.71545H14.75C13.0156 4.71545 11.6094 5.11952 10.6841 5.88358C10.4663 6.05924 10.2038 6.1705 9.92612 6.20479C9.64847 6.23908 9.36675 6.19504 9.11281 6.07764C8.12094 5.6267 3.41844 3.71514 3.00406 3.55295L2.46875 3.34295C2.31958 3.27774 2.16165 3.23478 2 3.21545C1.82514 3.21588 1.65593 3.27738 1.52162 3.38933C1.3873 3.50128 1.29632 3.65664 1.26441 3.82856C1.23249 4.00048 1.26165 4.17814 1.34683 4.33084C1.43202 4.48354 1.56788 4.60168 1.73094 4.66483C1.77406 4.6817 6.155 6.38045 8.49312 7.44264C9.00311 7.67465 9.56767 7.75993 10.1234 7.68888C10.6792 7.61784 11.2041 7.3933 11.6394 7.04045C12.095 6.66545 13.0053 6.21545 14.7509 6.21545H16.5153C15.4205 7.09436 14.6281 8.29385 14.2494 9.64577C14.1586 9.95622 13.9691 10.2286 13.7096 10.4217C13.4501 10.6147 13.1347 10.7178 12.8112 10.7155H7.925C7.73914 9.80492 7.22181 8.99584 6.47331 8.44506C5.7248 7.89428 4.79846 7.64104 3.87385 7.73444C2.94925 7.82785 2.09227 8.26124 1.46905 8.95059C0.845823 9.63994 0.500763 10.5361 0.500763 11.4655C0.500763 12.3948 0.845823 13.291 1.46905 13.9803C2.09227 14.6697 2.94925 15.1031 3.87385 15.1965C4.79846 15.2899 5.7248 15.0366 6.47331 14.4859C7.22181 13.9351 7.73914 13.126 7.925 12.2155H12.8112C13.4617 12.2169 14.095 12.0063 14.615 11.6155C15.135 11.2247 15.5135 10.675 15.6931 10.0498C15.8802 9.3848 16.1967 8.76324 16.6245 8.22076C17.0522 7.67829 17.5829 7.22558 18.1859 6.88858L18.7316 8.30702C17.9714 8.79356 17.4122 9.53794 17.1566 10.4035C16.9011 11.2691 16.9662 12.1978 17.3402 13.0193C17.7142 13.8407 18.3718 14.4997 19.1925 14.8753C20.0131 15.2509 20.9417 15.3179 21.8078 15.0641C22.6739 14.8102 23.4194 14.2526 23.9075 13.4934C24.3956 12.7342 24.5935 11.8245 24.4649 10.9312C24.3363 10.0378 23.8898 9.22085 23.2074 8.63016C22.5251 8.03947 21.6525 7.7147 20.75 7.71545ZM4.25 12.2155H6.37062C6.1937 12.7159 5.84557 13.1376 5.38776 13.4062C4.92995 13.6747 4.39194 13.7728 3.86882 13.6831C3.3457 13.5933 2.87115 13.3215 2.52904 12.9157C2.18694 12.5099 1.9993 11.9962 1.9993 11.4655C1.9993 10.9347 2.18694 10.421 2.52904 10.0152C2.87115 9.60941 3.3457 9.33761 3.86882 9.24786C4.39194 9.1581 4.92995 9.25617 5.38776 9.52473C5.84557 9.79329 6.1937 10.215 6.37062 10.7155H4.25C4.05109 10.7155 3.86032 10.7945 3.71967 10.9351C3.57902 11.0758 3.5 11.2665 3.5 11.4655C3.5 11.6644 3.57902 11.8551 3.71967 11.9958C3.86032 12.1364 4.05109 12.2155 4.25 12.2155ZM20.75 13.7155C20.2904 13.7149 19.842 13.5736 19.4651 13.3106C19.0882 13.0475 18.8009 12.6754 18.6419 12.2442C18.4828 11.8131 18.4596 11.3435 18.5753 10.8987C18.6911 10.454 18.9403 10.0553 19.2894 9.75639L20.0497 11.7345C20.121 11.9203 20.2633 12.07 20.4451 12.1509C20.6269 12.2318 20.8333 12.2371 21.0191 12.1658C21.2048 12.0944 21.3546 11.9522 21.4354 11.7704C21.5163 11.5886 21.5217 11.3821 21.4503 11.1964L20.6891 9.21545H20.75C21.3467 9.21545 21.919 9.45251 22.341 9.87446C22.7629 10.2964 23 10.8687 23 11.4655C23 12.0622 22.7629 12.6345 22.341 13.0564C21.919 13.4784 21.3467 13.7155 20.75 13.7155Z" fill="black" fill-opacity="0.6"/>
</svg>
