<svg width="22" height="27" viewBox="0 0 22 27" fill="none" xmlns="http://www.w3.org/2000/svg">
<path d="M21.7075 5.75783L16.7075 0.757832C16.6146 0.664998 16.5042 0.591384 16.3829 0.541196C16.2615 0.491008 16.1314 0.465229 16 0.465332H6C5.46957 0.465332 4.96086 0.676046 4.58579 1.05112C4.21071 1.42619 4 1.9349 4 2.46533V4.46533H2C1.46957 4.46533 0.960859 4.67605 0.585786 5.05112C0.210714 5.42619 0 5.9349 0 6.46533V24.4653C0 24.9958 0.210714 25.5045 0.585786 25.8795C0.960859 26.2546 1.46957 26.4653 2 26.4653H16C16.5304 26.4653 17.0391 26.2546 17.4142 25.8795C17.7893 25.5045 18 24.9958 18 24.4653V22.4653H20C20.5304 22.4653 21.0391 22.2546 21.4142 21.8795C21.7893 21.5045 22 20.9958 22 20.4653V6.46533C22.0001 6.33397 21.9743 6.20388 21.9241 6.08248C21.8739 5.96109 21.8003 5.85077 21.7075 5.75783ZM16 24.4653H2V6.46533H11.5863L16 10.8791V21.4453C16 21.4528 16 21.4591 16 21.4653C16 21.4716 16 21.4778 16 21.4853V24.4653ZM20 20.4653H18V10.4653C18.0001 10.334 17.9743 10.2039 17.9241 10.0825C17.8739 9.96109 17.8003 9.85077 17.7075 9.75783L12.7075 4.75783C12.6146 4.665 12.5042 4.59138 12.3829 4.5412C12.2615 4.49101 12.1314 4.46523 12 4.46533H6V2.46533H15.5863L20 6.87908V20.4653ZM13 16.4653C13 16.7305 12.8946 16.9849 12.7071 17.1724C12.5196 17.36 12.2652 17.4653 12 17.4653H6C5.73478 17.4653 5.48043 17.36 5.29289 17.1724C5.10536 16.9849 5 16.7305 5 16.4653C5 16.2001 5.10536 15.9458 5.29289 15.7582C5.48043 15.5707 5.73478 15.4653 6 15.4653H12C12.2652 15.4653 12.5196 15.5707 12.7071 15.7582C12.8946 15.9458 13 16.2001 13 16.4653ZM13 20.4653C13 20.7305 12.8946 20.9849 12.7071 21.1724C12.5196 21.36 12.2652 21.4653 12 21.4653H6C5.73478 21.4653 5.48043 21.36 5.29289 21.1724C5.10536 20.9849 5 20.7305 5 20.4653C5 20.2001 5.10536 19.9458 5.29289 19.7582C5.48043 19.5707 5.73478 19.4653 6 19.4653H12C12.2652 19.4653 12.5196 19.5707 12.7071 19.7582C12.8946 19.9458 13 20.2001 13 20.4653Z" fill="#692727"/>
</svg>
