<svg width="30" height="22" viewBox="0 0 30 22" fill="none" xmlns="http://www.w3.org/2000/svg">
<path d="M8 8.5C8 8.23478 8.10536 7.98043 8.29289 7.79289C8.48043 7.60536 8.73478 7.5 9 7.5H11V5.5C11 5.23478 11.1054 4.98043 11.2929 4.79289C11.4804 4.60536 11.7348 4.5 12 4.5C12.2652 4.5 12.5196 4.60536 12.7071 4.79289C12.8946 4.98043 13 5.23478 13 5.5V7.5H15C15.2652 7.5 15.5196 7.60536 15.7071 7.79289C15.8946 7.98043 16 8.23478 16 8.5C16 8.76522 15.8946 9.01957 15.7071 9.20711C15.5196 9.39464 15.2652 9.5 15 9.5H13V11.5C13 11.7652 12.8946 12.0196 12.7071 12.2071C12.5196 12.3946 12.2652 12.5 12 12.5C11.7348 12.5 11.4804 12.3946 11.2929 12.2071C11.1054 12.0196 11 11.7652 11 11.5V9.5H9C8.73478 9.5 8.48043 9.39464 8.29289 9.20711C8.10536 9.01957 8 8.76522 8 8.5ZM30 8.5V16.5C30 17.0304 29.7893 17.5391 29.4142 17.9142C29.0391 18.2893 28.5304 18.5 28 18.5H25.875C25.6547 19.3604 25.1543 20.123 24.4527 20.6676C23.7511 21.2122 22.8882 21.5078 22 21.5078C21.1118 21.5078 20.2489 21.2122 19.5473 20.6676C18.8457 20.123 18.3453 19.3604 18.125 18.5H11.875C11.6547 19.3604 11.1543 20.123 10.4527 20.6676C9.75108 21.2122 8.88817 21.5078 8 21.5078C7.11183 21.5078 6.24892 21.2122 5.54731 20.6676C4.8457 20.123 4.3453 19.3604 4.125 18.5H2C1.46957 18.5 0.960859 18.2893 0.585786 17.9142C0.210714 17.5391 0 17.0304 0 16.5V2.5C0 1.96957 0.210714 1.46086 0.585786 1.08579C0.960859 0.710714 1.46957 0.5 2 0.5H21C21.2652 0.5 21.5196 0.605357 21.7071 0.792893C21.8946 0.98043 22 1.23478 22 1.5V2.5H26.3225C26.7226 2.49872 27.1138 2.61801 27.4452 2.84231C27.7765 3.06662 28.0326 3.38554 28.18 3.7575L29.93 8.1325C29.9765 8.24944 30.0002 8.37416 30 8.5ZM22 4.5V7.5H27.5225L26.3225 4.5H22ZM2 16.5H4.125C4.3453 15.6396 4.8457 14.877 5.54731 14.3324C6.24892 13.7878 7.11183 13.4922 8 13.4922C8.88817 13.4922 9.75108 13.7878 10.4527 14.3324C11.1543 14.877 11.6547 15.6396 11.875 16.5H18.125C18.2591 15.9861 18.4939 15.5039 18.8158 15.0814C19.1377 14.659 19.5402 14.3045 20 14.0387V2.5H2V16.5ZM10 17.5C10 17.1044 9.8827 16.7178 9.66294 16.3889C9.44318 16.06 9.13082 15.8036 8.76537 15.6522C8.39991 15.5009 7.99778 15.4613 7.60982 15.5384C7.22186 15.6156 6.86549 15.8061 6.58579 16.0858C6.30608 16.3655 6.1156 16.7219 6.03843 17.1098C5.96126 17.4978 6.00087 17.8999 6.15224 18.2654C6.30362 18.6308 6.55996 18.9432 6.88886 19.1629C7.21776 19.3827 7.60444 19.5 8 19.5C8.53043 19.5 9.03914 19.2893 9.41421 18.9142C9.78929 18.5391 10 18.0304 10 17.5ZM24 17.5C24 17.1044 23.8827 16.7178 23.6629 16.3889C23.4432 16.06 23.1308 15.8036 22.7654 15.6522C22.3999 15.5009 21.9978 15.4613 21.6098 15.5384C21.2219 15.6156 20.8655 15.8061 20.5858 16.0858C20.3061 16.3655 20.1156 16.7219 20.0384 17.1098C19.9613 17.4978 20.0009 17.8999 20.1522 18.2654C20.3036 18.6308 20.56 18.9432 20.8889 19.1629C21.2178 19.3827 21.6044 19.5 22 19.5C22.5304 19.5 23.0391 19.2893 23.4142 18.9142C23.7893 18.5391 24 18.0304 24 17.5ZM28 16.5V9.5H22V13.5C22.8868 13.5008 23.7483 13.7958 24.4495 14.3387C25.1507 14.8815 25.6521 15.6417 25.875 16.5H28Z" fill="#FEC526"/>
</svg>
