<svg width="304" height="44" viewBox="0 0 304 44" fill="none" xmlns="http://www.w3.org/2000/svg">
<rect x="0.5" y="0.5" width="303" height="43" rx="18" fill="#E3322D"/>
<path d="M22.64 27.5V17.03H26.69C27.2 17.03 27.655 17.11 28.055 17.27C28.455 17.42 28.79 17.64 29.06 17.93C29.34 18.22 29.55 18.57 29.69 18.98C29.83 19.39 29.9 19.85 29.9 20.36C29.9 20.87 29.83 21.33 29.69 21.74C29.55 22.15 29.34 22.5 29.06 22.79C28.79 23.08 28.455 23.305 28.055 23.465C27.655 23.615 27.2 23.69 26.69 23.69H24.905V27.5H22.64ZM24.905 21.875H26.12C26.65 21.875 27.015 21.775 27.215 21.575C27.425 21.375 27.53 21.045 27.53 20.585V20.135C27.53 19.675 27.425 19.345 27.215 19.145C27.015 18.945 26.65 18.845 26.12 18.845H24.905V21.875ZM33.8541 27.5H31.6341V17.03H35.6841C36.1941 17.03 36.6491 17.11 37.0491 17.27C37.4491 17.42 37.7841 17.64 38.0541 17.93C38.3341 18.22 38.5441 18.57 38.6841 18.98C38.8241 19.39 38.8941 19.85 38.8941 20.36C38.8941 21.1 38.7341 21.735 38.4141 22.265C38.0941 22.795 37.6391 23.145 37.0491 23.315L39.1041 27.5H36.6441L34.8891 23.615H33.8541V27.5ZM35.1441 21.875C35.6741 21.875 36.0391 21.775 36.2391 21.575C36.4491 21.375 36.5541 21.045 36.5541 20.585V20.135C36.5541 19.675 36.4491 19.345 36.2391 19.145C36.0391 18.945 35.6741 18.845 35.1441 18.845H33.8541V21.875H35.1441ZM43.9883 27.68C42.5883 27.68 41.5533 27.205 40.8833 26.255C40.2233 25.305 39.8933 23.975 39.8933 22.265C39.8933 20.555 40.2233 19.225 40.8833 18.275C41.5533 17.325 42.5883 16.85 43.9883 16.85C45.3883 16.85 46.4183 17.325 47.0783 18.275C47.7483 19.225 48.0833 20.555 48.0833 22.265C48.0833 23.975 47.7483 25.305 47.0783 26.255C46.4183 27.205 45.3883 27.68 43.9883 27.68ZM43.9883 25.865C44.6283 25.865 45.0683 25.63 45.3083 25.16C45.5583 24.68 45.6833 24.015 45.6833 23.165V21.35C45.6833 20.51 45.5583 19.855 45.3083 19.385C45.0683 18.905 44.6283 18.665 43.9883 18.665C43.3483 18.665 42.9033 18.905 42.6533 19.385C42.4133 19.855 42.2933 20.51 42.2933 21.35V23.18C42.2933 24.02 42.4133 24.68 42.6533 25.16C42.9033 25.63 43.3483 25.865 43.9883 25.865ZM54.9474 22.835L55.0674 19.91H54.9324L52.9824 25.295L51.0324 19.91H50.8974L51.0174 22.835V27.5H49.0674V17.03H51.7224L53.0124 20.555H53.1324L54.4224 17.03H56.8974V27.5H54.9474V22.835ZM61.9766 27.68C60.5766 27.68 59.5416 27.205 58.8716 26.255C58.2116 25.305 57.8816 23.975 57.8816 22.265C57.8816 20.555 58.2116 19.225 58.8716 18.275C59.5416 17.325 60.5766 16.85 61.9766 16.85C63.3766 16.85 64.4066 17.325 65.0666 18.275C65.7366 19.225 66.0716 20.555 66.0716 22.265C66.0716 23.975 65.7366 25.305 65.0666 26.255C64.4066 27.205 63.3766 27.68 61.9766 27.68ZM61.9766 25.865C62.6166 25.865 63.0566 25.63 63.2966 25.16C63.5466 24.68 63.6716 24.015 63.6716 23.165V21.35C63.6716 20.51 63.5466 19.855 63.2966 19.385C63.0566 18.905 62.6166 18.665 61.9766 18.665C61.3366 18.665 60.8916 18.905 60.6416 19.385C60.4016 19.855 60.2816 20.51 60.2816 21.35V23.18C60.2816 24.02 60.4016 24.68 60.6416 25.16C60.8916 25.63 61.3366 25.865 61.9766 25.865ZM71.2107 27.68C69.8107 27.68 68.7707 27.21 68.0907 26.27C67.4207 25.32 67.0857 23.985 67.0857 22.265C67.0857 20.545 67.4207 19.215 68.0907 18.275C68.7707 17.325 69.8107 16.85 71.2107 16.85C71.7507 16.85 72.2257 16.925 72.6357 17.075C73.0557 17.215 73.4157 17.415 73.7157 17.675C74.0157 17.935 74.2607 18.25 74.4507 18.62C74.6507 18.99 74.8057 19.405 74.9157 19.865L72.8157 20.375C72.7557 20.125 72.6857 19.895 72.6057 19.685C72.5257 19.475 72.4207 19.295 72.2907 19.145C72.1707 18.995 72.0157 18.88 71.8257 18.8C71.6457 18.71 71.4257 18.665 71.1657 18.665C70.5557 18.665 70.1207 18.905 69.8607 19.385C69.6107 19.855 69.4857 20.51 69.4857 21.35V23.18C69.4857 24.02 69.6107 24.68 69.8607 25.16C70.1207 25.63 70.5557 25.865 71.1657 25.865C71.6857 25.865 72.0607 25.705 72.2907 25.385C72.5307 25.065 72.7057 24.655 72.8157 24.155L74.9157 24.665C74.8057 25.125 74.6507 25.54 74.4507 25.91C74.2607 26.28 74.0157 26.6 73.7157 26.87C73.4157 27.13 73.0557 27.33 72.6357 27.47C72.2257 27.61 71.7507 27.68 71.2107 27.68ZM76.5898 27.5V25.835H78.8398V18.695H76.5898V17.03H83.3398V18.695H81.0898V25.835H83.3398V27.5H76.5898ZM88.959 27.68C87.559 27.68 86.524 27.205 85.854 26.255C85.194 25.305 84.864 23.975 84.864 22.265C84.864 20.555 85.194 19.225 85.854 18.275C86.524 17.325 87.559 16.85 88.959 16.85C90.359 16.85 91.389 17.325 92.049 18.275C92.719 19.225 93.054 20.555 93.054 22.265C93.054 23.975 92.719 25.305 92.049 26.255C91.389 27.205 90.359 27.68 88.959 27.68ZM88.959 25.865C89.599 25.865 90.039 25.63 90.279 25.16C90.529 24.68 90.654 24.015 90.654 23.165V21.35C90.654 20.51 90.529 19.855 90.279 19.385C90.039 18.905 89.599 18.665 88.959 18.665C88.319 18.665 87.874 18.905 87.624 19.385C87.384 19.855 87.264 20.51 87.264 21.35V23.18C87.264 24.02 87.384 24.68 87.624 25.16C87.874 25.63 88.319 25.865 88.959 25.865ZM89.199 16.4L87.879 15.755L89.364 12.845L91.209 13.76L89.199 16.4ZM96.4531 20.54H96.2881V27.5H94.3681V17.03H97.0681L99.4531 23.99H99.6181V17.03H101.538V27.5H98.8381L96.4531 20.54ZM114.351 27.5L111.576 17.03H114.081L115.311 22.355L115.926 25.37H116.046L116.676 22.355L117.921 17.03H120.306L117.531 27.5H114.351ZM126.961 27.5L126.301 24.98H123.436L122.791 27.5H120.511L123.346 17.03H126.526L129.361 27.5H126.961ZM124.936 19.205H124.816L123.796 23.165H125.956L124.936 19.205ZM125.176 16.4L123.856 15.755L125.341 12.845L127.186 13.76L125.176 16.4ZM130.81 27.5V17.03H133.075V25.655H137.575V27.5H130.81ZM139.549 27.5V25.835H141.799V18.695H139.549V17.03H146.299V18.695H144.049V25.835H146.299V27.5H139.549ZM148.378 17.03H151.753C153.163 17.03 154.208 17.48 154.888 18.38C155.568 19.28 155.908 20.575 155.908 22.265C155.908 23.955 155.568 25.25 154.888 26.15C154.208 27.05 153.163 27.5 151.753 27.5H148.378V17.03ZM151.603 25.73C152.273 25.73 152.763 25.515 153.073 25.085C153.383 24.655 153.538 24.03 153.538 23.21V21.305C153.538 20.495 153.383 19.875 153.073 19.445C152.763 19.015 152.273 18.8 151.603 18.8H150.598V25.73H151.603ZM162.937 27.5L162.277 24.98H159.412L158.767 27.5H156.487L159.322 17.03H162.502L165.337 27.5H162.937ZM160.912 19.205H160.792L159.772 23.165H161.932L160.912 19.205ZM175.54 27.5V17.03H179.59C180.1 17.03 180.555 17.11 180.955 17.27C181.355 17.42 181.69 17.64 181.96 17.93C182.24 18.22 182.45 18.57 182.59 18.98C182.73 19.39 182.8 19.85 182.8 20.36C182.8 20.87 182.73 21.33 182.59 21.74C182.45 22.15 182.24 22.5 181.96 22.79C181.69 23.08 181.355 23.305 180.955 23.465C180.555 23.615 180.1 23.69 179.59 23.69H177.805V27.5H175.54ZM177.805 21.875H179.02C179.55 21.875 179.915 21.775 180.115 21.575C180.325 21.375 180.43 21.045 180.43 20.585V20.135C180.43 19.675 180.325 19.345 180.115 19.145C179.915 18.945 179.55 18.845 179.02 18.845H177.805V21.875ZM187.895 27.68C186.495 27.68 185.46 27.205 184.79 26.255C184.13 25.305 183.8 23.975 183.8 22.265C183.8 20.555 184.13 19.225 184.79 18.275C185.46 17.325 186.495 16.85 187.895 16.85C189.295 16.85 190.325 17.325 190.985 18.275C191.655 19.225 191.99 20.555 191.99 22.265C191.99 23.975 191.655 25.305 190.985 26.255C190.325 27.205 189.295 27.68 187.895 27.68ZM187.895 25.865C188.535 25.865 188.975 25.63 189.215 25.16C189.465 24.68 189.59 24.015 189.59 23.165V21.35C189.59 20.51 189.465 19.855 189.215 19.385C188.975 18.905 188.535 18.665 187.895 18.665C187.255 18.665 186.81 18.905 186.56 19.385C186.32 19.855 186.2 20.51 186.2 21.35V23.18C186.2 24.02 186.32 24.68 186.56 25.16C186.81 25.63 187.255 25.865 187.895 25.865ZM195.749 27.5H193.529V17.03H197.579C198.089 17.03 198.544 17.11 198.944 17.27C199.344 17.42 199.679 17.64 199.949 17.93C200.229 18.22 200.439 18.57 200.579 18.98C200.719 19.39 200.789 19.85 200.789 20.36C200.789 21.1 200.629 21.735 200.309 22.265C199.989 22.795 199.534 23.145 198.944 23.315L200.999 27.5H198.539L196.784 23.615H195.749V27.5ZM197.039 21.875C197.569 21.875 197.934 21.775 198.134 21.575C198.344 21.375 198.449 21.045 198.449 20.585V20.135C198.449 19.675 198.344 19.345 198.134 19.145C197.934 18.945 197.569 18.845 197.039 18.845H195.749V21.875H197.039ZM211.787 27.5V25.685H214.607V18.665H214.472L212.342 21.455L210.902 20.33L213.407 17.03H216.857V25.685H219.077V27.5H211.787ZM227.696 27.5H220.166V25.445L223.466 22.7C224.036 22.21 224.446 21.785 224.696 21.425C224.946 21.065 225.071 20.685 225.071 20.285V20.135C225.071 19.695 224.941 19.365 224.681 19.145C224.421 18.915 224.071 18.8 223.631 18.8C223.131 18.8 222.746 18.945 222.476 19.235C222.206 19.525 222.016 19.87 221.906 20.27L219.941 19.52C220.061 19.16 220.226 18.82 220.436 18.5C220.646 18.17 220.911 17.885 221.231 17.645C221.561 17.405 221.941 17.215 222.371 17.075C222.801 16.925 223.296 16.85 223.856 16.85C224.426 16.85 224.936 16.93 225.386 17.09C225.836 17.25 226.216 17.47 226.526 17.75C226.836 18.03 227.071 18.365 227.231 18.755C227.391 19.135 227.471 19.55 227.471 20C227.471 20.44 227.396 20.845 227.246 21.215C227.106 21.575 226.906 21.915 226.646 22.235C226.396 22.555 226.096 22.865 225.746 23.165C225.406 23.465 225.041 23.765 224.651 24.065L222.656 25.61H227.696V27.5ZM243.824 22.835L243.944 19.91H243.809L241.859 25.295L239.909 19.91H239.774L239.894 22.835V27.5H237.944V17.03H240.599L241.889 20.555H242.009L243.299 17.03H245.774V27.5H243.824V22.835ZM247.554 27.5V17.03H254.244V18.875H249.804V21.275H254.094V23.12H249.804V25.655H254.244V27.5H247.554ZM259.683 27.68C258.803 27.68 258.038 27.535 257.388 27.245C256.738 26.955 256.213 26.56 255.813 26.06L257.118 24.62C257.498 25.04 257.913 25.35 258.363 25.55C258.823 25.75 259.288 25.85 259.758 25.85C260.298 25.85 260.708 25.73 260.988 25.49C261.268 25.25 261.408 24.905 261.408 24.455C261.408 24.085 261.298 23.805 261.078 23.615C260.868 23.425 260.508 23.29 259.998 23.21L258.903 23.03C257.963 22.87 257.283 22.525 256.863 21.995C256.443 21.455 256.233 20.8 256.233 20.03C256.233 19.02 256.563 18.24 257.223 17.69C257.883 17.13 258.808 16.85 259.998 16.85C260.808 16.85 261.513 16.975 262.113 17.225C262.713 17.475 263.198 17.815 263.568 18.245L262.293 19.67C262.013 19.36 261.683 19.12 261.303 18.95C260.923 18.77 260.493 18.68 260.013 18.68C259.003 18.68 258.498 19.095 258.498 19.925C258.498 20.285 258.608 20.555 258.828 20.735C259.058 20.915 259.428 21.05 259.938 21.14L261.033 21.335C261.883 21.485 262.538 21.805 262.998 22.295C263.458 22.785 263.688 23.445 263.688 24.275C263.688 24.765 263.603 25.22 263.433 25.64C263.263 26.05 263.008 26.41 262.668 26.72C262.328 27.02 261.908 27.255 261.408 27.425C260.918 27.595 260.343 27.68 259.683 27.68ZM265.542 27.5V17.03H272.232V18.875H267.792V21.275H272.082V23.12H267.792V25.655H272.232V27.5H265.542ZM277.671 27.68C276.791 27.68 276.026 27.535 275.376 27.245C274.726 26.955 274.201 26.56 273.801 26.06L275.106 24.62C275.486 25.04 275.901 25.35 276.351 25.55C276.811 25.75 277.276 25.85 277.746 25.85C278.286 25.85 278.696 25.73 278.976 25.49C279.256 25.25 279.396 24.905 279.396 24.455C279.396 24.085 279.286 23.805 279.066 23.615C278.856 23.425 278.496 23.29 277.986 23.21L276.891 23.03C275.951 22.87 275.271 22.525 274.851 21.995C274.431 21.455 274.221 20.8 274.221 20.03C274.221 19.02 274.551 18.24 275.211 17.69C275.871 17.13 276.796 16.85 277.986 16.85C278.796 16.85 279.501 16.975 280.101 17.225C280.701 17.475 281.186 17.815 281.556 18.245L280.281 19.67C280.001 19.36 279.671 19.12 279.291 18.95C278.911 18.77 278.481 18.68 278.001 18.68C276.991 18.68 276.486 19.095 276.486 19.925C276.486 20.285 276.596 20.555 276.816 20.735C277.046 20.915 277.416 21.05 277.926 21.14L279.021 21.335C279.871 21.485 280.526 21.805 280.986 22.295C281.446 22.785 281.676 23.445 281.676 24.275C281.676 24.765 281.591 25.22 281.421 25.64C281.251 26.05 280.996 26.41 280.656 26.72C280.316 27.02 279.896 27.255 279.396 27.425C278.906 27.595 278.331 27.68 277.671 27.68Z" fill="white"/>
</svg>
