<svg width="554" height="134" viewBox="0 0 554 134" fill="none" xmlns="http://www.w3.org/2000/svg">
<rect y="17.1704" width="554" height="116" rx="18" fill="#E3322D"/>
<path d="M108.573 44.7304C109.347 44.7304 109.907 44.5837 110.253 44.2904C110.613 43.9971 110.793 43.6371 110.793 43.2104V43.0704C110.793 42.5637 110.62 42.1637 110.273 41.8704C109.94 41.5637 109.46 41.4104 108.833 41.4104C108.26 41.4104 107.72 41.5571 107.213 41.8504C106.72 42.1304 106.3 42.5371 105.953 43.0704L104.053 41.3104C104.32 40.9637 104.613 40.6504 104.933 40.3704C105.253 40.0771 105.607 39.8304 105.993 39.6304C106.38 39.4171 106.813 39.2571 107.293 39.1504C107.787 39.0304 108.34 38.9704 108.953 38.9704C109.713 38.9704 110.4 39.0571 111.013 39.2304C111.627 39.4037 112.147 39.6571 112.573 39.9904C113.013 40.3104 113.353 40.6971 113.593 41.1504C113.833 41.6037 113.953 42.1104 113.953 42.6704C113.953 43.1104 113.88 43.5104 113.733 43.8704C113.587 44.2304 113.387 44.5437 113.133 44.8104C112.893 45.0771 112.607 45.2971 112.273 45.4704C111.953 45.6304 111.607 45.7437 111.233 45.8104V45.9304C112.087 46.0771 112.793 46.4371 113.353 47.0104C113.927 47.5704 114.213 48.3304 114.213 49.2904C114.213 49.9171 114.08 50.4837 113.813 50.9904C113.56 51.4971 113.193 51.9304 112.713 52.2904C112.247 52.6504 111.673 52.9304 110.993 53.1304C110.327 53.3171 109.58 53.4104 108.753 53.4104C108.047 53.4104 107.42 53.3371 106.873 53.1904C106.34 53.0437 105.867 52.8504 105.453 52.6104C105.04 52.3571 104.68 52.0704 104.373 51.7504C104.08 51.4171 103.82 51.0771 103.593 50.7304L105.813 49.0104C106.12 49.5837 106.5 50.0571 106.953 50.4304C107.42 50.7904 108.04 50.9704 108.813 50.9704C109.533 50.9704 110.087 50.8037 110.473 50.4704C110.86 50.1371 111.053 49.6771 111.053 49.0904V48.9504C111.053 48.3771 110.833 47.9504 110.393 47.6704C109.953 47.3771 109.34 47.2304 108.553 47.2304H107.253V44.7304H108.573ZM135.718 46.9504L135.878 43.0504H135.698L133.098 50.2304L130.498 43.0504H130.318L130.478 46.9504V53.1704H127.878V39.2104H131.418L133.138 43.9104H133.298L135.018 39.2104H138.318V53.1704H135.718V46.9504ZM140.69 53.1704V39.2104H149.61V41.6704H143.69V44.8704H149.41V47.3304H143.69V50.7104H149.61V53.1704H140.69ZM156.862 53.4104C155.689 53.4104 154.669 53.2171 153.802 52.8304C152.935 52.4437 152.235 51.9171 151.702 51.2504L153.442 49.3304C153.949 49.8904 154.502 50.3037 155.102 50.5704C155.715 50.8371 156.335 50.9704 156.962 50.9704C157.682 50.9704 158.229 50.8104 158.602 50.4904C158.975 50.1704 159.162 49.7104 159.162 49.1104C159.162 48.6171 159.015 48.2437 158.722 47.9904C158.442 47.7371 157.962 47.5571 157.282 47.4504L155.822 47.2104C154.569 46.9971 153.662 46.5371 153.102 45.8304C152.542 45.1104 152.262 44.2371 152.262 43.2104C152.262 41.8637 152.702 40.8237 153.582 40.0904C154.462 39.3437 155.695 38.9704 157.282 38.9704C158.362 38.9704 159.302 39.1371 160.102 39.4704C160.902 39.8037 161.549 40.2571 162.042 40.8304L160.342 42.7304C159.969 42.3171 159.529 41.9971 159.022 41.7704C158.515 41.5304 157.942 41.4104 157.302 41.4104C155.955 41.4104 155.282 41.9637 155.282 43.0704C155.282 43.5504 155.429 43.9104 155.722 44.1504C156.029 44.3904 156.522 44.5704 157.202 44.6904L158.662 44.9504C159.795 45.1504 160.669 45.5771 161.282 46.2304C161.895 46.8837 162.202 47.7637 162.202 48.8704C162.202 49.5237 162.089 50.1304 161.862 50.6904C161.635 51.2371 161.295 51.7171 160.842 52.1304C160.389 52.5304 159.829 52.8437 159.162 53.0704C158.509 53.2971 157.742 53.4104 156.862 53.4104ZM164.674 53.1704V39.2104H173.594V41.6704H167.674V44.8704H173.394V47.3304H167.674V50.7104H173.594V53.1704H164.674ZM180.846 53.4104C179.673 53.4104 178.653 53.2171 177.786 52.8304C176.92 52.4437 176.22 51.9171 175.686 51.2504L177.426 49.3304C177.933 49.8904 178.486 50.3037 179.086 50.5704C179.7 50.8371 180.32 50.9704 180.946 50.9704C181.666 50.9704 182.213 50.8104 182.586 50.4904C182.96 50.1704 183.146 49.7104 183.146 49.1104C183.146 48.6171 183 48.2437 182.706 47.9904C182.426 47.7371 181.946 47.5571 181.266 47.4504L179.806 47.2104C178.553 46.9971 177.646 46.5371 177.086 45.8304C176.526 45.1104 176.246 44.2371 176.246 43.2104C176.246 41.8637 176.686 40.8237 177.566 40.0904C178.446 39.3437 179.68 38.9704 181.266 38.9704C182.346 38.9704 183.286 39.1371 184.086 39.4704C184.886 39.8037 185.533 40.2571 186.026 40.8304L184.326 42.7304C183.953 42.3171 183.513 41.9971 183.006 41.7704C182.5 41.5304 181.926 41.4104 181.286 41.4104C179.94 41.4104 179.266 41.9637 179.266 43.0704C179.266 43.5504 179.413 43.9104 179.706 44.1504C180.013 44.3904 180.506 44.5704 181.186 44.6904L182.646 44.9504C183.78 45.1504 184.653 45.5771 185.266 46.2304C185.88 46.8837 186.186 47.7637 186.186 48.8704C186.186 49.5237 186.073 50.1304 185.846 50.6904C185.62 51.2371 185.28 51.7171 184.826 52.1304C184.373 52.5304 183.813 52.8437 183.146 53.0704C182.493 53.2971 181.726 53.4104 180.846 53.4104ZM209.551 41.8304H203.091L202.771 46.2504H202.951C203.097 45.9304 203.264 45.6371 203.451 45.3704C203.637 45.0904 203.857 44.8571 204.111 44.6704C204.364 44.4704 204.657 44.3171 204.991 44.2104C205.324 44.1037 205.704 44.0504 206.131 44.0504C206.704 44.0504 207.244 44.1504 207.751 44.3504C208.271 44.5504 208.724 44.8437 209.111 45.2304C209.511 45.6037 209.824 46.0704 210.051 46.6304C210.277 47.1771 210.391 47.7971 210.391 48.4904C210.391 49.1971 210.271 49.8504 210.031 50.4504C209.791 51.0504 209.437 51.5704 208.971 52.0104C208.517 52.4504 207.951 52.7971 207.271 53.0504C206.591 53.2904 205.817 53.4104 204.951 53.4104C204.271 53.4104 203.664 53.3371 203.131 53.1904C202.597 53.0437 202.124 52.8504 201.711 52.6104C201.311 52.3571 200.957 52.0704 200.651 51.7504C200.357 51.4171 200.104 51.0771 199.891 50.7304L202.071 49.0104C202.231 49.2771 202.397 49.5304 202.571 49.7704C202.757 50.0104 202.964 50.2237 203.191 50.4104C203.431 50.5837 203.691 50.7237 203.971 50.8304C204.264 50.9237 204.597 50.9704 204.971 50.9704C205.717 50.9704 206.277 50.7704 206.651 50.3704C207.037 49.9571 207.231 49.4104 207.231 48.7304V48.5704C207.231 47.9171 207.037 47.4037 206.651 47.0304C206.264 46.6571 205.731 46.4704 205.051 46.4704C204.491 46.4704 204.024 46.5837 203.651 46.8104C203.291 47.0237 203.017 47.2371 202.831 47.4504L200.371 47.1104L200.891 39.2104H209.551V41.8304ZM217.043 53.4104C215.176 53.4104 213.796 52.7771 212.903 51.5104C212.023 50.2437 211.583 48.4704 211.583 46.1904C211.583 43.9104 212.023 42.1371 212.903 40.8704C213.796 39.6037 215.176 38.9704 217.043 38.9704C218.91 38.9704 220.283 39.6037 221.163 40.8704C222.056 42.1371 222.503 43.9104 222.503 46.1904C222.503 48.4704 222.056 50.2437 221.163 51.5104C220.283 52.7771 218.91 53.4104 217.043 53.4104ZM217.043 51.0504C217.936 51.0504 218.556 50.7371 218.903 50.1104C219.263 49.4837 219.443 48.6104 219.443 47.4904V44.8904C219.443 43.7704 219.263 42.8971 218.903 42.2704C218.556 41.6437 217.936 41.3304 217.043 41.3304C216.15 41.3304 215.523 41.6437 215.163 42.2704C214.816 42.8971 214.643 43.7704 214.643 44.8904V47.4904C214.643 48.6104 214.816 49.4837 215.163 50.1104C215.523 50.7371 216.15 51.0504 217.043 51.0504ZM217.043 47.3704C216.576 47.3704 216.25 47.2771 216.063 47.0904C215.89 46.9037 215.803 46.6771 215.803 46.4104V45.9704C215.803 45.7037 215.89 45.4771 216.063 45.2904C216.25 45.1037 216.576 45.0104 217.043 45.0104C217.51 45.0104 217.83 45.1037 218.003 45.2904C218.19 45.4771 218.283 45.7037 218.283 45.9704V46.4104C218.283 46.6771 218.19 46.9037 218.003 47.0904C217.83 47.2771 217.51 47.3704 217.043 47.3704ZM226.335 46.4104C225.335 46.4104 224.562 46.0837 224.015 45.4304C223.468 44.7637 223.195 43.8504 223.195 42.6904C223.195 41.5304 223.468 40.6237 224.015 39.9704C224.562 39.3037 225.335 38.9704 226.335 38.9704C227.335 38.9704 228.108 39.3037 228.655 39.9704C229.202 40.6237 229.475 41.5304 229.475 42.6904C229.475 43.8504 229.202 44.7637 228.655 45.4304C228.108 46.0837 227.335 46.4104 226.335 46.4104ZM226.335 44.6704C226.722 44.6704 226.988 44.5304 227.135 44.2504C227.295 43.9704 227.375 43.5971 227.375 43.1304V42.2504C227.375 41.7837 227.295 41.4104 227.135 41.1304C226.988 40.8504 226.722 40.7104 226.335 40.7104C225.948 40.7104 225.675 40.8504 225.515 41.1304C225.368 41.4104 225.295 41.7837 225.295 42.2504V43.1304C225.295 43.5971 225.368 43.9704 225.515 44.2504C225.675 44.5304 225.948 44.6704 226.335 44.6704ZM232.735 39.2104H234.995L231.975 45.2104H229.715L232.735 39.2104ZM226.095 47.1704H228.355L225.335 53.1704H223.075L226.095 47.1704ZM231.755 53.4104C230.755 53.4104 229.982 53.0837 229.435 52.4304C228.888 51.7637 228.615 50.8504 228.615 49.6904C228.615 48.5304 228.888 47.6237 229.435 46.9704C229.982 46.3037 230.755 45.9704 231.755 45.9704C232.755 45.9704 233.528 46.3037 234.075 46.9704C234.622 47.6237 234.895 48.5304 234.895 49.6904C234.895 50.8504 234.622 51.7637 234.075 52.4304C233.528 53.0837 232.755 53.4104 231.755 53.4104ZM231.755 51.6704C232.142 51.6704 232.408 51.5304 232.555 51.2504C232.715 50.9704 232.795 50.5971 232.795 50.1304V49.2504C232.795 48.7837 232.715 48.4104 232.555 48.1304C232.408 47.8504 232.142 47.7104 231.755 47.7104C231.368 47.7104 231.095 47.8504 230.935 48.1304C230.788 48.4104 230.715 48.7837 230.715 49.2504V50.1304C230.715 50.5971 230.788 50.9704 230.935 51.2504C231.095 51.5304 231.368 51.6704 231.755 51.6704ZM253.02 53.4104C251.153 53.4104 249.773 52.7771 248.88 51.5104C248 50.2437 247.56 48.4704 247.56 46.1904C247.56 43.9104 248 42.1371 248.88 40.8704C249.773 39.6037 251.153 38.9704 253.02 38.9704C254.886 38.9704 256.26 39.6037 257.14 40.8704C258.033 42.1371 258.48 43.9104 258.48 46.1904C258.48 48.4704 258.033 50.2437 257.14 51.5104C256.26 52.7771 254.886 53.4104 253.02 53.4104ZM253.02 50.9904C253.873 50.9904 254.46 50.6771 254.78 50.0504C255.113 49.4104 255.28 48.5237 255.28 47.3904V44.9704C255.28 43.8504 255.113 42.9771 254.78 42.3504C254.46 41.7104 253.873 41.3904 253.02 41.3904C252.166 41.3904 251.573 41.7104 251.24 42.3504C250.92 42.9771 250.76 43.8504 250.76 44.9704V47.4104C250.76 48.5304 250.92 49.4104 251.24 50.0504C251.573 50.6771 252.166 50.9904 253.02 50.9904ZM260.612 53.1704V39.2104H269.872V41.6704H263.612V44.8704H269.212V47.3304H263.612V53.1704H260.612ZM272.604 53.1704V39.2104H281.864V41.6704H275.604V44.8704H281.204V47.3304H275.604V53.1704H272.604ZM296.588 53.1704V39.2104H305.508V41.6704H299.588V44.8704H305.308V47.3304H299.588V50.7104H305.508V53.1704H296.588ZM310.98 43.8904H310.76V53.1704H308.2V39.2104H311.8L314.98 48.4904H315.2V39.2104H317.76V53.1704H314.16L310.98 43.8904ZM338.465 41.6704V53.1704H335.465V41.6704H331.445V39.2104H342.485V41.6704H338.465ZM347.057 39.2104V48.0504C347.057 48.4904 347.07 48.8971 347.097 49.2704C347.137 49.6304 347.217 49.9371 347.337 50.1904C347.47 50.4437 347.664 50.6437 347.917 50.7904C348.17 50.9237 348.517 50.9904 348.957 50.9904C349.397 50.9904 349.744 50.9237 349.997 50.7904C350.25 50.6437 350.437 50.4437 350.557 50.1904C350.69 49.9371 350.77 49.6304 350.797 49.2704C350.837 48.8971 350.857 48.4904 350.857 48.0504V39.2104H353.857V47.6504C353.857 48.6104 353.79 49.4504 353.657 50.1704C353.537 50.8904 353.297 51.4904 352.937 51.9704C352.577 52.4504 352.077 52.8104 351.437 53.0504C350.797 53.2904 349.97 53.4104 348.957 53.4104C347.944 53.4104 347.117 53.2904 346.477 53.0504C345.837 52.8104 345.337 52.4504 344.977 51.9704C344.617 51.4904 344.37 50.8904 344.237 50.1704C344.117 49.4504 344.057 48.6104 344.057 47.6504V39.2104H347.057ZM373.261 53.4104C371.395 53.4104 370.008 52.7837 369.101 51.5304C368.208 50.2637 367.761 48.4837 367.761 46.1904C367.761 43.8971 368.208 42.1237 369.101 40.8704C370.008 39.6037 371.395 38.9704 373.261 38.9704C373.981 38.9704 374.615 39.0704 375.161 39.2704C375.721 39.4571 376.201 39.7237 376.601 40.0704C377.001 40.4171 377.328 40.8371 377.581 41.3304C377.848 41.8237 378.055 42.3771 378.201 42.9904L375.401 43.6704C375.321 43.3371 375.228 43.0304 375.121 42.7504C375.015 42.4704 374.875 42.2304 374.701 42.0304C374.541 41.8304 374.335 41.6771 374.081 41.5704C373.841 41.4504 373.548 41.3904 373.201 41.3904C372.388 41.3904 371.808 41.7104 371.461 42.3504C371.128 42.9771 370.961 43.8504 370.961 44.9704V47.4104C370.961 48.5304 371.128 49.4104 371.461 50.0504C371.808 50.6771 372.388 50.9904 373.201 50.9904C373.895 50.9904 374.395 50.7771 374.701 50.3504C375.021 49.9237 375.255 49.3771 375.401 48.7104L378.201 49.3904C378.055 50.0037 377.848 50.5571 377.581 51.0504C377.328 51.5437 377.001 51.9704 376.601 52.3304C376.201 52.6771 375.721 52.9437 375.161 53.1304C374.615 53.3171 373.981 53.4104 373.261 53.4104ZM383.034 39.2104V48.0504C383.034 48.4904 383.047 48.8971 383.074 49.2704C383.114 49.6304 383.194 49.9371 383.314 50.1904C383.447 50.4437 383.64 50.6437 383.894 50.7904C384.147 50.9237 384.494 50.9904 384.934 50.9904C385.374 50.9904 385.72 50.9237 385.974 50.7904C386.227 50.6437 386.414 50.4437 386.534 50.1904C386.667 49.9371 386.747 49.6304 386.774 49.2704C386.814 48.8971 386.834 48.4904 386.834 48.0504V39.2104H389.834V47.6504C389.834 48.6104 389.767 49.4504 389.634 50.1704C389.514 50.8904 389.274 51.4904 388.914 51.9704C388.554 52.4504 388.054 52.8104 387.414 53.0504C386.774 53.2904 385.947 53.4104 384.934 53.4104C383.92 53.4104 383.094 53.2904 382.454 53.0504C381.814 52.8104 381.314 52.4504 380.954 51.9704C380.594 51.4904 380.347 50.8904 380.214 50.1704C380.094 49.4504 380.034 48.6104 380.034 47.6504V39.2104H383.034ZM396.926 53.4104C395.059 53.4104 393.679 52.7771 392.786 51.5104C391.906 50.2437 391.466 48.4704 391.466 46.1904C391.466 43.9104 391.906 42.1371 392.786 40.8704C393.679 39.6037 395.059 38.9704 396.926 38.9704C398.792 38.9704 400.166 39.6037 401.046 40.8704C401.939 42.1371 402.386 43.9104 402.386 46.1904C402.386 48.4704 401.939 50.2437 401.046 51.5104C400.166 52.7771 398.792 53.4104 396.926 53.4104ZM396.926 50.9904C397.779 50.9904 398.366 50.6771 398.686 50.0504C399.019 49.4104 399.186 48.5237 399.186 47.3904V44.9704C399.186 43.8504 399.019 42.9771 398.686 42.3504C398.366 41.7104 397.779 41.3904 396.926 41.3904C396.072 41.3904 395.479 41.7104 395.146 42.3504C394.826 42.9771 394.666 43.8504 394.666 44.9704V47.4104C394.666 48.5304 394.826 49.4104 395.146 50.0504C395.479 50.6771 396.072 50.9904 396.926 50.9904ZM410.418 41.6704V53.1704H407.418V41.6704H403.398V39.2104H414.438V41.6704H410.418ZM423.61 53.1704L422.73 49.8104H418.91L418.05 53.1704H415.01L418.79 39.2104H423.03L426.81 53.1704H423.61ZM420.91 42.1104H420.75L419.39 47.3904H422.27L420.91 42.1104ZM443.615 51.9304V48.2504H440.135V45.8904H443.615V42.2104H446.175V45.8904H449.655V48.2504H446.175V51.9304H443.615ZM78.1928 83.3704C77.1928 83.2904 76.3128 83.0704 75.5528 82.7104C74.8061 82.3371 74.1995 81.8504 73.7328 81.2504L75.4728 79.3504C75.8995 79.8037 76.3528 80.1571 76.8328 80.4104C77.3261 80.6637 77.8461 80.8304 78.3928 80.9104V77.2304L77.9328 77.1504C76.6528 76.9237 75.7061 76.4571 75.0928 75.7504C74.4795 75.0304 74.1728 74.1571 74.1728 73.1304C74.1728 71.9971 74.5195 71.0771 75.2128 70.3704C75.9061 69.6637 76.8995 69.2237 78.1928 69.0504V66.9504H80.4728V69.0304C81.3128 69.1371 82.0261 69.3504 82.6128 69.6704C83.2128 69.9904 83.7128 70.3837 84.1128 70.8504L82.3928 72.7704C81.8328 72.1571 81.1261 71.7571 80.2728 71.5704V74.9104L80.7328 74.9904C82.0128 75.2304 82.9595 75.6971 83.5728 76.3904C84.1861 77.0704 84.4928 77.9171 84.4928 78.9304C84.4928 79.4771 84.3995 79.9904 84.2128 80.4704C84.0395 80.9504 83.7795 81.3771 83.4328 81.7504C83.0995 82.1237 82.6795 82.4437 82.1728 82.7104C81.6795 82.9637 81.1128 83.1504 80.4728 83.2704V85.4304H78.1928V83.3704ZM76.9928 73.0304C76.9928 73.4571 77.0995 73.7837 77.3128 74.0104C77.5395 74.2237 77.8995 74.3971 78.3928 74.5304V71.5104C77.8995 71.5904 77.5395 71.7571 77.3128 72.0104C77.0995 72.2637 76.9928 72.6037 76.9928 73.0304ZM81.6928 79.1304C81.6928 78.6771 81.5795 78.3371 81.3528 78.1104C81.1261 77.8837 80.7661 77.7104 80.2728 77.5904V80.8904C80.7528 80.7837 81.1061 80.5837 81.3328 80.2904C81.5728 79.9837 81.6928 79.5971 81.6928 79.1304ZM103.897 83.1704V80.4904H97.6172V77.9304L103.177 69.2104H106.777V78.1704H108.577V80.4904H106.777V83.1704H103.897ZM100.037 78.1704H103.897V72.3104H103.717L100.037 78.1704ZM115.109 83.4104C114.269 83.4104 113.523 83.3104 112.869 83.1104C112.216 82.8971 111.663 82.6104 111.209 82.2504C110.756 81.8904 110.409 81.4637 110.169 80.9704C109.943 80.4637 109.829 79.9171 109.829 79.3304C109.829 78.4237 110.089 77.6971 110.609 77.1504C111.129 76.5904 111.796 76.1971 112.609 75.9704V75.8104C111.916 75.5571 111.349 75.1704 110.909 74.6504C110.469 74.1304 110.249 73.4637 110.249 72.6504C110.249 72.1171 110.356 71.6237 110.569 71.1704C110.783 70.7171 111.096 70.3304 111.509 70.0104C111.923 69.6771 112.429 69.4237 113.029 69.2504C113.629 69.0637 114.323 68.9704 115.109 68.9704C115.883 68.9704 116.569 69.0637 117.169 69.2504C117.783 69.4237 118.296 69.6771 118.709 70.0104C119.123 70.3304 119.436 70.7171 119.649 71.1704C119.863 71.6237 119.969 72.1171 119.969 72.6504C119.969 73.4637 119.749 74.1304 119.309 74.6504C118.869 75.1704 118.303 75.5571 117.609 75.8104V75.9704C118.423 76.1971 119.089 76.5904 119.609 77.1504C120.129 77.6971 120.389 78.4237 120.389 79.3304C120.389 79.9171 120.269 80.4637 120.029 80.9704C119.803 81.4637 119.463 81.8904 119.009 82.2504C118.556 82.6104 118.003 82.8971 117.349 83.1104C116.696 83.3104 115.949 83.4104 115.109 83.4104ZM115.109 81.1104C115.803 81.1104 116.329 80.9504 116.689 80.6304C117.063 80.3104 117.249 79.8771 117.249 79.3304V78.9304C117.249 78.3704 117.069 77.9371 116.709 77.6304C116.349 77.3104 115.816 77.1504 115.109 77.1504C114.403 77.1504 113.869 77.3104 113.509 77.6304C113.149 77.9371 112.969 78.3704 112.969 78.9304V79.3304C112.969 79.8771 113.149 80.3104 113.509 80.6304C113.883 80.9504 114.416 81.1104 115.109 81.1104ZM115.109 74.9504C115.776 74.9504 116.283 74.7971 116.629 74.4904C116.976 74.1837 117.149 73.7704 117.149 73.2504V72.9504C117.149 72.4304 116.969 72.0237 116.609 71.7304C116.263 71.4237 115.763 71.2704 115.109 71.2704C114.456 71.2704 113.949 71.4237 113.589 71.7304C113.243 72.0237 113.069 72.4304 113.069 72.9504V73.2504C113.069 73.7704 113.243 74.1837 113.589 74.4904C113.936 74.7971 114.443 74.9504 115.109 74.9504ZM127.102 83.4104C126.355 83.4104 125.815 83.2504 125.482 82.9304C125.162 82.5971 125.002 82.2037 125.002 81.7504V81.0504C125.002 80.5971 125.162 80.2104 125.482 79.8904C125.815 79.5571 126.355 79.3904 127.102 79.3904C127.848 79.3904 128.382 79.5571 128.702 79.8904C129.035 80.2104 129.202 80.5971 129.202 81.0504V81.7504C129.202 82.2037 129.035 82.5971 128.702 82.9304C128.382 83.2504 127.848 83.4104 127.102 83.4104ZM139.094 83.4104C137.227 83.4104 135.847 82.7771 134.954 81.5104C134.074 80.2437 133.634 78.4704 133.634 76.1904C133.634 73.9104 134.074 72.1371 134.954 70.8704C135.847 69.6037 137.227 68.9704 139.094 68.9704C140.96 68.9704 142.334 69.6037 143.214 70.8704C144.107 72.1371 144.554 73.9104 144.554 76.1904C144.554 78.4704 144.107 80.2437 143.214 81.5104C142.334 82.7771 140.96 83.4104 139.094 83.4104ZM139.094 81.0504C139.987 81.0504 140.607 80.7371 140.954 80.1104C141.314 79.4837 141.494 78.6104 141.494 77.4904V74.8904C141.494 73.7704 141.314 72.8971 140.954 72.2704C140.607 71.6437 139.987 71.3304 139.094 71.3304C138.2 71.3304 137.574 71.6437 137.214 72.2704C136.867 72.8971 136.694 73.7704 136.694 74.8904V77.4904C136.694 78.6104 136.867 79.4837 137.214 80.1104C137.574 80.7371 138.2 81.0504 139.094 81.0504ZM139.094 77.3704C138.627 77.3704 138.3 77.2771 138.114 77.0904C137.94 76.9037 137.854 76.6771 137.854 76.4104V75.9704C137.854 75.7037 137.94 75.4771 138.114 75.2904C138.3 75.1037 138.627 75.0104 139.094 75.0104C139.56 75.0104 139.88 75.1037 140.054 75.2904C140.24 75.4771 140.334 75.7037 140.334 75.9704V76.4104C140.334 76.6771 140.24 76.9037 140.054 77.0904C139.88 77.2771 139.56 77.3704 139.094 77.3704ZM151.086 83.4104C149.219 83.4104 147.839 82.7771 146.946 81.5104C146.066 80.2437 145.626 78.4704 145.626 76.1904C145.626 73.9104 146.066 72.1371 146.946 70.8704C147.839 69.6037 149.219 68.9704 151.086 68.9704C152.953 68.9704 154.326 69.6037 155.206 70.8704C156.099 72.1371 156.546 73.9104 156.546 76.1904C156.546 78.4704 156.099 80.2437 155.206 81.5104C154.326 82.7771 152.953 83.4104 151.086 83.4104ZM151.086 81.0504C151.979 81.0504 152.599 80.7371 152.946 80.1104C153.306 79.4837 153.486 78.6104 153.486 77.4904V74.8904C153.486 73.7704 153.306 72.8971 152.946 72.2704C152.599 71.6437 151.979 71.3304 151.086 71.3304C150.193 71.3304 149.566 71.6437 149.206 72.2704C148.859 72.8971 148.686 73.7704 148.686 74.8904V77.4904C148.686 78.6104 148.859 79.4837 149.206 80.1104C149.566 80.7371 150.193 81.0504 151.086 81.0504ZM151.086 77.3704C150.619 77.3704 150.293 77.2771 150.106 77.0904C149.933 76.9037 149.846 76.6771 149.846 76.4104V75.9704C149.846 75.7037 149.933 75.4771 150.106 75.2904C150.293 75.1037 150.619 75.0104 151.086 75.0104C151.553 75.0104 151.873 75.1037 152.046 75.2904C152.233 75.4771 152.326 75.7037 152.326 75.9704V76.4104C152.326 76.6771 152.233 76.9037 152.046 77.0904C151.873 77.2771 151.553 77.3704 151.086 77.3704ZM163.078 83.4104C161.211 83.4104 159.831 82.7771 158.938 81.5104C158.058 80.2437 157.618 78.4704 157.618 76.1904C157.618 73.9104 158.058 72.1371 158.938 70.8704C159.831 69.6037 161.211 68.9704 163.078 68.9704C164.945 68.9704 166.318 69.6037 167.198 70.8704C168.091 72.1371 168.538 73.9104 168.538 76.1904C168.538 78.4704 168.091 80.2437 167.198 81.5104C166.318 82.7771 164.945 83.4104 163.078 83.4104ZM163.078 81.0504C163.971 81.0504 164.591 80.7371 164.938 80.1104C165.298 79.4837 165.478 78.6104 165.478 77.4904V74.8904C165.478 73.7704 165.298 72.8971 164.938 72.2704C164.591 71.6437 163.971 71.3304 163.078 71.3304C162.185 71.3304 161.558 71.6437 161.198 72.2704C160.851 72.8971 160.678 73.7704 160.678 74.8904V77.4904C160.678 78.6104 160.851 79.4837 161.198 80.1104C161.558 80.7371 162.185 81.0504 163.078 81.0504ZM163.078 77.3704C162.611 77.3704 162.285 77.2771 162.098 77.0904C161.925 76.9037 161.838 76.6771 161.838 76.4104V75.9704C161.838 75.7037 161.925 75.4771 162.098 75.2904C162.285 75.1037 162.611 75.0104 163.078 75.0104C163.545 75.0104 163.865 75.1037 164.038 75.2904C164.225 75.4771 164.318 75.7037 164.318 75.9704V76.4104C164.318 76.6771 164.225 76.9037 164.038 77.0904C163.865 77.2771 163.545 77.3704 163.078 77.3704ZM182.663 83.1704V69.2104H191.583V71.6704H185.663V74.8704H191.383V77.3304H185.663V80.7104H191.583V83.1704H182.663ZM197.055 73.8904H196.835V83.1704H194.275V69.2104H197.875L201.055 78.4904H201.275V69.2104H203.835V83.1704H200.235L197.055 73.8904ZM220.919 83.1704L217.219 69.2104H220.559L222.199 76.3104L223.019 80.3304H223.179L224.019 76.3104L225.679 69.2104H228.859L225.159 83.1704H220.919ZM237.731 83.1704L236.851 79.8104H233.031L232.171 83.1704H229.131L232.911 69.2104H237.151L240.931 83.1704H237.731ZM235.031 72.1104H234.871L233.511 77.3904H236.391L235.031 72.1104ZM242.863 83.1704V69.2104H245.883V80.7104H251.883V83.1704H242.863ZM254.616 83.1704V69.2104H263.536V71.6704H257.616V74.8704H263.336V77.3304H257.616V80.7104H263.536V83.1704H254.616ZM270.788 83.4104C269.614 83.4104 268.594 83.2171 267.728 82.8304C266.861 82.4437 266.161 81.9171 265.628 81.2504L267.368 79.3304C267.874 79.8904 268.428 80.3037 269.028 80.5704C269.641 80.8371 270.261 80.9704 270.888 80.9704C271.608 80.9704 272.154 80.8104 272.528 80.4904C272.901 80.1704 273.088 79.7104 273.088 79.1104C273.088 78.6171 272.941 78.2437 272.648 77.9904C272.368 77.7371 271.888 77.5571 271.208 77.4504L269.748 77.2104C268.494 76.9971 267.588 76.5371 267.028 75.8304C266.468 75.1104 266.188 74.2371 266.188 73.2104C266.188 71.8637 266.628 70.8237 267.508 70.0904C268.388 69.3437 269.621 68.9704 271.208 68.9704C272.288 68.9704 273.228 69.1371 274.028 69.4704C274.828 69.8037 275.474 70.2571 275.968 70.8304L274.268 72.7304C273.894 72.3171 273.454 71.9971 272.948 71.7704C272.441 71.5304 271.868 71.4104 271.228 71.4104C269.881 71.4104 269.208 71.9637 269.208 73.0704C269.208 73.5504 269.354 73.9104 269.648 74.1504C269.954 74.3904 270.448 74.5704 271.128 74.6904L272.588 74.9504C273.721 75.1504 274.594 75.5771 275.208 76.2304C275.821 76.8837 276.128 77.7637 276.128 78.8704C276.128 79.5237 276.014 80.1304 275.788 80.6904C275.561 81.2371 275.221 81.7171 274.768 82.1304C274.314 82.5304 273.754 82.8437 273.088 83.0704C272.434 83.2971 271.668 83.4104 270.788 83.4104ZM290.272 69.2104H294.772C296.652 69.2104 298.046 69.8104 298.952 71.0104C299.859 72.2104 300.312 73.9371 300.312 76.1904C300.312 78.4437 299.859 80.1704 298.952 81.3704C298.046 82.5704 296.652 83.1704 294.772 83.1704H290.272V69.2104ZM294.572 80.8104C295.466 80.8104 296.119 80.5237 296.532 79.9504C296.946 79.3771 297.152 78.5437 297.152 77.4504V74.9104C297.152 73.8304 296.946 73.0037 296.532 72.4304C296.119 71.8571 295.466 71.5704 294.572 71.5704H293.232V80.8104H294.572ZM302.584 83.1704V69.2104H311.504V71.6704H305.584V74.8704H311.304V77.3304H305.584V80.7104H311.504V83.1704H302.584ZM331.289 83.4104C329.422 83.4104 328.035 82.7837 327.129 81.5304C326.235 80.2637 325.789 78.4837 325.789 76.1904C325.789 73.8971 326.235 72.1237 327.129 70.8704C328.035 69.6037 329.422 68.9704 331.289 68.9704C332.009 68.9704 332.642 69.0704 333.189 69.2704C333.749 69.4571 334.229 69.7237 334.629 70.0704C335.029 70.4171 335.355 70.8371 335.609 71.3304C335.875 71.8237 336.082 72.3771 336.229 72.9904L333.429 73.6704C333.349 73.3371 333.255 73.0304 333.149 72.7504C333.042 72.4704 332.902 72.2304 332.729 72.0304C332.569 71.8304 332.362 71.6771 332.109 71.5704C331.869 71.4504 331.575 71.3904 331.229 71.3904C330.415 71.3904 329.835 71.7104 329.489 72.3504C329.155 72.9771 328.989 73.8504 328.989 74.9704V77.4104C328.989 78.5304 329.155 79.4104 329.489 80.0504C329.835 80.6771 330.415 80.9904 331.229 80.9904C331.922 80.9904 332.422 80.7771 332.729 80.3504C333.049 79.9237 333.282 79.3771 333.429 78.7104L336.229 79.3904C336.082 80.0037 335.875 80.5571 335.609 81.0504C335.355 81.5437 335.029 81.9704 334.629 82.3304C334.229 82.6771 333.749 82.9437 333.189 83.1304C332.642 83.3171 332.009 83.4104 331.289 83.4104ZM342.961 83.4104C341.094 83.4104 339.714 82.7771 338.821 81.5104C337.941 80.2437 337.501 78.4704 337.501 76.1904C337.501 73.9104 337.941 72.1371 338.821 70.8704C339.714 69.6037 341.094 68.9704 342.961 68.9704C344.828 68.9704 346.201 69.6037 347.081 70.8704C347.974 72.1371 348.421 73.9104 348.421 76.1904C348.421 78.4704 347.974 80.2437 347.081 81.5104C346.201 82.7771 344.828 83.4104 342.961 83.4104ZM342.961 80.9904C343.814 80.9904 344.401 80.6771 344.721 80.0504C345.054 79.4104 345.221 78.5237 345.221 77.3904V74.9704C345.221 73.8504 345.054 72.9771 344.721 72.3504C344.401 71.7104 343.814 71.3904 342.961 71.3904C342.108 71.3904 341.514 71.7104 341.181 72.3504C340.861 72.9771 340.701 73.8504 340.701 74.9704V77.4104C340.701 78.5304 340.861 79.4104 341.181 80.0504C341.514 80.6771 342.108 80.9904 342.961 80.9904ZM357.573 76.9504L357.733 73.0504H357.553L354.953 80.2304L352.353 73.0504H352.173L352.333 76.9504V83.1704H349.733V69.2104H353.273L354.993 73.9104H355.153L356.873 69.2104H360.173V83.1704H357.573V76.9504ZM362.485 69.2104H367.385C368.759 69.2104 369.805 69.5437 370.525 70.2104C371.259 70.8771 371.625 71.7837 371.625 72.9304C371.625 73.7304 371.425 74.3704 371.025 74.8504C370.639 75.3171 370.079 75.6571 369.345 75.8704V75.9904C370.212 76.2037 370.879 76.5771 371.345 77.1104C371.825 77.6437 372.065 78.3837 372.065 79.3304C372.065 80.5037 371.692 81.4371 370.945 82.1304C370.212 82.8237 369.179 83.1704 367.845 83.1704H362.485V69.2104ZM366.925 81.0704C367.645 81.0704 368.172 80.9504 368.505 80.7104C368.839 80.4704 369.005 80.0304 369.005 79.3904V78.8104C369.005 78.1704 368.839 77.7304 368.505 77.4904C368.172 77.2504 367.645 77.1304 366.925 77.1304H365.405V81.0704H366.925ZM366.545 75.1304C367.252 75.1304 367.765 75.0171 368.085 74.7904C368.405 74.5504 368.565 74.1237 368.565 73.5104V72.9104C368.565 72.2971 368.405 71.8771 368.085 71.6504C367.765 71.4237 367.252 71.3104 366.545 71.3104H365.405V75.1304H366.545ZM377.038 69.2104V78.0504C377.038 78.4904 377.051 78.8971 377.078 79.2704C377.118 79.6304 377.198 79.9371 377.318 80.1904C377.451 80.4437 377.644 80.6437 377.898 80.7904C378.151 80.9237 378.498 80.9904 378.938 80.9904C379.378 80.9904 379.724 80.9237 379.978 80.7904C380.231 80.6437 380.418 80.4437 380.538 80.1904C380.671 79.9371 380.751 79.6304 380.778 79.2704C380.818 78.8971 380.838 78.4904 380.838 78.0504V69.2104H383.838V77.6504C383.838 78.6104 383.771 79.4504 383.638 80.1704C383.518 80.8904 383.278 81.4904 382.918 81.9704C382.558 82.4504 382.058 82.8104 381.418 83.0504C380.778 83.2904 379.951 83.4104 378.938 83.4104C377.924 83.4104 377.098 83.2904 376.458 83.0504C375.818 82.8104 375.318 82.4504 374.958 81.9704C374.598 81.4904 374.351 80.8904 374.218 80.1704C374.098 79.4504 374.038 78.6104 374.038 77.6504V69.2104H377.038ZM390.71 83.4104C389.536 83.4104 388.516 83.2171 387.65 82.8304C386.783 82.4437 386.083 81.9171 385.55 81.2504L387.29 79.3304C387.796 79.8904 388.35 80.3037 388.95 80.5704C389.563 80.8371 390.183 80.9704 390.81 80.9704C391.53 80.9704 392.076 80.8104 392.45 80.4904C392.823 80.1704 393.01 79.7104 393.01 79.1104C393.01 78.6171 392.863 78.2437 392.57 77.9904C392.29 77.7371 391.81 77.5571 391.13 77.4504L389.67 77.2104C388.416 76.9971 387.51 76.5371 386.95 75.8304C386.39 75.1104 386.11 74.2371 386.11 73.2104C386.11 71.8637 386.55 70.8237 387.43 70.0904C388.31 69.3437 389.543 68.9704 391.13 68.9704C392.21 68.9704 393.15 69.1371 393.95 69.4704C394.75 69.8037 395.396 70.2571 395.89 70.8304L394.19 72.7304C393.816 72.3171 393.376 71.9971 392.87 71.7704C392.363 71.5304 391.79 71.4104 391.15 71.4104C389.803 71.4104 389.13 71.9637 389.13 73.0704C389.13 73.5504 389.276 73.9104 389.57 74.1504C389.876 74.3904 390.37 74.5704 391.05 74.6904L392.51 74.9504C393.643 75.1504 394.516 75.5771 395.13 76.2304C395.743 76.8837 396.05 77.7637 396.05 78.8704C396.05 79.5237 395.936 80.1304 395.71 80.6904C395.483 81.2371 395.143 81.7171 394.69 82.1304C394.236 82.5304 393.676 82.8437 393.01 83.0704C392.356 83.2971 391.59 83.4104 390.71 83.4104ZM404.422 71.6704V83.1704H401.422V71.6704H397.402V69.2104H408.442V71.6704H404.422ZM410.414 83.1704V80.9504H413.414V71.4304H410.414V69.2104H419.414V71.4304H416.414V80.9504H419.414V83.1704H410.414ZM422.446 69.2104H427.346C428.72 69.2104 429.766 69.5437 430.486 70.2104C431.22 70.8771 431.586 71.7837 431.586 72.9304C431.586 73.7304 431.386 74.3704 430.986 74.8504C430.6 75.3171 430.04 75.6571 429.306 75.8704V75.9904C430.173 76.2037 430.84 76.5771 431.306 77.1104C431.786 77.6437 432.026 78.3837 432.026 79.3304C432.026 80.5037 431.653 81.4371 430.906 82.1304C430.173 82.8237 429.14 83.1704 427.806 83.1704H422.446V69.2104ZM426.886 81.0704C427.606 81.0704 428.133 80.9504 428.466 80.7104C428.8 80.4704 428.966 80.0304 428.966 79.3904V78.8104C428.966 78.1704 428.8 77.7304 428.466 77.4904C428.133 77.2504 427.606 77.1304 426.886 77.1304H425.366V81.0704H426.886ZM426.506 75.1304C427.213 75.1304 427.726 75.0171 428.046 74.7904C428.366 74.5504 428.526 74.1237 428.526 73.5104V72.9104C428.526 72.2971 428.366 71.8771 428.046 71.6504C427.726 71.4237 427.213 71.3104 426.506 71.3104H425.366V75.1304H426.506ZM434.738 83.1704V69.2104H437.758V80.7104H443.758V83.1704H434.738ZM446.491 83.1704V69.2104H455.411V71.6704H449.491V74.8704H455.211V77.3304H449.491V80.7104H455.411V83.1704H446.491ZM473.595 81.9304V78.2504H470.115V75.8904H473.595V72.2104H476.155V75.8904H479.635V78.2504H476.155V81.9304H473.595ZM24.2719 113.17H14.2319V110.43L18.6319 106.77C19.3919 106.117 19.9385 105.55 20.2719 105.07C20.6052 104.59 20.7719 104.084 20.7719 103.55V103.35C20.7719 102.764 20.5985 102.324 20.2519 102.03C19.9052 101.724 19.4385 101.57 18.8519 101.57C18.1852 101.57 17.6719 101.764 17.3119 102.15C16.9519 102.537 16.6985 102.997 16.5519 103.53L13.9319 102.53C14.0919 102.05 14.3119 101.597 14.5919 101.17C14.8719 100.73 15.2252 100.35 15.6519 100.03C16.0919 99.7104 16.5985 99.4571 17.1719 99.2704C17.7452 99.0704 18.4052 98.9704 19.1519 98.9704C19.9119 98.9704 20.5919 99.0771 21.1919 99.2904C21.7919 99.5037 22.2985 99.7971 22.7119 100.17C23.1252 100.544 23.4385 100.99 23.6519 101.51C23.8652 102.017 23.9719 102.57 23.9719 103.17C23.9719 103.757 23.8719 104.297 23.6719 104.79C23.4852 105.27 23.2185 105.724 22.8719 106.15C22.5385 106.577 22.1385 106.99 21.6719 107.39C21.2185 107.79 20.7319 108.19 20.2119 108.59L17.5519 110.65H24.2719V113.17ZM35.6641 101.83H29.2041L28.8841 106.25H29.0641C29.2107 105.93 29.3774 105.637 29.5641 105.37C29.7507 105.09 29.9707 104.857 30.2241 104.67C30.4774 104.47 30.7707 104.317 31.1041 104.21C31.4374 104.104 31.8174 104.05 32.2441 104.05C32.8174 104.05 33.3574 104.15 33.8641 104.35C34.3841 104.55 34.8374 104.844 35.2241 105.23C35.6241 105.604 35.9374 106.07 36.1641 106.63C36.3907 107.177 36.5041 107.797 36.5041 108.49C36.5041 109.197 36.3841 109.85 36.1441 110.45C35.9041 111.05 35.5507 111.57 35.0841 112.01C34.6307 112.45 34.0641 112.797 33.3841 113.05C32.7041 113.29 31.9307 113.41 31.0641 113.41C30.3841 113.41 29.7774 113.337 29.2441 113.19C28.7107 113.044 28.2374 112.85 27.8241 112.61C27.4241 112.357 27.0707 112.07 26.7641 111.75C26.4707 111.417 26.2174 111.077 26.0041 110.73L28.1841 109.01C28.3441 109.277 28.5107 109.53 28.6841 109.77C28.8707 110.01 29.0774 110.224 29.3041 110.41C29.5441 110.584 29.8041 110.724 30.0841 110.83C30.3774 110.924 30.7107 110.97 31.0841 110.97C31.8307 110.97 32.3907 110.77 32.7641 110.37C33.1507 109.957 33.3441 109.41 33.3441 108.73V108.57C33.3441 107.917 33.1507 107.404 32.7641 107.03C32.3774 106.657 31.8441 106.47 31.1641 106.47C30.6041 106.47 30.1374 106.584 29.7641 106.81C29.4041 107.024 29.1307 107.237 28.9441 107.45L26.4841 107.11L27.0041 99.2104H35.6641V101.83ZM40.4563 106.41C39.4563 106.41 38.6829 106.084 38.1363 105.43C37.5896 104.764 37.3163 103.85 37.3163 102.69C37.3163 101.53 37.5896 100.624 38.1363 99.9704C38.6829 99.3037 39.4563 98.9704 40.4563 98.9704C41.4563 98.9704 42.2296 99.3037 42.7763 99.9704C43.3229 100.624 43.5963 101.53 43.5963 102.69C43.5963 103.85 43.3229 104.764 42.7763 105.43C42.2296 106.084 41.4563 106.41 40.4563 106.41ZM40.4563 104.67C40.8429 104.67 41.1096 104.53 41.2563 104.25C41.4163 103.97 41.4963 103.597 41.4963 103.13V102.25C41.4963 101.784 41.4163 101.41 41.2563 101.13C41.1096 100.85 40.8429 100.71 40.4563 100.71C40.0696 100.71 39.7963 100.85 39.6363 101.13C39.4896 101.41 39.4163 101.784 39.4163 102.25V103.13C39.4163 103.597 39.4896 103.97 39.6363 104.25C39.7963 104.53 40.0696 104.67 40.4563 104.67ZM46.8563 99.2104H49.1163L46.0963 105.21H43.8363L46.8563 99.2104ZM40.2163 107.17H42.4763L39.4563 113.17H37.1963L40.2163 107.17ZM45.8763 113.41C44.8763 113.41 44.1029 113.084 43.5563 112.43C43.0096 111.764 42.7363 110.85 42.7363 109.69C42.7363 108.53 43.0096 107.624 43.5563 106.97C44.1029 106.304 44.8763 105.97 45.8763 105.97C46.8763 105.97 47.6496 106.304 48.1963 106.97C48.7429 107.624 49.0163 108.53 49.0163 109.69C49.0163 110.85 48.7429 111.764 48.1963 112.43C47.6496 113.084 46.8763 113.41 45.8763 113.41ZM45.8763 111.67C46.2629 111.67 46.5296 111.53 46.6763 111.25C46.8363 110.97 46.9163 110.597 46.9163 110.13V109.25C46.9163 108.784 46.8363 108.41 46.6763 108.13C46.5296 107.85 46.2629 107.71 45.8763 107.71C45.4896 107.71 45.2163 107.85 45.0563 108.13C44.9096 108.41 44.8363 108.784 44.8363 109.25V110.13C44.8363 110.597 44.9096 110.97 45.0563 111.25C45.2163 111.53 45.4896 111.67 45.8763 111.67ZM67.1406 113.41C65.274 113.41 63.894 112.777 63.0006 111.51C62.1206 110.244 61.6806 108.47 61.6806 106.19C61.6806 103.91 62.1206 102.137 63.0006 100.87C63.894 99.6037 65.274 98.9704 67.1406 98.9704C69.0073 98.9704 70.3806 99.6037 71.2606 100.87C72.154 102.137 72.6006 103.91 72.6006 106.19C72.6006 108.47 72.154 110.244 71.2606 111.51C70.3806 112.777 69.0073 113.41 67.1406 113.41ZM67.1406 110.99C67.994 110.99 68.5806 110.677 68.9006 110.05C69.234 109.41 69.4006 108.524 69.4006 107.39V104.97C69.4006 103.85 69.234 102.977 68.9006 102.35C68.5806 101.71 67.994 101.39 67.1406 101.39C66.2873 101.39 65.694 101.71 65.3606 102.35C65.0406 102.977 64.8806 103.85 64.8806 104.97V107.41C64.8806 108.53 65.0406 109.41 65.3606 110.05C65.694 110.677 66.2873 110.99 67.1406 110.99ZM74.7328 113.17V99.2104H83.9928V101.67H77.7328V104.87H83.3328V107.33H77.7328V113.17H74.7328ZM86.725 113.17V99.2104H95.985V101.67H89.725V104.87H95.325V107.33H89.725V113.17H86.725ZM117.809 113.17L116.929 109.81H113.109L112.249 113.17H109.209L112.989 99.2104H117.229L121.009 113.17H117.809ZM115.109 102.11H114.949L113.589 107.39H116.469L115.109 102.11ZM122.382 99.2104H126.882C128.762 99.2104 130.155 99.8104 131.062 101.01C131.968 102.21 132.422 103.937 132.422 106.19C132.422 108.444 131.968 110.17 131.062 111.37C130.155 112.57 128.762 113.17 126.882 113.17H122.382V99.2104ZM126.682 110.81C127.575 110.81 128.228 110.524 128.642 109.95C129.055 109.377 129.262 108.544 129.262 107.45V104.91C129.262 103.83 129.055 103.004 128.642 102.43C128.228 101.857 127.575 101.57 126.682 101.57H125.342V110.81H126.682ZM134.594 113.17V110.95H137.594V101.43H134.594V99.2104H143.594V101.43H140.594V110.95H143.594V113.17H134.594ZM151.406 113.41C149.539 113.41 148.153 112.784 147.246 111.53C146.353 110.264 145.906 108.484 145.906 106.19C145.906 103.897 146.353 102.124 147.246 100.87C148.153 99.6037 149.539 98.9704 151.406 98.9704C152.126 98.9704 152.759 99.0704 153.306 99.2704C153.866 99.4571 154.346 99.7237 154.746 100.07C155.146 100.417 155.473 100.837 155.726 101.33C155.993 101.824 156.199 102.377 156.346 102.99L153.546 103.67C153.466 103.337 153.373 103.03 153.266 102.75C153.159 102.47 153.019 102.23 152.846 102.03C152.686 101.83 152.479 101.677 152.226 101.57C151.986 101.45 151.693 101.39 151.346 101.39C150.533 101.39 149.953 101.71 149.606 102.35C149.273 102.977 149.106 103.85 149.106 104.97V107.41C149.106 108.53 149.273 109.41 149.606 110.05C149.953 110.677 150.533 110.99 151.346 110.99C152.039 110.99 152.539 110.777 152.846 110.35C153.166 109.924 153.399 109.377 153.546 108.71L156.346 109.39C156.199 110.004 155.993 110.557 155.726 111.05C155.473 111.544 155.146 111.97 154.746 112.33C154.346 112.677 153.866 112.944 153.306 113.13C152.759 113.317 152.126 113.41 151.406 113.41ZM158.578 113.17V110.95H161.578V101.43H158.578V99.2104H167.578V101.43H164.578V110.95H167.578V113.17H158.578ZM175.07 113.41C173.204 113.41 171.824 112.777 170.93 111.51C170.05 110.244 169.61 108.47 169.61 106.19C169.61 103.91 170.05 102.137 170.93 100.87C171.824 99.6037 173.204 98.9704 175.07 98.9704C176.937 98.9704 178.31 99.6037 179.19 100.87C180.084 102.137 180.53 103.91 180.53 106.19C180.53 108.47 180.084 110.244 179.19 111.51C178.31 112.777 176.937 113.41 175.07 113.41ZM175.07 110.99C175.924 110.99 176.51 110.677 176.83 110.05C177.164 109.41 177.33 108.524 177.33 107.39V104.97C177.33 103.85 177.164 102.977 176.83 102.35C176.51 101.71 175.924 101.39 175.07 101.39C174.217 101.39 173.624 101.71 173.29 102.35C172.97 102.977 172.81 103.85 172.81 104.97V107.41C172.81 108.53 172.97 109.41 173.29 110.05C173.624 110.677 174.217 110.99 175.07 110.99ZM185.063 103.89H184.843V113.17H182.283V99.2104H185.883L189.063 108.49H189.283V99.2104H191.843V113.17H188.243L185.063 103.89ZM201.755 113.17L200.875 109.81H197.055L196.195 113.17H193.155L196.935 99.2104H201.175L204.955 113.17H201.755ZM199.055 102.11H198.895L197.535 107.39H200.415L199.055 102.11ZM206.887 113.17V99.2104H209.907V110.71H215.907V113.17H206.887ZM240.851 113.17H237.431L235.991 110.39L235.011 108.19H234.831L233.831 110.39L232.351 113.17H229.211L233.131 105.95L229.471 99.2104H232.891L234.031 101.43L235.051 103.67H235.211L236.251 101.43L237.451 99.2104H240.591L236.931 105.99L240.851 113.17ZM259.096 113.41C258.256 113.41 257.502 113.284 256.836 113.03C256.182 112.764 255.629 112.39 255.176 111.91C254.722 111.417 254.376 110.83 254.136 110.15C253.896 109.47 253.776 108.71 253.776 107.87C253.776 106.897 253.929 105.977 254.236 105.11C254.542 104.23 254.936 103.424 255.416 102.69C255.909 101.944 256.456 101.277 257.056 100.69C257.669 100.104 258.276 99.6104 258.876 99.2104H263.016C262.149 99.8104 261.369 100.39 260.676 100.95C259.996 101.497 259.396 102.05 258.876 102.61C258.369 103.157 257.949 103.724 257.616 104.31C257.296 104.897 257.062 105.53 256.916 106.21L257.096 106.27C257.216 106.004 257.362 105.744 257.536 105.49C257.709 105.237 257.922 105.017 258.176 104.83C258.429 104.63 258.722 104.47 259.056 104.35C259.402 104.23 259.802 104.17 260.256 104.17C260.842 104.17 261.389 104.277 261.896 104.49C262.402 104.69 262.836 104.984 263.196 105.37C263.569 105.744 263.862 106.197 264.076 106.73C264.289 107.264 264.396 107.864 264.396 108.53C264.396 109.237 264.269 109.89 264.016 110.49C263.762 111.09 263.402 111.61 262.936 112.05C262.482 112.477 261.929 112.81 261.276 113.05C260.622 113.29 259.896 113.41 259.096 113.41ZM259.076 111.07C259.796 111.07 260.342 110.884 260.716 110.51C261.089 110.124 261.276 109.584 261.276 108.89V108.61C261.276 107.917 261.082 107.39 260.696 107.03C260.322 106.657 259.782 106.47 259.076 106.47C258.396 106.47 257.862 106.657 257.476 107.03C257.089 107.39 256.896 107.917 256.896 108.61V108.89C256.896 109.584 257.076 110.124 257.436 110.51C257.809 110.884 258.356 111.07 259.076 111.07ZM285.62 106.95L285.78 103.05H285.6L283 110.23L280.4 103.05H280.22L280.38 106.95V113.17H277.78V99.2104H281.32L283.04 103.91H283.2L284.92 99.2104H288.22V113.17H285.62V106.95ZM290.592 113.17V99.2104H299.512V101.67H293.592V104.87H299.312V107.33H293.592V110.71H299.512V113.17H290.592ZM306.764 113.41C305.591 113.41 304.571 113.217 303.704 112.83C302.838 112.444 302.138 111.917 301.604 111.25L303.344 109.33C303.851 109.89 304.404 110.304 305.004 110.57C305.618 110.837 306.238 110.97 306.864 110.97C307.584 110.97 308.131 110.81 308.504 110.49C308.878 110.17 309.064 109.71 309.064 109.11C309.064 108.617 308.918 108.244 308.624 107.99C308.344 107.737 307.864 107.557 307.184 107.45L305.724 107.21C304.471 106.997 303.564 106.537 303.004 105.83C302.444 105.11 302.164 104.237 302.164 103.21C302.164 101.864 302.604 100.824 303.484 100.09C304.364 99.3437 305.598 98.9704 307.184 98.9704C308.264 98.9704 309.204 99.1371 310.004 99.4704C310.804 99.8037 311.451 100.257 311.944 100.83L310.244 102.73C309.871 102.317 309.431 101.997 308.924 101.77C308.418 101.53 307.844 101.41 307.204 101.41C305.858 101.41 305.184 101.964 305.184 103.07C305.184 103.55 305.331 103.91 305.624 104.15C305.931 104.39 306.424 104.57 307.104 104.69L308.564 104.95C309.698 105.15 310.571 105.577 311.184 106.23C311.798 106.884 312.104 107.764 312.104 108.87C312.104 109.524 311.991 110.13 311.764 110.69C311.538 111.237 311.198 111.717 310.744 112.13C310.291 112.53 309.731 112.844 309.064 113.07C308.411 113.297 307.644 113.41 306.764 113.41ZM314.577 113.17V99.2104H323.497V101.67H317.577V104.87H323.297V107.33H317.577V110.71H323.497V113.17H314.577ZM330.749 113.41C329.575 113.41 328.555 113.217 327.689 112.83C326.822 112.444 326.122 111.917 325.589 111.25L327.329 109.33C327.835 109.89 328.389 110.304 328.989 110.57C329.602 110.837 330.222 110.97 330.849 110.97C331.569 110.97 332.115 110.81 332.489 110.49C332.862 110.17 333.049 109.71 333.049 109.11C333.049 108.617 332.902 108.244 332.609 107.99C332.329 107.737 331.849 107.557 331.169 107.45L329.709 107.21C328.455 106.997 327.549 106.537 326.989 105.83C326.429 105.11 326.149 104.237 326.149 103.21C326.149 101.864 326.589 100.824 327.469 100.09C328.349 99.3437 329.582 98.9704 331.169 98.9704C332.249 98.9704 333.189 99.1371 333.989 99.4704C334.789 99.8037 335.435 100.257 335.929 100.83L334.229 102.73C333.855 102.317 333.415 101.997 332.909 101.77C332.402 101.53 331.829 101.41 331.189 101.41C329.842 101.41 329.169 101.964 329.169 103.07C329.169 103.55 329.315 103.91 329.609 104.15C329.915 104.39 330.409 104.57 331.089 104.69L332.549 104.95C333.682 105.15 334.555 105.577 335.169 106.23C335.782 106.884 336.089 107.764 336.089 108.87C336.089 109.524 335.975 110.13 335.749 110.69C335.522 111.237 335.182 111.717 334.729 112.13C334.275 112.53 333.715 112.844 333.049 113.07C332.395 113.297 331.629 113.41 330.749 113.41ZM350.553 113.17V99.2104H359.473V101.67H353.553V104.87H359.273V107.33H353.553V110.71H359.473V113.17H350.553ZM364.945 103.89H364.725V113.17H362.165V99.2104H365.765L368.945 108.49H369.165V99.2104H371.725V113.17H368.125L364.945 103.89ZM392.43 101.67V113.17H389.43V101.67H385.41V99.2104H396.45V101.67H392.43ZM401.022 99.2104V108.05C401.022 108.49 401.035 108.897 401.062 109.27C401.102 109.63 401.182 109.937 401.302 110.19C401.435 110.444 401.629 110.644 401.882 110.79C402.135 110.924 402.482 110.99 402.922 110.99C403.362 110.99 403.709 110.924 403.962 110.79C404.215 110.644 404.402 110.444 404.522 110.19C404.655 109.937 404.735 109.63 404.762 109.27C404.802 108.897 404.822 108.49 404.822 108.05V99.2104H407.822V107.65C407.822 108.61 407.755 109.45 407.622 110.17C407.502 110.89 407.262 111.49 406.902 111.97C406.542 112.45 406.042 112.81 405.402 113.05C404.762 113.29 403.935 113.41 402.922 113.41C401.909 113.41 401.082 113.29 400.442 113.05C399.802 112.81 399.302 112.45 398.942 111.97C398.582 111.49 398.335 110.89 398.202 110.17C398.082 109.45 398.022 108.61 398.022 107.65V99.2104H401.022ZM429.526 106.95L429.686 103.05H429.506L426.906 110.23L424.306 103.05H424.126L424.286 106.95V113.17H421.686V99.2104H425.226L426.946 103.91H427.106L428.826 99.2104H432.126V113.17H429.526V106.95ZM434.498 113.17V99.2104H443.418V101.67H437.498V104.87H443.218V107.33H437.498V110.71H443.418V113.17H434.498ZM453.511 106.95L453.671 103.05H453.491L450.891 110.23L448.291 103.05H448.111L448.271 106.95V113.17H445.671V99.2104H449.211L450.931 103.91H451.091L452.811 99.2104H456.111V113.17H453.511V106.95ZM458.423 99.2104H463.323C464.696 99.2104 465.743 99.5437 466.463 100.21C467.196 100.877 467.563 101.784 467.563 102.93C467.563 103.73 467.363 104.37 466.963 104.85C466.576 105.317 466.016 105.657 465.283 105.87V105.99C466.149 106.204 466.816 106.577 467.283 107.11C467.763 107.644 468.003 108.384 468.003 109.33C468.003 110.504 467.629 111.437 466.883 112.13C466.149 112.824 465.116 113.17 463.783 113.17H458.423V99.2104ZM462.863 111.07C463.583 111.07 464.109 110.95 464.443 110.71C464.776 110.47 464.943 110.03 464.943 109.39V108.81C464.943 108.17 464.776 107.73 464.443 107.49C464.109 107.25 463.583 107.13 462.863 107.13H461.343V111.07H462.863ZM462.483 105.13C463.189 105.13 463.703 105.017 464.023 104.79C464.343 104.55 464.503 104.124 464.503 103.51V102.91C464.503 102.297 464.343 101.877 464.023 101.65C463.703 101.424 463.189 101.31 462.483 101.31H461.343V105.13H462.483ZM473.355 113.17H470.395V99.2104H475.795C476.475 99.2104 477.082 99.3171 477.615 99.5304C478.148 99.7304 478.595 100.024 478.955 100.41C479.328 100.797 479.608 101.264 479.795 101.81C479.982 102.357 480.075 102.97 480.075 103.65C480.075 104.637 479.862 105.484 479.435 106.19C479.008 106.897 478.402 107.364 477.615 107.59L480.355 113.17H477.075L474.735 107.99H473.355V113.17ZM475.075 105.67C475.782 105.67 476.268 105.537 476.535 105.27C476.815 105.004 476.955 104.564 476.955 103.95V103.35C476.955 102.737 476.815 102.297 476.535 102.03C476.268 101.764 475.782 101.63 475.075 101.63H473.355V105.67H475.075ZM482.467 113.17V99.2104H491.387V101.67H485.467V104.87H491.187V107.33H485.467V110.71H491.387V113.17H482.467ZM498.639 113.41C497.466 113.41 496.446 113.217 495.579 112.83C494.713 112.444 494.013 111.917 493.479 111.25L495.219 109.33C495.726 109.89 496.279 110.304 496.879 110.57C497.493 110.837 498.113 110.97 498.739 110.97C499.459 110.97 500.006 110.81 500.379 110.49C500.753 110.17 500.939 109.71 500.939 109.11C500.939 108.617 500.793 108.244 500.499 107.99C500.219 107.737 499.739 107.557 499.059 107.45L497.599 107.21C496.346 106.997 495.439 106.537 494.879 105.83C494.319 105.11 494.039 104.237 494.039 103.21C494.039 101.864 494.479 100.824 495.359 100.09C496.239 99.3437 497.473 98.9704 499.059 98.9704C500.139 98.9704 501.079 99.1371 501.879 99.4704C502.679 99.8037 503.326 100.257 503.819 100.83L502.119 102.73C501.746 102.317 501.306 101.997 500.799 101.77C500.293 101.53 499.719 101.41 499.079 101.41C497.733 101.41 497.059 101.964 497.059 103.07C497.059 103.55 497.206 103.91 497.499 104.15C497.806 104.39 498.299 104.57 498.979 104.69L500.439 104.95C501.573 105.15 502.446 105.577 503.059 106.23C503.673 106.884 503.979 107.764 503.979 108.87C503.979 109.524 503.866 110.13 503.639 110.69C503.413 111.237 503.073 111.717 502.619 112.13C502.166 112.53 501.606 112.844 500.939 113.07C500.286 113.297 499.519 113.41 498.639 113.41ZM506.352 113.17V110.95H509.352V101.43H506.352V99.2104H515.352V101.43H512.352V110.95H515.352V113.17H506.352ZM511.172 98.3704L509.412 97.5104L511.392 93.6304L513.852 94.8504L511.172 98.3704ZM525.544 113.17L524.664 109.81H520.844L519.984 113.17H516.944L520.724 99.2104H524.964L528.744 113.17H525.544ZM522.844 102.11H522.684L521.324 107.39H524.204L522.844 102.11ZM534.836 113.41C534.089 113.41 533.549 113.25 533.216 112.93C532.896 112.597 532.736 112.204 532.736 111.75V111.05C532.736 110.597 532.896 110.21 533.216 109.89C533.549 109.557 534.089 109.39 534.836 109.39C535.583 109.39 536.116 109.557 536.436 109.89C536.769 110.21 536.936 110.597 536.936 111.05V111.75C536.936 112.204 536.769 112.597 536.436 112.93C536.116 113.25 535.583 113.41 534.836 113.41Z" fill="white" fill-opacity="0.8"/>
<path d="M52.9772 18.7465L43.7738 1.07616C43.0265 -0.358682 40.9735 -0.358682 40.2262 1.07616L31.0228 18.7465C30.3294 20.078 31.2954 21.6704 32.7967 21.6704L42 21.6704L51.2033 21.6704C52.7046 21.6704 53.6706 20.078 52.9772 18.7465Z" fill="#E3322D"/>
</svg>
