<svg width="429" height="105" viewBox="0 0 429 105" fill="none" xmlns="http://www.w3.org/2000/svg">
<rect width="429" height="89" rx="18" fill="#E3322D"/>
<path d="M22.7521 88.904L30.3191 103.433C30.9335 104.612 32.6215 104.612 33.236 103.433L40.8029 88.904C41.3731 87.8093 40.5788 86.5 39.3445 86.5L31.7775 86.5L24.2105 86.5C22.9762 86.5 22.1819 87.8093 22.7521 88.904Z" fill="#E3322D"/>
<path d="M92.677 20.67C93.257 20.67 93.677 20.56 93.937 20.34C94.207 20.12 94.342 19.85 94.342 19.53V19.425C94.342 19.045 94.212 18.745 93.952 18.525C93.702 18.295 93.342 18.18 92.872 18.18C92.442 18.18 92.037 18.29 91.657 18.51C91.287 18.72 90.972 19.025 90.712 19.425L89.287 18.105C89.487 17.845 89.707 17.61 89.947 17.4C90.187 17.18 90.452 16.995 90.742 16.845C91.032 16.685 91.357 16.565 91.717 16.485C92.087 16.395 92.502 16.35 92.962 16.35C93.532 16.35 94.047 16.415 94.507 16.545C94.967 16.675 95.357 16.865 95.677 17.115C96.007 17.355 96.262 17.645 96.442 17.985C96.622 18.325 96.712 18.705 96.712 19.125C96.712 19.455 96.657 19.755 96.547 20.025C96.437 20.295 96.287 20.53 96.097 20.73C95.917 20.93 95.702 21.095 95.452 21.225C95.212 21.345 94.952 21.43 94.672 21.48V21.57C95.312 21.68 95.842 21.95 96.262 22.38C96.692 22.8 96.907 23.37 96.907 24.09C96.907 24.56 96.807 24.985 96.607 25.365C96.417 25.745 96.142 26.07 95.782 26.34C95.432 26.61 95.002 26.82 94.492 26.97C93.992 27.11 93.432 27.18 92.812 27.18C92.282 27.18 91.812 27.125 91.402 27.015C91.002 26.905 90.647 26.76 90.337 26.58C90.027 26.39 89.757 26.175 89.527 25.935C89.307 25.685 89.112 25.43 88.942 25.17L90.607 23.88C90.837 24.31 91.122 24.665 91.462 24.945C91.812 25.215 92.277 25.35 92.857 25.35C93.397 25.35 93.812 25.225 94.102 24.975C94.392 24.725 94.537 24.38 94.537 23.94V23.835C94.537 23.405 94.372 23.085 94.042 22.875C93.712 22.655 93.252 22.545 92.662 22.545H91.687V20.67H92.677ZM106.441 27H103.876L102.796 24.915L102.061 23.265H101.926L101.176 24.915L100.066 27H97.7112L100.651 21.585L97.9062 16.53H100.471L101.326 18.195L102.091 19.875H102.211L102.991 18.195L103.891 16.53H106.246L103.501 21.615L106.441 27ZM114.445 18.495H109.6L109.36 21.81H109.495C109.605 21.57 109.73 21.35 109.87 21.15C110.01 20.94 110.175 20.765 110.365 20.625C110.555 20.475 110.775 20.36 111.025 20.28C111.275 20.2 111.56 20.16 111.88 20.16C112.31 20.16 112.715 20.235 113.095 20.385C113.485 20.535 113.825 20.755 114.115 21.045C114.415 21.325 114.65 21.675 114.82 22.095C114.99 22.505 115.075 22.97 115.075 23.49C115.075 24.02 114.985 24.51 114.805 24.96C114.625 25.41 114.36 25.8 114.01 26.13C113.67 26.46 113.245 26.72 112.735 26.91C112.225 27.09 111.645 27.18 110.995 27.18C110.485 27.18 110.03 27.125 109.63 27.015C109.23 26.905 108.875 26.76 108.565 26.58C108.265 26.39 108 26.175 107.77 25.935C107.55 25.685 107.36 25.43 107.2 25.17L108.835 23.88C108.955 24.08 109.08 24.27 109.21 24.45C109.35 24.63 109.505 24.79 109.675 24.93C109.855 25.06 110.05 25.165 110.26 25.245C110.48 25.315 110.73 25.35 111.01 25.35C111.57 25.35 111.99 25.2 112.27 24.9C112.56 24.59 112.705 24.18 112.705 23.67V23.55C112.705 23.06 112.56 22.675 112.27 22.395C111.98 22.115 111.58 21.975 111.07 21.975C110.65 21.975 110.3 22.06 110.02 22.23C109.75 22.39 109.545 22.55 109.405 22.71L107.56 22.455L107.95 16.53H114.445V18.495ZM120.064 27.18C118.664 27.18 117.629 26.705 116.959 25.755C116.299 24.805 115.969 23.475 115.969 21.765C115.969 20.055 116.299 18.725 116.959 17.775C117.629 16.825 118.664 16.35 120.064 16.35C121.464 16.35 122.494 16.825 123.154 17.775C123.824 18.725 124.159 20.055 124.159 21.765C124.159 23.475 123.824 24.805 123.154 25.755C122.494 26.705 121.464 27.18 120.064 27.18ZM120.064 25.41C120.734 25.41 121.199 25.175 121.459 24.705C121.729 24.235 121.864 23.58 121.864 22.74V20.79C121.864 19.95 121.729 19.295 121.459 18.825C121.199 18.355 120.734 18.12 120.064 18.12C119.394 18.12 118.924 18.355 118.654 18.825C118.394 19.295 118.264 19.95 118.264 20.79V22.74C118.264 23.58 118.394 24.235 118.654 24.705C118.924 25.175 119.394 25.41 120.064 25.41ZM120.064 22.65C119.714 22.65 119.469 22.58 119.329 22.44C119.199 22.3 119.134 22.13 119.134 21.93V21.6C119.134 21.4 119.199 21.23 119.329 21.09C119.469 20.95 119.714 20.88 120.064 20.88C120.414 20.88 120.654 20.95 120.784 21.09C120.924 21.23 120.994 21.4 120.994 21.6V21.93C120.994 22.13 120.924 22.3 120.784 22.44C120.654 22.58 120.414 22.65 120.064 22.65ZM127.034 21.93C126.284 21.93 125.704 21.685 125.294 21.195C124.884 20.695 124.679 20.01 124.679 19.14C124.679 18.27 124.884 17.59 125.294 17.1C125.704 16.6 126.284 16.35 127.034 16.35C127.784 16.35 128.364 16.6 128.774 17.1C129.184 17.59 129.389 18.27 129.389 19.14C129.389 20.01 129.184 20.695 128.774 21.195C128.364 21.685 127.784 21.93 127.034 21.93ZM127.034 20.625C127.324 20.625 127.524 20.52 127.634 20.31C127.754 20.1 127.814 19.82 127.814 19.47V18.81C127.814 18.46 127.754 18.18 127.634 17.97C127.524 17.76 127.324 17.655 127.034 17.655C126.744 17.655 126.539 17.76 126.419 17.97C126.309 18.18 126.254 18.46 126.254 18.81V19.47C126.254 19.82 126.309 20.1 126.419 20.31C126.539 20.52 126.744 20.625 127.034 20.625ZM131.834 16.53H133.529L131.264 21.03H129.569L131.834 16.53ZM126.854 22.5H128.549L126.284 27H124.589L126.854 22.5ZM131.099 27.18C130.349 27.18 129.769 26.935 129.359 26.445C128.949 25.945 128.744 25.26 128.744 24.39C128.744 23.52 128.949 22.84 129.359 22.35C129.769 21.85 130.349 21.6 131.099 21.6C131.849 21.6 132.429 21.85 132.839 22.35C133.249 22.84 133.454 23.52 133.454 24.39C133.454 25.26 133.249 25.945 132.839 26.445C132.429 26.935 131.849 27.18 131.099 27.18ZM131.099 25.875C131.389 25.875 131.589 25.77 131.699 25.56C131.819 25.35 131.879 25.07 131.879 24.72V24.06C131.879 23.71 131.819 23.43 131.699 23.22C131.589 23.01 131.389 22.905 131.099 22.905C130.809 22.905 130.604 23.01 130.484 23.22C130.374 23.43 130.319 23.71 130.319 24.06V24.72C130.319 25.07 130.374 25.35 130.484 25.56C130.604 25.77 130.809 25.875 131.099 25.875ZM147.047 27.18C145.647 27.18 144.612 26.705 143.942 25.755C143.282 24.805 142.952 23.475 142.952 21.765C142.952 20.055 143.282 18.725 143.942 17.775C144.612 16.825 145.647 16.35 147.047 16.35C148.447 16.35 149.477 16.825 150.137 17.775C150.807 18.725 151.142 20.055 151.142 21.765C151.142 23.475 150.807 24.805 150.137 25.755C149.477 26.705 148.447 27.18 147.047 27.18ZM147.047 25.365C147.687 25.365 148.127 25.13 148.367 24.66C148.617 24.18 148.742 23.515 148.742 22.665V20.85C148.742 20.01 148.617 19.355 148.367 18.885C148.127 18.405 147.687 18.165 147.047 18.165C146.407 18.165 145.962 18.405 145.712 18.885C145.472 19.355 145.352 20.01 145.352 20.85V22.68C145.352 23.52 145.472 24.18 145.712 24.66C145.962 25.13 146.407 25.365 147.047 25.365ZM152.741 27V16.53H159.686V18.375H154.991V20.775H159.191V22.62H154.991V27H152.741ZM161.735 27V16.53H168.68V18.375H163.985V20.775H168.185V22.62H163.985V27H161.735ZM179.723 27V16.53H186.413V18.375H181.973V20.775H186.263V22.62H181.973V25.155H186.413V27H179.723ZM190.518 20.04H190.353V27H188.433V16.53H191.133L193.518 23.49H193.683V16.53H195.603V27H192.903L190.518 20.04ZM211.131 18.375V27H208.881V18.375H205.866V16.53H214.146V18.375H211.131ZM217.575 16.53V23.16C217.575 23.49 217.585 23.795 217.605 24.075C217.635 24.345 217.695 24.575 217.785 24.765C217.885 24.955 218.03 25.105 218.22 25.215C218.41 25.315 218.67 25.365 219 25.365C219.33 25.365 219.59 25.315 219.78 25.215C219.97 25.105 220.11 24.955 220.2 24.765C220.3 24.575 220.36 24.345 220.38 24.075C220.41 23.795 220.425 23.49 220.425 23.16V16.53H222.675V22.86C222.675 23.58 222.625 24.21 222.525 24.75C222.435 25.29 222.255 25.74 221.985 26.1C221.715 26.46 221.34 26.73 220.86 26.91C220.38 27.09 219.76 27.18 219 27.18C218.24 27.18 217.62 27.09 217.14 26.91C216.66 26.73 216.285 26.46 216.015 26.1C215.745 25.74 215.56 25.29 215.46 24.75C215.37 24.21 215.325 23.58 215.325 22.86V16.53H217.575ZM237.228 27.18C235.828 27.18 234.788 26.71 234.108 25.77C233.438 24.82 233.103 23.485 233.103 21.765C233.103 20.045 233.438 18.715 234.108 17.775C234.788 16.825 235.828 16.35 237.228 16.35C237.768 16.35 238.243 16.425 238.653 16.575C239.073 16.715 239.433 16.915 239.733 17.175C240.033 17.435 240.278 17.75 240.468 18.12C240.668 18.49 240.823 18.905 240.933 19.365L238.833 19.875C238.773 19.625 238.703 19.395 238.623 19.185C238.543 18.975 238.438 18.795 238.308 18.645C238.188 18.495 238.033 18.38 237.843 18.3C237.663 18.21 237.443 18.165 237.183 18.165C236.573 18.165 236.138 18.405 235.878 18.885C235.628 19.355 235.503 20.01 235.503 20.85V22.68C235.503 23.52 235.628 24.18 235.878 24.66C236.138 25.13 236.573 25.365 237.183 25.365C237.703 25.365 238.078 25.205 238.308 24.885C238.548 24.565 238.723 24.155 238.833 23.655L240.933 24.165C240.823 24.625 240.668 25.04 240.468 25.41C240.278 25.78 240.033 26.1 239.733 26.37C239.433 26.63 239.073 26.83 238.653 26.97C238.243 27.11 237.768 27.18 237.228 27.18ZM244.557 16.53V23.16C244.557 23.49 244.567 23.795 244.587 24.075C244.617 24.345 244.677 24.575 244.767 24.765C244.867 24.955 245.012 25.105 245.202 25.215C245.392 25.315 245.652 25.365 245.982 25.365C246.312 25.365 246.572 25.315 246.762 25.215C246.952 25.105 247.092 24.955 247.182 24.765C247.282 24.575 247.342 24.345 247.362 24.075C247.392 23.795 247.407 23.49 247.407 23.16V16.53H249.657V22.86C249.657 23.58 249.607 24.21 249.507 24.75C249.417 25.29 249.237 25.74 248.967 26.1C248.697 26.46 248.322 26.73 247.842 26.91C247.362 27.09 246.742 27.18 245.982 27.18C245.222 27.18 244.602 27.09 244.122 26.91C243.642 26.73 243.267 26.46 242.997 26.1C242.727 25.74 242.542 25.29 242.442 24.75C242.352 24.21 242.307 23.58 242.307 22.86V16.53H244.557ZM254.977 27.18C253.577 27.18 252.542 26.705 251.872 25.755C251.212 24.805 250.882 23.475 250.882 21.765C250.882 20.055 251.212 18.725 251.872 17.775C252.542 16.825 253.577 16.35 254.977 16.35C256.377 16.35 257.407 16.825 258.067 17.775C258.737 18.725 259.072 20.055 259.072 21.765C259.072 23.475 258.737 24.805 258.067 25.755C257.407 26.705 256.377 27.18 254.977 27.18ZM254.977 25.365C255.617 25.365 256.057 25.13 256.297 24.66C256.547 24.18 256.672 23.515 256.672 22.665V20.85C256.672 20.01 256.547 19.355 256.297 18.885C256.057 18.405 255.617 18.165 254.977 18.165C254.337 18.165 253.892 18.405 253.642 18.885C253.402 19.355 253.282 20.01 253.282 20.85V22.68C253.282 23.52 253.402 24.18 253.642 24.66C253.892 25.13 254.337 25.365 254.977 25.365ZM265.096 18.375V27H262.846V18.375H259.831V16.53H268.111V18.375H265.096ZM274.99 27L274.33 24.48H271.465L270.82 27H268.54L271.375 16.53H274.555L277.39 27H274.99ZM272.965 18.705H272.845L271.825 22.665H273.985L272.965 18.705ZM290.788 27.18C289.908 27.18 289.143 27.035 288.493 26.745C287.843 26.455 287.318 26.06 286.918 25.56L288.223 24.12C288.603 24.54 289.018 24.85 289.468 25.05C289.928 25.25 290.393 25.35 290.863 25.35C291.403 25.35 291.813 25.23 292.093 24.99C292.373 24.75 292.513 24.405 292.513 23.955C292.513 23.585 292.403 23.305 292.183 23.115C291.973 22.925 291.613 22.79 291.103 22.71L290.008 22.53C289.068 22.37 288.388 22.025 287.968 21.495C287.548 20.955 287.338 20.3 287.338 19.53C287.338 18.52 287.668 17.74 288.328 17.19C288.988 16.63 289.913 16.35 291.103 16.35C291.913 16.35 292.618 16.475 293.218 16.725C293.818 16.975 294.303 17.315 294.673 17.745L293.398 19.17C293.118 18.86 292.788 18.62 292.408 18.45C292.028 18.27 291.598 18.18 291.118 18.18C290.108 18.18 289.603 18.595 289.603 19.425C289.603 19.785 289.713 20.055 289.933 20.235C290.163 20.415 290.533 20.55 291.043 20.64L292.138 20.835C292.988 20.985 293.643 21.305 294.103 21.795C294.563 22.285 294.793 22.945 294.793 23.775C294.793 24.265 294.708 24.72 294.538 25.14C294.368 25.55 294.113 25.91 293.773 26.22C293.433 26.52 293.013 26.755 292.513 26.925C292.023 27.095 291.448 27.18 290.788 27.18ZM299.947 27.18C298.547 27.18 297.512 26.705 296.842 25.755C296.182 24.805 295.852 23.475 295.852 21.765C295.852 20.055 296.182 18.725 296.842 17.775C297.512 16.825 298.547 16.35 299.947 16.35C301.347 16.35 302.377 16.825 303.037 17.775C303.707 18.725 304.042 20.055 304.042 21.765C304.042 23.475 303.707 24.805 303.037 25.755C302.377 26.705 301.347 27.18 299.947 27.18ZM299.947 25.365C300.587 25.365 301.027 25.13 301.267 24.66C301.517 24.18 301.642 23.515 301.642 22.665V20.85C301.642 20.01 301.517 19.355 301.267 18.885C301.027 18.405 300.587 18.165 299.947 18.165C299.307 18.165 298.862 18.405 298.612 18.885C298.372 19.355 298.252 20.01 298.252 20.85V22.68C298.252 23.52 298.372 24.18 298.612 24.66C298.862 25.13 299.307 25.365 299.947 25.365ZM309.181 27.18C307.781 27.18 306.741 26.71 306.061 25.77C305.391 24.82 305.056 23.485 305.056 21.765C305.056 20.045 305.391 18.715 306.061 17.775C306.741 16.825 307.781 16.35 309.181 16.35C309.721 16.35 310.196 16.425 310.606 16.575C311.026 16.715 311.386 16.915 311.686 17.175C311.986 17.435 312.231 17.75 312.421 18.12C312.621 18.49 312.776 18.905 312.886 19.365L310.786 19.875C310.726 19.625 310.656 19.395 310.576 19.185C310.496 18.975 310.391 18.795 310.261 18.645C310.141 18.495 309.986 18.38 309.796 18.3C309.616 18.21 309.396 18.165 309.136 18.165C308.526 18.165 308.091 18.405 307.831 18.885C307.581 19.355 307.456 20.01 307.456 20.85V22.68C307.456 23.52 307.581 24.18 307.831 24.66C308.091 25.13 308.526 25.365 309.136 25.365C309.656 25.365 310.031 25.205 310.261 24.885C310.501 24.565 310.676 24.155 310.786 23.655L312.886 24.165C312.776 24.625 312.621 25.04 312.421 25.41C312.231 25.78 311.986 26.1 311.686 26.37C311.386 26.63 311.026 26.83 310.606 26.97C310.196 27.11 309.721 27.18 309.181 27.18ZM314.561 27V25.335H316.811V18.195H314.561V16.53H321.311V18.195H319.061V25.335H321.311V27H314.561ZM328.955 27L328.295 24.48H325.43L324.785 27H322.505L325.34 16.53H328.52L331.355 27H328.955ZM326.93 18.705H326.81L325.79 22.665H327.95L326.93 18.705ZM332.804 27V16.53H335.069V25.155H339.569V27H332.804ZM114.862 50.15C114.112 50.09 113.452 49.925 112.882 49.655C112.322 49.375 111.867 49.01 111.517 48.56L112.822 47.135C113.142 47.475 113.482 47.74 113.842 47.93C114.212 48.12 114.602 48.245 115.012 48.305V45.545L114.667 45.485C113.707 45.315 112.997 44.965 112.537 44.435C112.077 43.895 111.847 43.24 111.847 42.47C111.847 41.62 112.107 40.93 112.627 40.4C113.147 39.87 113.892 39.54 114.862 39.41V37.835H116.572V39.395C117.202 39.475 117.737 39.635 118.177 39.875C118.627 40.115 119.002 40.41 119.302 40.76L118.012 42.2C117.592 41.74 117.062 41.44 116.422 41.3V43.805L116.767 43.865C117.727 44.045 118.437 44.395 118.897 44.915C119.357 45.425 119.587 46.06 119.587 46.82C119.587 47.23 119.517 47.615 119.377 47.975C119.247 48.335 119.052 48.655 118.792 48.935C118.542 49.215 118.227 49.455 117.847 49.655C117.477 49.845 117.052 49.985 116.572 50.075V51.695H114.862V50.15ZM113.962 42.395C113.962 42.715 114.042 42.96 114.202 43.13C114.372 43.29 114.642 43.42 115.012 43.52V41.255C114.642 41.315 114.372 41.44 114.202 41.63C114.042 41.82 113.962 42.075 113.962 42.395ZM117.487 46.97C117.487 46.63 117.402 46.375 117.232 46.205C117.062 46.035 116.792 45.905 116.422 45.815V48.29C116.782 48.21 117.047 48.06 117.217 47.84C117.397 47.61 117.487 47.32 117.487 46.97ZM134.141 50V47.99H129.431V46.07L133.601 39.53H136.301V46.25H137.651V47.99H136.301V50H134.141ZM131.246 46.25H134.141V41.855H134.006L131.246 46.25ZM142.55 50.18C141.92 50.18 141.36 50.105 140.87 49.955C140.38 49.795 139.965 49.58 139.625 49.31C139.285 49.04 139.025 48.72 138.845 48.35C138.675 47.97 138.59 47.56 138.59 47.12C138.59 46.44 138.785 45.895 139.175 45.485C139.565 45.065 140.065 44.77 140.675 44.6V44.48C140.155 44.29 139.73 44 139.4 43.61C139.07 43.22 138.905 42.72 138.905 42.11C138.905 41.71 138.985 41.34 139.145 41C139.305 40.66 139.54 40.37 139.85 40.13C140.16 39.88 140.54 39.69 140.99 39.56C141.44 39.42 141.96 39.35 142.55 39.35C143.13 39.35 143.645 39.42 144.095 39.56C144.555 39.69 144.94 39.88 145.25 40.13C145.56 40.37 145.795 40.66 145.955 41C146.115 41.34 146.195 41.71 146.195 42.11C146.195 42.72 146.03 43.22 145.7 43.61C145.37 44 144.945 44.29 144.425 44.48V44.6C145.035 44.77 145.535 45.065 145.925 45.485C146.315 45.895 146.51 46.44 146.51 47.12C146.51 47.56 146.42 47.97 146.24 48.35C146.07 48.72 145.815 49.04 145.475 49.31C145.135 49.58 144.72 49.795 144.23 49.955C143.74 50.105 143.18 50.18 142.55 50.18ZM142.55 48.455C143.07 48.455 143.465 48.335 143.735 48.095C144.015 47.855 144.155 47.53 144.155 47.12V46.82C144.155 46.4 144.02 46.075 143.75 45.845C143.48 45.605 143.08 45.485 142.55 45.485C142.02 45.485 141.62 45.605 141.35 45.845C141.08 46.075 140.945 46.4 140.945 46.82V47.12C140.945 47.53 141.08 47.855 141.35 48.095C141.63 48.335 142.03 48.455 142.55 48.455ZM142.55 43.835C143.05 43.835 143.43 43.72 143.69 43.49C143.95 43.26 144.08 42.95 144.08 42.56V42.335C144.08 41.945 143.945 41.64 143.675 41.42C143.415 41.19 143.04 41.075 142.55 41.075C142.06 41.075 141.68 41.19 141.41 41.42C141.15 41.64 141.02 41.945 141.02 42.335V42.56C141.02 42.95 141.15 43.26 141.41 43.49C141.67 43.72 142.05 43.835 142.55 43.835ZM151.544 50.18C150.984 50.18 150.579 50.06 150.329 49.82C150.089 49.57 149.969 49.275 149.969 48.935V48.41C149.969 48.07 150.089 47.78 150.329 47.54C150.579 47.29 150.984 47.165 151.544 47.165C152.104 47.165 152.504 47.29 152.744 47.54C152.994 47.78 153.119 48.07 153.119 48.41V48.935C153.119 49.275 152.994 49.57 152.744 49.82C152.504 50.06 152.104 50.18 151.544 50.18ZM160.538 50.18C159.138 50.18 158.103 49.705 157.433 48.755C156.773 47.805 156.443 46.475 156.443 44.765C156.443 43.055 156.773 41.725 157.433 40.775C158.103 39.825 159.138 39.35 160.538 39.35C161.938 39.35 162.968 39.825 163.628 40.775C164.298 41.725 164.633 43.055 164.633 44.765C164.633 46.475 164.298 47.805 163.628 48.755C162.968 49.705 161.938 50.18 160.538 50.18ZM160.538 48.41C161.208 48.41 161.673 48.175 161.933 47.705C162.203 47.235 162.338 46.58 162.338 45.74V43.79C162.338 42.95 162.203 42.295 161.933 41.825C161.673 41.355 161.208 41.12 160.538 41.12C159.868 41.12 159.398 41.355 159.128 41.825C158.868 42.295 158.738 42.95 158.738 43.79V45.74C158.738 46.58 158.868 47.235 159.128 47.705C159.398 48.175 159.868 48.41 160.538 48.41ZM160.538 45.65C160.188 45.65 159.943 45.58 159.803 45.44C159.673 45.3 159.608 45.13 159.608 44.93V44.6C159.608 44.4 159.673 44.23 159.803 44.09C159.943 43.95 160.188 43.88 160.538 43.88C160.888 43.88 161.128 43.95 161.258 44.09C161.398 44.23 161.468 44.4 161.468 44.6V44.93C161.468 45.13 161.398 45.3 161.258 45.44C161.128 45.58 160.888 45.65 160.538 45.65ZM169.532 50.18C168.132 50.18 167.097 49.705 166.427 48.755C165.767 47.805 165.437 46.475 165.437 44.765C165.437 43.055 165.767 41.725 166.427 40.775C167.097 39.825 168.132 39.35 169.532 39.35C170.932 39.35 171.962 39.825 172.622 40.775C173.292 41.725 173.627 43.055 173.627 44.765C173.627 46.475 173.292 47.805 172.622 48.755C171.962 49.705 170.932 50.18 169.532 50.18ZM169.532 48.41C170.202 48.41 170.667 48.175 170.927 47.705C171.197 47.235 171.332 46.58 171.332 45.74V43.79C171.332 42.95 171.197 42.295 170.927 41.825C170.667 41.355 170.202 41.12 169.532 41.12C168.862 41.12 168.392 41.355 168.122 41.825C167.862 42.295 167.732 42.95 167.732 43.79V45.74C167.732 46.58 167.862 47.235 168.122 47.705C168.392 48.175 168.862 48.41 169.532 48.41ZM169.532 45.65C169.182 45.65 168.937 45.58 168.797 45.44C168.667 45.3 168.602 45.13 168.602 44.93V44.6C168.602 44.4 168.667 44.23 168.797 44.09C168.937 43.95 169.182 43.88 169.532 43.88C169.882 43.88 170.122 43.95 170.252 44.09C170.392 44.23 170.462 44.4 170.462 44.6V44.93C170.462 45.13 170.392 45.3 170.252 45.44C170.122 45.58 169.882 45.65 169.532 45.65ZM178.526 50.18C177.126 50.18 176.091 49.705 175.421 48.755C174.761 47.805 174.431 46.475 174.431 44.765C174.431 43.055 174.761 41.725 175.421 40.775C176.091 39.825 177.126 39.35 178.526 39.35C179.926 39.35 180.956 39.825 181.616 40.775C182.286 41.725 182.621 43.055 182.621 44.765C182.621 46.475 182.286 47.805 181.616 48.755C180.956 49.705 179.926 50.18 178.526 50.18ZM178.526 48.41C179.196 48.41 179.661 48.175 179.921 47.705C180.191 47.235 180.326 46.58 180.326 45.74V43.79C180.326 42.95 180.191 42.295 179.921 41.825C179.661 41.355 179.196 41.12 178.526 41.12C177.856 41.12 177.386 41.355 177.116 41.825C176.856 42.295 176.726 42.95 176.726 43.79V45.74C176.726 46.58 176.856 47.235 177.116 47.705C177.386 48.175 177.856 48.41 178.526 48.41ZM178.526 45.65C178.176 45.65 177.931 45.58 177.791 45.44C177.661 45.3 177.596 45.13 177.596 44.93V44.6C177.596 44.4 177.661 44.23 177.791 44.09C177.931 43.95 178.176 43.88 178.526 43.88C178.876 43.88 179.116 43.95 179.246 44.09C179.386 44.23 179.456 44.4 179.456 44.6V44.93C179.456 45.13 179.386 45.3 179.246 45.44C179.116 45.58 178.876 45.65 178.526 45.65ZM193.215 50V39.53H199.905V41.375H195.465V43.775H199.755V45.62H195.465V48.155H199.905V50H193.215ZM204.009 43.04H203.844V50H201.924V39.53H204.624L207.009 46.49H207.174V39.53H209.094V50H206.394L204.009 43.04ZM223.737 50.18C222.337 50.18 221.297 49.71 220.617 48.77C219.947 47.82 219.612 46.485 219.612 44.765C219.612 43.045 219.947 41.715 220.617 40.775C221.297 39.825 222.337 39.35 223.737 39.35C224.277 39.35 224.752 39.425 225.162 39.575C225.582 39.715 225.942 39.915 226.242 40.175C226.542 40.435 226.787 40.75 226.977 41.12C227.177 41.49 227.332 41.905 227.442 42.365L225.342 42.875C225.282 42.625 225.212 42.395 225.132 42.185C225.052 41.975 224.947 41.795 224.817 41.645C224.697 41.495 224.542 41.38 224.352 41.3C224.172 41.21 223.952 41.165 223.692 41.165C223.082 41.165 222.647 41.405 222.387 41.885C222.137 42.355 222.012 43.01 222.012 43.85V45.68C222.012 46.52 222.137 47.18 222.387 47.66C222.647 48.13 223.082 48.365 223.692 48.365C224.212 48.365 224.587 48.205 224.817 47.885C225.057 47.565 225.232 47.155 225.342 46.655L227.442 47.165C227.332 47.625 227.177 48.04 226.977 48.41C226.787 48.78 226.542 49.1 226.242 49.37C225.942 49.63 225.582 49.83 225.162 49.97C224.752 50.11 224.277 50.18 223.737 50.18ZM232.491 50.18C231.091 50.18 230.056 49.705 229.386 48.755C228.726 47.805 228.396 46.475 228.396 44.765C228.396 43.055 228.726 41.725 229.386 40.775C230.056 39.825 231.091 39.35 232.491 39.35C233.891 39.35 234.921 39.825 235.581 40.775C236.251 41.725 236.586 43.055 236.586 44.765C236.586 46.475 236.251 47.805 235.581 48.755C234.921 49.705 233.891 50.18 232.491 50.18ZM232.491 48.365C233.131 48.365 233.571 48.13 233.811 47.66C234.061 47.18 234.186 46.515 234.186 45.665V43.85C234.186 43.01 234.061 42.355 233.811 41.885C233.571 41.405 233.131 41.165 232.491 41.165C231.851 41.165 231.406 41.405 231.156 41.885C230.916 42.355 230.796 43.01 230.796 43.85V45.68C230.796 46.52 230.916 47.18 231.156 47.66C231.406 48.13 231.851 48.365 232.491 48.365ZM243.45 45.335L243.57 42.41H243.435L241.485 47.795L239.535 42.41H239.4L239.52 45.335V50H237.57V39.53H240.225L241.515 43.055H241.635L242.925 39.53H245.4V50H243.45V45.335ZM247.134 39.53H250.809C251.839 39.53 252.624 39.78 253.164 40.28C253.714 40.78 253.989 41.46 253.989 42.32C253.989 42.92 253.839 43.4 253.539 43.76C253.249 44.11 252.829 44.365 252.279 44.525V44.615C252.929 44.775 253.429 45.055 253.779 45.455C254.139 45.855 254.319 46.41 254.319 47.12C254.319 48 254.039 48.7 253.479 49.22C252.929 49.74 252.154 50 251.154 50H247.134V39.53ZM250.464 48.425C251.004 48.425 251.399 48.335 251.649 48.155C251.899 47.975 252.024 47.645 252.024 47.165V46.73C252.024 46.25 251.899 45.92 251.649 45.74C251.399 45.56 251.004 45.47 250.464 45.47H249.324V48.425H250.464ZM250.179 43.97C250.709 43.97 251.094 43.885 251.334 43.715C251.574 43.535 251.694 43.215 251.694 42.755V42.305C251.694 41.845 251.574 41.53 251.334 41.36C251.094 41.19 250.709 41.105 250.179 41.105H249.324V43.97H250.179ZM258.049 39.53V46.16C258.049 46.49 258.059 46.795 258.079 47.075C258.109 47.345 258.169 47.575 258.259 47.765C258.359 47.955 258.504 48.105 258.694 48.215C258.884 48.315 259.144 48.365 259.474 48.365C259.804 48.365 260.064 48.315 260.254 48.215C260.444 48.105 260.584 47.955 260.674 47.765C260.774 47.575 260.834 47.345 260.854 47.075C260.884 46.795 260.899 46.49 260.899 46.16V39.53H263.149V45.86C263.149 46.58 263.099 47.21 262.999 47.75C262.909 48.29 262.729 48.74 262.459 49.1C262.189 49.46 261.814 49.73 261.334 49.91C260.854 50.09 260.234 50.18 259.474 50.18C258.714 50.18 258.094 50.09 257.614 49.91C257.134 49.73 256.759 49.46 256.489 49.1C256.219 48.74 256.034 48.29 255.934 47.75C255.844 47.21 255.799 46.58 255.799 45.86V39.53H258.049ZM268.303 50.18C267.423 50.18 266.658 50.035 266.008 49.745C265.358 49.455 264.833 49.06 264.433 48.56L265.738 47.12C266.118 47.54 266.533 47.85 266.983 48.05C267.443 48.25 267.908 48.35 268.378 48.35C268.918 48.35 269.328 48.23 269.608 47.99C269.888 47.75 270.028 47.405 270.028 46.955C270.028 46.585 269.918 46.305 269.698 46.115C269.488 45.925 269.128 45.79 268.618 45.71L267.523 45.53C266.583 45.37 265.903 45.025 265.483 44.495C265.063 43.955 264.853 43.3 264.853 42.53C264.853 41.52 265.183 40.74 265.843 40.19C266.503 39.63 267.428 39.35 268.618 39.35C269.428 39.35 270.133 39.475 270.733 39.725C271.333 39.975 271.818 40.315 272.188 40.745L270.913 42.17C270.633 41.86 270.303 41.62 269.923 41.45C269.543 41.27 269.113 41.18 268.633 41.18C267.623 41.18 267.118 41.595 267.118 42.425C267.118 42.785 267.228 43.055 267.448 43.235C267.678 43.415 268.048 43.55 268.558 43.64L269.653 43.835C270.503 43.985 271.158 44.305 271.618 44.795C272.078 45.285 272.308 45.945 272.308 46.775C272.308 47.265 272.223 47.72 272.053 48.14C271.883 48.55 271.628 48.91 271.288 49.22C270.948 49.52 270.528 49.755 270.028 49.925C269.538 50.095 268.963 50.18 268.303 50.18ZM278.587 41.375V50H276.337V41.375H273.322V39.53H281.602V41.375H278.587ZM283.081 50V48.335H285.331V41.195H283.081V39.53H289.831V41.195H287.581V48.335H289.831V50H283.081ZM292.105 39.53H295.78C296.81 39.53 297.595 39.78 298.135 40.28C298.685 40.78 298.96 41.46 298.96 42.32C298.96 42.92 298.81 43.4 298.51 43.76C298.22 44.11 297.8 44.365 297.25 44.525V44.615C297.9 44.775 298.4 45.055 298.75 45.455C299.11 45.855 299.29 46.41 299.29 47.12C299.29 48 299.01 48.7 298.45 49.22C297.9 49.74 297.125 50 296.125 50H292.105V39.53ZM295.435 48.425C295.975 48.425 296.37 48.335 296.62 48.155C296.87 47.975 296.995 47.645 296.995 47.165V46.73C296.995 46.25 296.87 45.92 296.62 45.74C296.37 45.56 295.975 45.47 295.435 45.47H294.295V48.425H295.435ZM295.15 43.97C295.68 43.97 296.065 43.885 296.305 43.715C296.545 43.535 296.665 43.215 296.665 42.755V42.305C296.665 41.845 296.545 41.53 296.305 41.36C296.065 41.19 295.68 41.105 295.15 41.105H294.295V43.97H295.15ZM301.324 50V39.53H303.589V48.155H308.089V50H301.324ZM310.138 50V39.53H316.828V41.375H312.388V43.775H316.678V45.62H312.388V48.155H316.828V50H310.138ZM29.451 73H21.921V70.945L25.221 68.2C25.791 67.71 26.201 67.285 26.451 66.925C26.701 66.565 26.826 66.185 26.826 65.785V65.635C26.826 65.195 26.696 64.865 26.436 64.645C26.176 64.415 25.826 64.3 25.386 64.3C24.886 64.3 24.501 64.445 24.231 64.735C23.961 65.025 23.771 65.37 23.661 65.77L21.696 65.02C21.816 64.66 21.981 64.32 22.191 64C22.401 63.67 22.666 63.385 22.986 63.145C23.316 62.905 23.696 62.715 24.126 62.575C24.556 62.425 25.051 62.35 25.611 62.35C26.181 62.35 26.691 62.43 27.141 62.59C27.591 62.75 27.971 62.97 28.281 63.25C28.591 63.53 28.826 63.865 28.986 64.255C29.146 64.635 29.226 65.05 29.226 65.5C29.226 65.94 29.151 66.345 29.001 66.715C28.861 67.075 28.661 67.415 28.401 67.735C28.151 68.055 27.851 68.365 27.501 68.665C27.161 68.965 26.796 69.265 26.406 69.565L24.411 71.11H29.451V73ZM37.9951 64.495H33.1501L32.9101 67.81H33.0451C33.1551 67.57 33.2801 67.35 33.4201 67.15C33.5601 66.94 33.7251 66.765 33.9151 66.625C34.1051 66.475 34.3251 66.36 34.5751 66.28C34.8251 66.2 35.1101 66.16 35.4301 66.16C35.8601 66.16 36.2651 66.235 36.6451 66.385C37.0351 66.535 37.3751 66.755 37.6651 67.045C37.9651 67.325 38.2001 67.675 38.3701 68.095C38.5401 68.505 38.6251 68.97 38.6251 69.49C38.6251 70.02 38.5351 70.51 38.3551 70.96C38.1751 71.41 37.9101 71.8 37.5601 72.13C37.2201 72.46 36.7951 72.72 36.2851 72.91C35.7751 73.09 35.1951 73.18 34.5451 73.18C34.0351 73.18 33.5801 73.125 33.1801 73.015C32.7801 72.905 32.4251 72.76 32.1151 72.58C31.8151 72.39 31.5501 72.175 31.3201 71.935C31.1001 71.685 30.9101 71.43 30.7501 71.17L32.3851 69.88C32.5051 70.08 32.6301 70.27 32.7601 70.45C32.9001 70.63 33.0551 70.79 33.2251 70.93C33.4051 71.06 33.6001 71.165 33.8101 71.245C34.0301 71.315 34.2801 71.35 34.5601 71.35C35.1201 71.35 35.5401 71.2 35.8201 70.9C36.1101 70.59 36.2551 70.18 36.2551 69.67V69.55C36.2551 69.06 36.1101 68.675 35.8201 68.395C35.5301 68.115 35.1301 67.975 34.6201 67.975C34.2001 67.975 33.8501 68.06 33.5701 68.23C33.3001 68.39 33.0951 68.55 32.9551 68.71L31.1101 68.455L31.5001 62.53H37.9951V64.495ZM41.5893 67.93C40.8393 67.93 40.2593 67.685 39.8493 67.195C39.4393 66.695 39.2343 66.01 39.2343 65.14C39.2343 64.27 39.4393 63.59 39.8493 63.1C40.2593 62.6 40.8393 62.35 41.5893 62.35C42.3393 62.35 42.9193 62.6 43.3293 63.1C43.7393 63.59 43.9443 64.27 43.9443 65.14C43.9443 66.01 43.7393 66.695 43.3293 67.195C42.9193 67.685 42.3393 67.93 41.5893 67.93ZM41.5893 66.625C41.8793 66.625 42.0793 66.52 42.1893 66.31C42.3093 66.1 42.3693 65.82 42.3693 65.47V64.81C42.3693 64.46 42.3093 64.18 42.1893 63.97C42.0793 63.76 41.8793 63.655 41.5893 63.655C41.2993 63.655 41.0943 63.76 40.9743 63.97C40.8643 64.18 40.8093 64.46 40.8093 64.81V65.47C40.8093 65.82 40.8643 66.1 40.9743 66.31C41.0943 66.52 41.2993 66.625 41.5893 66.625ZM46.3893 62.53H48.0843L45.8193 67.03H44.1243L46.3893 62.53ZM41.4093 68.5H43.1043L40.8393 73H39.1443L41.4093 68.5ZM45.6543 73.18C44.9043 73.18 44.3243 72.935 43.9143 72.445C43.5043 71.945 43.2993 71.26 43.2993 70.39C43.2993 69.52 43.5043 68.84 43.9143 68.35C44.3243 67.85 44.9043 67.6 45.6543 67.6C46.4043 67.6 46.9843 67.85 47.3943 68.35C47.8043 68.84 48.0093 69.52 48.0093 70.39C48.0093 71.26 47.8043 71.945 47.3943 72.445C46.9843 72.935 46.4043 73.18 45.6543 73.18ZM45.6543 71.875C45.9443 71.875 46.1443 71.77 46.2543 71.56C46.3743 71.35 46.4343 71.07 46.4343 70.72V70.06C46.4343 69.71 46.3743 69.43 46.2543 69.22C46.1443 69.01 45.9443 68.905 45.6543 68.905C45.3643 68.905 45.1593 69.01 45.0393 69.22C44.9293 69.43 44.8743 69.71 44.8743 70.06V70.72C44.8743 71.07 44.9293 71.35 45.0393 71.56C45.1593 71.77 45.3643 71.875 45.6543 71.875ZM61.6025 73.18C60.2025 73.18 59.1675 72.705 58.4975 71.755C57.8375 70.805 57.5075 69.475 57.5075 67.765C57.5075 66.055 57.8375 64.725 58.4975 63.775C59.1675 62.825 60.2025 62.35 61.6025 62.35C63.0025 62.35 64.0325 62.825 64.6925 63.775C65.3625 64.725 65.6975 66.055 65.6975 67.765C65.6975 69.475 65.3625 70.805 64.6925 71.755C64.0325 72.705 63.0025 73.18 61.6025 73.18ZM61.6025 71.365C62.2425 71.365 62.6825 71.13 62.9225 70.66C63.1725 70.18 63.2975 69.515 63.2975 68.665V66.85C63.2975 66.01 63.1725 65.355 62.9225 64.885C62.6825 64.405 62.2425 64.165 61.6025 64.165C60.9625 64.165 60.5175 64.405 60.2675 64.885C60.0275 65.355 59.9075 66.01 59.9075 66.85V68.68C59.9075 69.52 60.0275 70.18 60.2675 70.66C60.5175 71.13 60.9625 71.365 61.6025 71.365ZM67.2967 73V62.53H74.2417V64.375H69.5467V66.775H73.7467V68.62H69.5467V73H67.2967ZM76.2908 73V62.53H83.2358V64.375H78.5408V66.775H82.7408V68.62H78.5408V73H76.2908ZM99.6041 73L98.9441 70.48H96.0791L95.4341 73H93.1541L95.9891 62.53H99.1691L102.004 73H99.6041ZM97.5791 64.705H97.4591L96.4391 68.665H98.5991L97.5791 64.705ZM103.033 62.53H106.408C107.818 62.53 108.863 62.98 109.543 63.88C110.223 64.78 110.563 66.075 110.563 67.765C110.563 69.455 110.223 70.75 109.543 71.65C108.863 72.55 107.818 73 106.408 73H103.033V62.53ZM106.258 71.23C106.928 71.23 107.418 71.015 107.728 70.585C108.038 70.155 108.193 69.53 108.193 68.71V66.805C108.193 65.995 108.038 65.375 107.728 64.945C107.418 64.515 106.928 64.3 106.258 64.3H105.253V71.23H106.258ZM112.192 73V71.335H114.442V64.195H112.192V62.53H118.942V64.195H116.692V71.335H118.942V73H112.192ZM124.802 73.18C123.402 73.18 122.362 72.71 121.682 71.77C121.012 70.82 120.677 69.485 120.677 67.765C120.677 66.045 121.012 64.715 121.682 63.775C122.362 62.825 123.402 62.35 124.802 62.35C125.342 62.35 125.817 62.425 126.227 62.575C126.647 62.715 127.007 62.915 127.307 63.175C127.607 63.435 127.852 63.75 128.042 64.12C128.242 64.49 128.397 64.905 128.507 65.365L126.407 65.875C126.347 65.625 126.277 65.395 126.197 65.185C126.117 64.975 126.012 64.795 125.882 64.645C125.762 64.495 125.607 64.38 125.417 64.3C125.237 64.21 125.017 64.165 124.757 64.165C124.147 64.165 123.712 64.405 123.452 64.885C123.202 65.355 123.077 66.01 123.077 66.85V68.68C123.077 69.52 123.202 70.18 123.452 70.66C123.712 71.13 124.147 71.365 124.757 71.365C125.277 71.365 125.652 71.205 125.882 70.885C126.122 70.565 126.297 70.155 126.407 69.655L128.507 70.165C128.397 70.625 128.242 71.04 128.042 71.41C127.852 71.78 127.607 72.1 127.307 72.37C127.007 72.63 126.647 72.83 126.227 72.97C125.817 73.11 125.342 73.18 124.802 73.18ZM130.181 73V71.335H132.431V64.195H130.181V62.53H136.931V64.195H134.681V71.335H136.931V73H130.181ZM142.55 73.18C141.15 73.18 140.115 72.705 139.445 71.755C138.785 70.805 138.455 69.475 138.455 67.765C138.455 66.055 138.785 64.725 139.445 63.775C140.115 62.825 141.15 62.35 142.55 62.35C143.95 62.35 144.98 62.825 145.64 63.775C146.31 64.725 146.645 66.055 146.645 67.765C146.645 69.475 146.31 70.805 145.64 71.755C144.98 72.705 143.95 73.18 142.55 73.18ZM142.55 71.365C143.19 71.365 143.63 71.13 143.87 70.66C144.12 70.18 144.245 69.515 144.245 68.665V66.85C144.245 66.01 144.12 65.355 143.87 64.885C143.63 64.405 143.19 64.165 142.55 64.165C141.91 64.165 141.465 64.405 141.215 64.885C140.975 65.355 140.855 66.01 140.855 66.85V68.68C140.855 69.52 140.975 70.18 141.215 70.66C141.465 71.13 141.91 71.365 142.55 71.365ZM150.044 66.04H149.879V73H147.959V62.53H150.659L153.044 69.49H153.209V62.53H155.129V73H152.429L150.044 66.04ZM162.563 73L161.903 70.48H159.038L158.393 73H156.113L158.948 62.53H162.128L164.963 73H162.563ZM160.538 64.705H160.418L159.398 68.665H161.558L160.538 64.705ZM166.412 73V62.53H168.677V71.155H173.177V73H166.412ZM184.221 73V62.53H190.911V64.375H186.471V66.775H190.761V68.62H186.471V71.155H190.911V73H184.221ZM195.015 66.04H194.85V73H192.93V62.53H195.63L198.015 69.49H198.18V62.53H200.1V73H197.4L195.015 66.04ZM215.628 64.375V73H213.378V64.375H210.363V62.53H218.643V64.375H215.628ZM222.072 62.53V69.16C222.072 69.49 222.082 69.795 222.102 70.075C222.132 70.345 222.192 70.575 222.282 70.765C222.382 70.955 222.527 71.105 222.717 71.215C222.907 71.315 223.167 71.365 223.497 71.365C223.827 71.365 224.087 71.315 224.277 71.215C224.467 71.105 224.607 70.955 224.697 70.765C224.797 70.575 224.857 70.345 224.877 70.075C224.907 69.795 224.922 69.49 224.922 69.16V62.53H227.172V68.86C227.172 69.58 227.122 70.21 227.022 70.75C226.932 71.29 226.752 71.74 226.482 72.1C226.212 72.46 225.837 72.73 225.357 72.91C224.877 73.09 224.257 73.18 223.497 73.18C222.737 73.18 222.117 73.09 221.637 72.91C221.157 72.73 220.782 72.46 220.512 72.1C220.242 71.74 220.057 71.29 219.957 70.75C219.867 70.21 219.822 69.58 219.822 68.86V62.53H222.072ZM243.45 68.335L243.57 65.41H243.435L241.485 70.795L239.535 65.41H239.4L239.52 68.335V73H237.57V62.53H240.225L241.515 66.055H241.635L242.925 62.53H245.4V73H243.45V68.335ZM247.179 73V62.53H253.869V64.375H249.429V66.775H253.719V68.62H249.429V71.155H253.869V73H247.179ZM261.439 68.335L261.559 65.41H261.424L259.474 70.795L257.524 65.41H257.389L257.509 68.335V73H255.559V62.53H258.214L259.504 66.055H259.624L260.914 62.53H263.389V73H261.439V68.335ZM265.123 62.53H268.798C269.828 62.53 270.613 62.78 271.153 63.28C271.703 63.78 271.978 64.46 271.978 65.32C271.978 65.92 271.828 66.4 271.528 66.76C271.238 67.11 270.818 67.365 270.268 67.525V67.615C270.918 67.775 271.418 68.055 271.768 68.455C272.128 68.855 272.308 69.41 272.308 70.12C272.308 71 272.028 71.7 271.468 72.22C270.918 72.74 270.143 73 269.143 73H265.123V62.53ZM268.453 71.425C268.993 71.425 269.388 71.335 269.638 71.155C269.888 70.975 270.013 70.645 270.013 70.165V69.73C270.013 69.25 269.888 68.92 269.638 68.74C269.388 68.56 268.993 68.47 268.453 68.47H267.313V71.425H268.453ZM268.168 66.97C268.698 66.97 269.083 66.885 269.323 66.715C269.563 66.535 269.683 66.215 269.683 65.755V65.305C269.683 64.845 269.563 64.53 269.323 64.36C269.083 64.19 268.698 64.105 268.168 64.105H267.313V66.97H268.168ZM276.322 73H274.102V62.53H278.152C278.662 62.53 279.117 62.61 279.517 62.77C279.917 62.92 280.252 63.14 280.522 63.43C280.802 63.72 281.012 64.07 281.152 64.48C281.292 64.89 281.362 65.35 281.362 65.86C281.362 66.6 281.202 67.235 280.882 67.765C280.562 68.295 280.107 68.645 279.517 68.815L281.572 73H279.112L277.357 69.115H276.322V73ZM277.612 67.375C278.142 67.375 278.507 67.275 278.707 67.075C278.917 66.875 279.022 66.545 279.022 66.085V65.635C279.022 65.175 278.917 64.845 278.707 64.645C278.507 64.445 278.142 64.345 277.612 64.345H276.322V67.375H277.612ZM283.156 73V62.53H289.846V64.375H285.406V66.775H289.696V68.62H285.406V71.155H289.846V73H283.156ZM295.285 73.18C294.405 73.18 293.64 73.035 292.99 72.745C292.34 72.455 291.815 72.06 291.415 71.56L292.72 70.12C293.1 70.54 293.515 70.85 293.965 71.05C294.425 71.25 294.89 71.35 295.36 71.35C295.9 71.35 296.31 71.23 296.59 70.99C296.87 70.75 297.01 70.405 297.01 69.955C297.01 69.585 296.9 69.305 296.68 69.115C296.47 68.925 296.11 68.79 295.6 68.71L294.505 68.53C293.565 68.37 292.885 68.025 292.465 67.495C292.045 66.955 291.835 66.3 291.835 65.53C291.835 64.52 292.165 63.74 292.825 63.19C293.485 62.63 294.41 62.35 295.6 62.35C296.41 62.35 297.115 62.475 297.715 62.725C298.315 62.975 298.8 63.315 299.17 63.745L297.895 65.17C297.615 64.86 297.285 64.62 296.905 64.45C296.525 64.27 296.095 64.18 295.615 64.18C294.605 64.18 294.1 64.595 294.1 65.425C294.1 65.785 294.21 66.055 294.43 66.235C294.66 66.415 295.03 66.55 295.54 66.64L296.635 66.835C297.485 66.985 298.14 67.305 298.6 67.795C299.06 68.285 299.29 68.945 299.29 69.775C299.29 70.265 299.205 70.72 299.035 71.14C298.865 71.55 298.61 71.91 298.27 72.22C297.93 72.52 297.51 72.755 297.01 72.925C296.52 73.095 295.945 73.18 295.285 73.18ZM301.069 73V71.335H303.319V64.195H301.069V62.53H307.819V64.195H305.569V71.335H307.819V73H301.069ZM304.684 61.9L303.364 61.255L304.849 58.345L306.694 59.26L304.684 61.9ZM315.463 73L314.803 70.48H311.938L311.293 73H309.013L311.848 62.53H315.028L317.863 73H315.463ZM313.438 64.705H313.318L312.298 68.665H314.458L313.438 64.705ZM335.792 73H333.227L332.147 70.915L331.412 69.265H331.277L330.527 70.915L329.417 73H327.062L330.002 67.585L327.257 62.53H329.822L330.677 64.195L331.442 65.875H331.562L332.342 64.195L333.242 62.53H335.597L332.852 67.615L335.792 73ZM349.475 73.18C348.845 73.18 348.28 73.085 347.78 72.895C347.29 72.695 346.875 72.415 346.535 72.055C346.195 71.685 345.935 71.245 345.755 70.735C345.575 70.225 345.485 69.655 345.485 69.025C345.485 68.295 345.6 67.605 345.83 66.955C346.06 66.295 346.355 65.69 346.715 65.14C347.085 64.58 347.495 64.08 347.945 63.64C348.405 63.2 348.86 62.83 349.31 62.53H352.415C351.765 62.98 351.18 63.415 350.66 63.835C350.15 64.245 349.7 64.66 349.31 65.08C348.93 65.49 348.615 65.915 348.365 66.355C348.125 66.795 347.95 67.27 347.84 67.78L347.975 67.825C348.065 67.625 348.175 67.43 348.305 67.24C348.435 67.05 348.595 66.885 348.785 66.745C348.975 66.595 349.195 66.475 349.445 66.385C349.705 66.295 350.005 66.25 350.345 66.25C350.785 66.25 351.195 66.33 351.575 66.49C351.955 66.64 352.28 66.86 352.55 67.15C352.83 67.43 353.05 67.77 353.21 68.17C353.37 68.57 353.45 69.02 353.45 69.52C353.45 70.05 353.355 70.54 353.165 70.99C352.975 71.44 352.705 71.83 352.355 72.16C352.015 72.48 351.6 72.73 351.11 72.91C350.62 73.09 350.075 73.18 349.475 73.18ZM349.46 71.425C350 71.425 350.41 71.285 350.69 71.005C350.97 70.715 351.11 70.31 351.11 69.79V69.58C351.11 69.06 350.965 68.665 350.675 68.395C350.395 68.115 349.99 67.975 349.46 67.975C348.95 67.975 348.55 68.115 348.26 68.395C347.97 68.665 347.825 69.06 347.825 69.58V69.79C347.825 70.31 347.96 70.715 348.23 71.005C348.51 71.285 348.92 71.425 349.46 71.425ZM369.368 68.335L369.488 65.41H369.353L367.403 70.795L365.453 65.41H365.318L365.438 68.335V73H363.488V62.53H366.143L367.433 66.055H367.553L368.843 62.53H371.318V73H369.368V68.335ZM373.097 73V62.53H379.787V64.375H375.347V66.775H379.637V68.62H375.347V71.155H379.787V73H373.097ZM385.227 73.18C384.347 73.18 383.582 73.035 382.932 72.745C382.282 72.455 381.757 72.06 381.357 71.56L382.662 70.12C383.042 70.54 383.457 70.85 383.907 71.05C384.367 71.25 384.832 71.35 385.302 71.35C385.842 71.35 386.252 71.23 386.532 70.99C386.812 70.75 386.952 70.405 386.952 69.955C386.952 69.585 386.842 69.305 386.622 69.115C386.412 68.925 386.052 68.79 385.542 68.71L384.447 68.53C383.507 68.37 382.827 68.025 382.407 67.495C381.987 66.955 381.777 66.3 381.777 65.53C381.777 64.52 382.107 63.74 382.767 63.19C383.427 62.63 384.352 62.35 385.542 62.35C386.352 62.35 387.057 62.475 387.657 62.725C388.257 62.975 388.742 63.315 389.112 63.745L387.837 65.17C387.557 64.86 387.227 64.62 386.847 64.45C386.467 64.27 386.037 64.18 385.557 64.18C384.547 64.18 384.042 64.595 384.042 65.425C384.042 65.785 384.152 66.055 384.372 66.235C384.602 66.415 384.972 66.55 385.482 66.64L386.577 66.835C387.427 66.985 388.082 67.305 388.542 67.795C389.002 68.285 389.232 68.945 389.232 69.775C389.232 70.265 389.147 70.72 388.977 71.14C388.807 71.55 388.552 71.91 388.212 72.22C387.872 72.52 387.452 72.755 386.952 72.925C386.462 73.095 385.887 73.18 385.227 73.18ZM391.086 73V62.53H397.776V64.375H393.336V66.775H397.626V68.62H393.336V71.155H397.776V73H391.086ZM403.215 73.18C402.335 73.18 401.57 73.035 400.92 72.745C400.27 72.455 399.745 72.06 399.345 71.56L400.65 70.12C401.03 70.54 401.445 70.85 401.895 71.05C402.355 71.25 402.82 71.35 403.29 71.35C403.83 71.35 404.24 71.23 404.52 70.99C404.8 70.75 404.94 70.405 404.94 69.955C404.94 69.585 404.83 69.305 404.61 69.115C404.4 68.925 404.04 68.79 403.53 68.71L402.435 68.53C401.495 68.37 400.815 68.025 400.395 67.495C399.975 66.955 399.765 66.3 399.765 65.53C399.765 64.52 400.095 63.74 400.755 63.19C401.415 62.63 402.34 62.35 403.53 62.35C404.34 62.35 405.045 62.475 405.645 62.725C406.245 62.975 406.73 63.315 407.1 63.745L405.825 65.17C405.545 64.86 405.215 64.62 404.835 64.45C404.455 64.27 404.025 64.18 403.545 64.18C402.535 64.18 402.03 64.595 402.03 65.425C402.03 65.785 402.14 66.055 402.36 66.235C402.59 66.415 402.96 66.55 403.47 66.64L404.565 66.835C405.415 66.985 406.07 67.305 406.53 67.795C406.99 68.285 407.22 68.945 407.22 69.775C407.22 70.265 407.135 70.72 406.965 71.14C406.795 71.55 406.54 71.91 406.2 72.22C405.86 72.52 405.44 72.755 404.94 72.925C404.45 73.095 403.875 73.18 403.215 73.18Z" fill="white"/>
</svg>
