<svg width="30" height="25" viewBox="0 0 30 25" fill="none" xmlns="http://www.w3.org/2000/svg">
<path d="M29 22.4653H27V8.46533C27.2652 8.46533 27.5196 8.35997 27.7071 8.17244C27.8946 7.9849 28 7.73055 28 7.46533C28 7.20012 27.8946 6.94576 27.7071 6.75823C27.5196 6.57069 27.2652 6.46533 27 6.46533H21V2.46533C21.2652 2.46533 21.5196 2.35997 21.7071 2.17244C21.8946 1.9849 22 1.73055 22 1.46533C22 1.20012 21.8946 0.945762 21.7071 0.758225C21.5196 0.570689 21.2652 0.465332 21 0.465332H3C2.73478 0.465332 2.48043 0.570689 2.29289 0.758225C2.10536 0.945762 2 1.20012 2 1.46533C2 1.73055 2.10536 1.9849 2.29289 2.17244C2.48043 2.35997 2.73478 2.46533 3 2.46533V22.4653H1C0.734784 22.4653 0.48043 22.5707 0.292893 22.7582C0.105357 22.9458 0 23.2001 0 23.4653C0 23.7305 0.105357 23.9849 0.292893 24.1724C0.48043 24.36 0.734784 24.4653 1 24.4653H29C29.2652 24.4653 29.5196 24.36 29.7071 24.1724C29.8946 23.9849 30 23.7305 30 23.4653C30 23.2001 29.8946 22.9458 29.7071 22.7582C29.5196 22.5707 29.2652 22.4653 29 22.4653ZM25 8.46533V22.4653H21V8.46533H25ZM5 2.46533H19V22.4653H16V16.4653C16 16.2001 15.8946 15.9458 15.7071 15.7582C15.5196 15.5707 15.2652 15.4653 15 15.4653H9C8.73478 15.4653 8.48043 15.5707 8.29289 15.7582C8.10536 15.9458 8 16.2001 8 16.4653V22.4653H5V2.46533ZM14 22.4653H10V17.4653H14V22.4653ZM7 6.46533C7 6.20012 7.10536 5.94576 7.29289 5.75823C7.48043 5.57069 7.73478 5.46533 8 5.46533H10C10.2652 5.46533 10.5196 5.57069 10.7071 5.75823C10.8946 5.94576 11 6.20012 11 6.46533C11 6.73055 10.8946 6.9849 10.7071 7.17244C10.5196 7.35997 10.2652 7.46533 10 7.46533H8C7.73478 7.46533 7.48043 7.35997 7.29289 7.17244C7.10536 6.9849 7 6.73055 7 6.46533ZM13 6.46533C13 6.20012 13.1054 5.94576 13.2929 5.75823C13.4804 5.57069 13.7348 5.46533 14 5.46533H16C16.2652 5.46533 16.5196 5.57069 16.7071 5.75823C16.8946 5.94576 17 6.20012 17 6.46533C17 6.73055 16.8946 6.9849 16.7071 7.17244C16.5196 7.35997 16.2652 7.46533 16 7.46533H14C13.7348 7.46533 13.4804 7.35997 13.2929 7.17244C13.1054 6.9849 13 6.73055 13 6.46533ZM7 11.4653C7 11.2001 7.10536 10.9458 7.29289 10.7582C7.48043 10.5707 7.73478 10.4653 8 10.4653H10C10.2652 10.4653 10.5196 10.5707 10.7071 10.7582C10.8946 10.9458 11 11.2001 11 11.4653C11 11.7305 10.8946 11.9849 10.7071 12.1724C10.5196 12.36 10.2652 12.4653 10 12.4653H8C7.73478 12.4653 7.48043 12.36 7.29289 12.1724C7.10536 11.9849 7 11.7305 7 11.4653ZM13 11.4653C13 11.2001 13.1054 10.9458 13.2929 10.7582C13.4804 10.5707 13.7348 10.4653 14 10.4653H16C16.2652 10.4653 16.5196 10.5707 16.7071 10.7582C16.8946 10.9458 17 11.2001 17 11.4653C17 11.7305 16.8946 11.9849 16.7071 12.1724C16.5196 12.36 16.2652 12.4653 16 12.4653H14C13.7348 12.4653 13.4804 12.36 13.2929 12.1724C13.1054 11.9849 13 11.7305 13 11.4653Z" fill="#692727"/>
</svg>
