<svg width="26" height="27" viewBox="0 0 26 27" fill="none" xmlns="http://www.w3.org/2000/svg">
<path d="M22.5 16.4653C22.5 16.762 22.412 17.052 22.2472 17.2987C22.0824 17.5454 21.8481 17.7376 21.574 17.8512C21.2999 17.9647 20.9983 17.9944 20.7074 17.9365C20.4164 17.8786 20.1491 17.7358 19.9393 17.526C19.7296 17.3162 19.5867 17.0489 19.5288 16.758C19.4709 16.467 19.5007 16.1654 19.6142 15.8913C19.7277 15.6172 19.92 15.383 20.1666 15.2181C20.4133 15.0533 20.7033 14.9653 21 14.9653C21.3978 14.9653 21.7794 15.1234 22.0607 15.4047C22.342 15.686 22.5 16.0675 22.5 16.4653ZM21.9312 21.3766C21.7116 22.7926 20.9932 24.0836 19.9057 25.0166C18.8181 25.9497 17.433 26.4635 16 26.4653H13C11.4092 26.4637 9.88405 25.831 8.75919 24.7061C7.63433 23.5813 7.00165 22.0561 7 20.4653V15.4016C5.06691 15.158 3.28915 14.2174 2.00033 12.7562C0.711515 11.295 0.000244506 9.4137 0 7.46533V1.46533C0 1.20012 0.105357 0.945762 0.292893 0.758225C0.48043 0.570689 0.734784 0.465332 1 0.465332H4C4.26522 0.465332 4.51957 0.570689 4.70711 0.758225C4.89464 0.945762 5 1.20012 5 1.46533C5 1.73055 4.89464 1.9849 4.70711 2.17244C4.51957 2.35997 4.26522 2.46533 4 2.46533H2V7.46533C1.99993 8.26004 2.15773 9.04685 2.46425 9.78006C2.77077 10.5133 3.2199 11.1783 3.78555 11.7365C4.3512 12.2947 5.02211 12.735 5.75932 13.0318C6.49654 13.3286 7.28536 13.4759 8.08 13.4653C11.3438 13.4228 14 10.6841 14 7.36158V2.46533H12C11.7348 2.46533 11.4804 2.35997 11.2929 2.17244C11.1054 1.9849 11 1.73055 11 1.46533C11 1.20012 11.1054 0.945762 11.2929 0.758225C11.4804 0.570689 11.7348 0.465332 12 0.465332H15C15.2652 0.465332 15.5196 0.570689 15.7071 0.758225C15.8946 0.945762 16 1.20012 16 1.46533V7.36158C16 11.4666 12.9338 14.8978 9 15.4003V20.4653C9 21.5262 9.42143 22.5436 10.1716 23.2938C10.9217 24.0439 11.9391 24.4653 13 24.4653H16C16.9084 24.4638 17.7893 24.1538 18.4983 23.586C19.2074 23.0182 19.7025 22.2264 19.9025 21.3403C18.6948 21.0691 17.6306 20.3594 16.916 19.3488C16.2013 18.3382 15.8869 17.0984 16.0336 15.8693C16.1803 14.6402 16.7776 13.5093 17.7101 12.6952C18.6426 11.8812 19.8439 11.442 21.0815 11.4626C22.3191 11.4832 23.5051 11.9621 24.41 12.8067C25.3149 13.6513 25.8743 14.8015 25.98 16.0348C26.0858 17.2681 25.7303 18.4967 24.9824 19.483C24.2345 20.4693 23.1473 21.1431 21.9312 21.3741V21.3766ZM24 16.4653C24 15.872 23.8241 15.292 23.4944 14.7986C23.1648 14.3053 22.6962 13.9208 22.1481 13.6937C21.5999 13.4666 20.9967 13.4072 20.4147 13.523C19.8328 13.6387 19.2982 13.9245 18.8787 14.344C18.4591 14.7636 18.1734 15.2981 18.0576 15.8801C17.9419 16.462 18.0013 17.0652 18.2284 17.6134C18.4554 18.1616 18.8399 18.6301 19.3333 18.9597C19.8266 19.2894 20.4067 19.4653 21 19.4653C21.7956 19.4653 22.5587 19.1493 23.1213 18.5867C23.6839 18.024 24 17.261 24 16.4653Z" fill="#692727"/>
</svg>
