<svg width="105" height="21" viewBox="0 0 105 21" fill="none" xmlns="http://www.w3.org/2000/svg">
<path d="M17.93 10.2393L14.7139 13.1161L15.6937 17.4182C15.7478 17.6518 15.7339 17.8967 15.6537 18.122C15.5736 18.3474 15.4308 18.5431 15.2434 18.6843C15.056 18.8256 14.8325 18.9061 14.601 18.9158C14.3695 18.9254 14.1404 18.8637 13.9427 18.7384L10.3335 16.4359L6.72207 18.7384C6.5244 18.863 6.29561 18.9241 6.0645 18.9141C5.83339 18.9041 5.6103 18.8235 5.42332 18.6823C5.23633 18.5412 5.09382 18.3458 5.01372 18.1209C4.93363 17.8959 4.91953 17.6515 4.9732 17.4182L5.95663 13.1161L2.74047 10.2393C2.56558 10.0826 2.4391 9.876 2.37682 9.64524C2.31454 9.41449 2.31922 9.16982 2.39028 8.94181C2.46134 8.7138 2.59562 8.51254 2.77637 8.36317C2.95711 8.21379 3.17631 8.12293 3.40657 8.10192L7.62331 7.74927L9.24997 3.66862C9.33802 3.44622 9.48787 3.25599 9.68048 3.12211C9.8731 2.98823 10.0998 2.91675 10.3317 2.91675C10.5636 2.91675 10.7902 2.98823 10.9829 3.12211C11.1755 3.25599 11.3253 3.44622 11.4134 3.66862L13.0393 7.74927L17.2561 8.10192C17.4868 8.12215 17.7066 8.21251 17.888 8.36167C18.0694 8.51084 18.2043 8.71218 18.2758 8.94047C18.3473 9.16876 18.3522 9.41384 18.29 9.64502C18.2277 9.8762 18.101 10.0832 17.9257 10.24L17.93 10.2393Z" fill="#FBB004"/>
<path d="M38.9048 10.2393L35.4876 13.1161L36.5287 17.4182C36.5862 17.6518 36.5714 17.8967 36.4862 18.122C36.4011 18.3474 36.2494 18.5431 36.0503 18.6843C35.8512 18.8256 35.6137 18.9061 35.3677 18.9158C35.1217 18.9254 34.8783 18.8637 34.6683 18.7384L30.8335 16.4359L26.9964 18.7384C26.7863 18.863 26.5433 18.9241 26.2977 18.9141C26.0521 18.9041 25.8151 18.8235 25.6164 18.6823C25.4178 18.5412 25.2664 18.3458 25.1812 18.1209C25.0961 17.8959 25.0812 17.6515 25.1382 17.4182L26.1831 13.1161L22.7659 10.2393C22.5801 10.0826 22.4457 9.876 22.3795 9.64524C22.3134 9.41449 22.3183 9.16982 22.3938 8.94181C22.4693 8.7138 22.612 8.51254 22.8041 8.36317C22.9961 8.21379 23.229 8.12293 23.4736 8.10192L27.9539 7.74927L29.6823 3.66862C29.7758 3.44622 29.935 3.25599 30.1397 3.12211C30.3443 2.98823 30.5852 2.91675 30.8316 2.91675C31.078 2.91675 31.3188 2.98823 31.5235 3.12211C31.7281 3.25599 31.8873 3.44622 31.9809 3.66862L33.7084 7.74927L38.1887 8.10192C38.4339 8.12215 38.6674 8.21251 38.8602 8.36167C39.0529 8.51084 39.1963 8.71218 39.2722 8.94047C39.3482 9.16876 39.3534 9.41384 39.2873 9.64502C39.2211 9.8762 39.0865 10.0832 38.9003 10.24L38.9048 10.2393Z" fill="#FBB004"/>
<path d="M59.9048 10.2393L56.4876 13.1161L57.5287 17.4182C57.5862 17.6518 57.5714 17.8967 57.4862 18.122C57.4011 18.3474 57.2494 18.5431 57.0503 18.6843C56.8512 18.8256 56.6137 18.9061 56.3677 18.9158C56.1217 18.9254 55.8783 18.8637 55.6683 18.7384L51.8335 16.4359L47.9964 18.7384C47.7863 18.863 47.5433 18.9241 47.2977 18.9141C47.0521 18.9041 46.8151 18.8235 46.6164 18.6823C46.4178 18.5412 46.2664 18.3458 46.1812 18.1209C46.0961 17.8959 46.0812 17.6515 46.1382 17.4182L47.1831 13.1161L43.7659 10.2393C43.5801 10.0826 43.4457 9.876 43.3795 9.64524C43.3134 9.41449 43.3183 9.16982 43.3938 8.94181C43.4693 8.7138 43.612 8.51254 43.8041 8.36317C43.9961 8.21379 44.229 8.12293 44.4736 8.10192L48.9539 7.74927L50.6823 3.66862C50.7758 3.44622 50.935 3.25599 51.1397 3.12211C51.3443 2.98823 51.5852 2.91675 51.8316 2.91675C52.078 2.91675 52.3188 2.98823 52.5235 3.12211C52.7281 3.25599 52.8873 3.44622 52.9809 3.66862L54.7084 7.74927L59.1887 8.10192C59.4339 8.12215 59.6674 8.21251 59.8602 8.36167C60.0529 8.51084 60.1963 8.71218 60.2722 8.94047C60.3482 9.16876 60.3534 9.41384 60.2873 9.64502C60.2211 9.8762 60.0865 10.0832 59.9003 10.24L59.9048 10.2393Z" fill="#FBB004"/>
<path d="M80.9048 10.2393L77.4876 13.1161L78.5287 17.4182C78.5862 17.6518 78.5714 17.8967 78.4862 18.122C78.4011 18.3474 78.2494 18.5431 78.0503 18.6843C77.8512 18.8256 77.6137 18.9061 77.3677 18.9158C77.1217 18.9254 76.8783 18.8637 76.6683 18.7384L72.8335 16.4359L68.9964 18.7384C68.7863 18.863 68.5433 18.9241 68.2977 18.9141C68.0521 18.9041 67.8151 18.8235 67.6164 18.6823C67.4178 18.5412 67.2664 18.3458 67.1812 18.1209C67.0961 17.8959 67.0812 17.6515 67.1382 17.4182L68.1831 13.1161L64.7659 10.2393C64.5801 10.0826 64.4457 9.876 64.3795 9.64524C64.3134 9.41449 64.3183 9.16982 64.3938 8.94181C64.4693 8.7138 64.612 8.51254 64.8041 8.36317C64.9961 8.21379 65.229 8.12293 65.4736 8.10192L69.9539 7.74927L71.6823 3.66862C71.7758 3.44622 71.935 3.25599 72.1397 3.12211C72.3443 2.98823 72.5852 2.91675 72.8316 2.91675C73.078 2.91675 73.3188 2.98823 73.5235 3.12211C73.7281 3.25599 73.8873 3.44622 73.9809 3.66862L75.7084 7.74927L80.1887 8.10192C80.4339 8.12215 80.6674 8.21251 80.8602 8.36167C81.0529 8.51084 81.1963 8.71218 81.2722 8.94047C81.3482 9.16876 81.3534 9.41384 81.2873 9.64502C81.2211 9.8762 81.0865 10.0832 80.9003 10.24L80.9048 10.2393Z" fill="#FBB004"/>
<path d="M101.905 10.2393L98.4876 13.1161L99.5287 17.4182C99.5862 17.6518 99.5714 17.8967 99.4862 18.122C99.4011 18.3474 99.2494 18.5431 99.0503 18.6843C98.8512 18.8256 98.6137 18.9061 98.3677 18.9158C98.1217 18.9254 97.8783 18.8637 97.6683 18.7384L93.8335 16.4359L89.9964 18.7384C89.7863 18.863 89.5433 18.9241 89.2977 18.9141C89.0521 18.9041 88.8151 18.8235 88.6164 18.6823C88.4178 18.5412 88.2664 18.3458 88.1812 18.1209C88.0961 17.8959 88.0812 17.6515 88.1382 17.4182L89.1831 13.1161L85.7659 10.2393C85.5801 10.0826 85.4457 9.876 85.3795 9.64524C85.3134 9.41449 85.3183 9.16982 85.3938 8.94181C85.4693 8.7138 85.612 8.51254 85.8041 8.36317C85.9961 8.21379 86.229 8.12293 86.4736 8.10192L90.9539 7.74927L92.6823 3.66862C92.7758 3.44622 92.935 3.25599 93.1397 3.12211C93.3443 2.98823 93.5852 2.91675 93.8316 2.91675C94.078 2.91675 94.3188 2.98823 94.5235 3.12211C94.7281 3.25599 94.8873 3.44622 94.9809 3.66862L96.7084 7.74927L101.189 8.10192C101.434 8.12215 101.667 8.21251 101.86 8.36167C102.053 8.51084 102.196 8.71218 102.272 8.94047C102.348 9.16876 102.353 9.41384 102.287 9.64502C102.221 9.8762 102.086 10.0832 101.9 10.24L101.905 10.2393Z" fill="#FBB004"/>
</svg>
