<svg width="26" height="27" viewBox="0 0 26 27" fill="none" xmlns="http://www.w3.org/2000/svg">
<path d="M25.345 6.0904C25.2843 5.94048 25.1882 5.8075 25.0649 5.70288C24.9415 5.59825 24.7947 5.52511 24.6369 5.48971C24.479 5.45431 24.315 5.45772 24.1588 5.49964C24.0026 5.54156 23.8589 5.62075 23.74 5.7304L18.7025 10.3792L16.5487 9.91665L16.0862 7.7629L20.735 2.7254C20.8447 2.60652 20.9238 2.46281 20.9658 2.3066C21.0077 2.1504 21.0111 1.98635 20.9757 1.82854C20.9403 1.67073 20.8671 1.52386 20.7625 1.40052C20.6579 1.27718 20.5249 1.18106 20.375 1.1204C19.0087 0.567694 17.5275 0.359006 16.0616 0.512676C14.5958 0.666345 13.1901 1.17767 11.9681 2.00172C10.7461 2.82577 9.74518 3.93732 9.05329 5.23872C8.3614 6.54011 7.99971 7.99152 8 9.4654C7.99838 10.71 8.25371 11.9415 8.75 13.0829L1.22375 19.5904C1.205 19.6054 1.1875 19.6229 1.17 19.6392C0.419767 20.3894 -0.00170898 21.4069 -0.00170898 22.4679C-0.00170898 22.9933 0.101766 23.5135 0.302808 23.9988C0.503849 24.4842 0.798521 24.9252 1.17 25.2967C1.54147 25.6681 1.98248 25.9628 2.46784 26.1638C2.9532 26.3649 3.4734 26.4684 3.99875 26.4684C5.05973 26.4684 6.07727 26.0469 6.8275 25.2967C6.84375 25.2804 6.86125 25.2617 6.87625 25.2442L13.3825 17.7154C14.753 18.317 16.252 18.5673 17.7436 18.4437C19.2353 18.32 20.6725 17.8262 21.9253 17.0071C23.178 16.188 24.2067 15.0694 24.9182 13.7525C25.6297 12.4357 26.0015 10.9622 26 9.4654C26.0019 8.30863 25.7795 7.16247 25.345 6.0904ZM17 16.4654C15.8163 16.4638 14.6523 16.1628 13.6162 15.5904C13.4155 15.4795 13.1828 15.441 12.957 15.4813C12.7313 15.5215 12.5262 15.6382 12.3762 15.8117L5.38875 23.9042C5.01062 24.2634 4.50712 24.4607 3.9856 24.454C3.46408 24.4474 2.96579 24.2372 2.59699 23.8684C2.22819 23.4996 2.01805 23.0013 2.01137 22.4798C2.00469 21.9583 2.20201 21.4548 2.56125 21.0767L10.6475 14.0904C10.8213 13.9403 10.9381 13.7351 10.9784 13.509C11.0187 13.283 10.98 13.05 10.8687 12.8492C10.2313 11.6962 9.93212 10.3868 10.0057 9.07138C10.0792 7.75599 10.5224 6.48806 11.2844 5.41334C12.0464 4.33863 13.0963 3.50077 14.3132 2.99609C15.5301 2.49141 16.8648 2.34039 18.1637 2.5604L14.2637 6.78665C14.1552 6.90437 14.0766 7.04642 14.0344 7.20086C13.9922 7.3553 13.9877 7.51761 14.0212 7.67415L14.7287 10.9654C14.7692 11.1536 14.8632 11.3262 14.9993 11.4623C15.1355 11.5985 15.308 11.6924 15.4962 11.7329L18.79 12.4404C18.9465 12.474 19.1089 12.4695 19.2633 12.4273C19.4177 12.3851 19.5598 12.3064 19.6775 12.1979L23.9037 8.2979C24.0722 9.30166 24.02 10.3301 23.7508 11.3116C23.4816 12.2932 23.0017 13.2043 22.3447 13.9816C21.6876 14.7589 20.8692 15.3838 19.9462 15.8127C19.0232 16.2416 18.0178 16.4644 17 16.4654Z" fill="#692727"/>
</svg>
